<!-- Generated by IcoMoon.io -->
<svg version="1.1" xmlns="http://www.w3.org/2000/svg" width="32" height="32" viewBox="0 0 32 32">
<title>arrow-round-forward</title>
<path d="M18.475 10.231c-0.319 0.313-0.319 0.831-0.006 1.15l3.8 3.806h-14.463c-0.444 0-0.806 0.363-0.806 0.813s0.362 0.813 0.806 0.813h14.456l-3.8 3.806c-0.313 0.319-0.306 0.831 0.006 1.15 0.319 0.313 0.825 0.313 1.144-0.006l5.15-5.188c0.069-0.075 0.125-0.156 0.169-0.256s0.063-0.206 0.063-0.313c0-0.213-0.081-0.412-0.231-0.569l-5.15-5.188c-0.306-0.325-0.819-0.331-1.137-0.019z"></path>
</svg>
