<!-- Generated by IcoMoon.io -->
<svg version="1.1" xmlns="http://www.w3.org/2000/svg" width="32" height="32" viewBox="0 0 32 32">
<title>arrow-round-back</title>
<path d="M13.525 10.231c0.319 0.313 0.319 0.831 0.006 1.15l-3.794 3.806h14.456c0.444 0 0.806 0.363 0.806 0.813s-0.363 0.813-0.806 0.813h-14.456l3.8 3.806c0.313 0.319 0.306 0.831-0.006 1.15-0.319 0.313-0.825 0.313-1.144-0.006l-5.15-5.188c-0.069-0.075-0.125-0.156-0.169-0.256s-0.063-0.206-0.063-0.313c0-0.213 0.081-0.412 0.231-0.569l5.15-5.188c0.306-0.325 0.819-0.331 1.137-0.019z"></path>
</svg>
