<!-- Generated by IcoMoon.io -->
<svg version="1.1" xmlns="http://www.w3.org/2000/svg" width="32" height="32" viewBox="0 0 32 32">
<title>broadband</title>
<path fill="none" stroke="#483896" stroke-linejoin="miter" stroke-linecap="butt" stroke-miterlimit="10" stroke-width="0.6669" d="M2.149 20.164h27.794c0.86 0 1.556 0.697 1.556 1.556v8.224c0 0.86-0.697 1.556-1.556 1.556h-27.794c-0.86 0-1.556-0.697-1.556-1.556v-8.224c0-0.86 0.697-1.556 1.556-1.556z"></path>
<path fill="#009b99" d="M2.831 21.109h26.414c0.688 0 1.246 0.558 1.246 1.246v7.052c0 0.688-0.558 1.246-1.246 1.246h-26.414c-0.688 0-1.246-0.558-1.246-1.246v-7.053c0-0.688 0.558-1.246 1.246-1.246z"></path>
<path fill="#fff" d="M8.931 25.763c0 1.228-0.995 2.223-2.223 2.223s-2.223-0.995-2.223-2.223c0-1.228 0.995-2.223 2.223-2.223s2.223 0.995 2.223 2.223z"></path>
<path fill="#fff" d="M14.044 25.763c0 0.737-0.597 1.334-1.334 1.334s-1.334-0.597-1.334-1.334c0-0.737 0.597-1.334 1.334-1.334s1.334 0.597 1.334 1.334z"></path>
<path fill="#fff" d="M18.045 25.763c0 0.737-0.597 1.334-1.334 1.334s-1.334-0.597-1.334-1.334c0-0.737 0.597-1.334 1.334-1.334s1.334 0.597 1.334 1.334z"></path>
<path fill="#fff" d="M23.157 24.541h3.334c0.614 0 1.111 0.498 1.111 1.111v0.223c0 0.614-0.498 1.111-1.111 1.111h-3.334c-0.614 0-1.111-0.498-1.111-1.111v-0.223c0-0.614 0.498-1.111 1.111-1.111z"></path>
<path fill="#483896" d="M24.974 8.367c0-0.002 0-0.004 0-0.005 0-0.576-0.467-1.044-1.044-1.044s-1.044 0.467-1.044 1.044c0 0.47 0.311 0.868 0.739 0.998l0.007 0.002v10.93h0.596v-10.93c0.433-0.132 0.744-0.527 0.745-0.995v-0z"></path>
<path fill="#483896" d="M21.916 7.549c0.295-0.845 1.085-1.439 2.014-1.439s1.719 0.595 2.009 1.425l0.005 0.015h0.403c-0.311-1.061-1.275-1.823-2.417-1.823s-2.106 0.762-2.412 1.805l-0.004 0.018z"></path>
<path fill="#483896" d="M20.735 6.883c0.411-1.402 1.686-2.409 3.195-2.409s2.784 1.007 3.189 2.385l0.006 0.024h0.396c-0.421-1.618-1.869-2.793-3.592-2.793s-3.17 1.175-3.586 2.768l-0.006 0.026z"></path>
</svg>
