<!-- Generated by IcoMoon.io -->
<svg version="1.1" xmlns="http://www.w3.org/2000/svg" width="32" height="32" viewBox="0 0 32 32">
<title>card</title>
<path d="M30 8c0-1.1-0.9-2-2-2h-24c-1.1 0-2 0.9-2 2v3h28v-3zM2 24c0 1.1 0.9 2 2 2h24c1.1 0 2-0.9 2-2v-10h-28v10zM10.875 21h10.25c0.481 0 0.875 0.394 0.875 0.875s-0.394 0.875-0.875 0.875h-10.25c-0.481 0-0.875-0.394-0.875-0.875s0.394-0.875 0.875-0.875zM6.375 21h0.75c0.481 0 0.875 0.394 0.875 0.875s-0.394 0.875-0.875 0.875h-0.75c-0.481 0-0.875-0.394-0.875-0.875s0.394-0.875 0.875-0.875z"></path>
</svg>
