<!-- Generated by IcoMoon.io -->
<svg version="1.1" xmlns="http://www.w3.org/2000/svg" width="32" height="32" viewBox="0 0 32 32">
<title>checkmark</title>
<path d="M22.663 12.056l-1.1-1.131c-0.044-0.050-0.113-0.075-0.175-0.075-0.069 0-0.131 0.025-0.175 0.075l-7.625 7.681-2.775-2.775c-0.050-0.050-0.113-0.075-0.175-0.075s-0.125 0.025-0.175 0.075l-1.113 1.112c-0.1 0.1-0.1 0.256 0 0.356l3.5 3.5c0.225 0.225 0.5 0.356 0.731 0.356 0.331 0 0.619-0.244 0.725-0.344h0.006l8.356-8.4c0.087-0.106 0.087-0.262-0.006-0.356z"></path>
</svg>
