<!-- Generated by IcoMoon.io -->
<svg version="1.1" xmlns="http://www.w3.org/2000/svg" width="32" height="32" viewBox="0 0 32 32">
<title>close</title>
<path d="M17.413 16l4.262-4.262c0.387-0.387 0.387-1.025 0-1.412s-1.025-0.387-1.413 0l-4.262 4.263-4.262-4.262c-0.387-0.387-1.025-0.387-1.412 0-0.194 0.194-0.294 0.45-0.294 0.706s0.1 0.512 0.294 0.706l4.263 4.262-4.262 4.262c-0.194 0.194-0.294 0.45-0.294 0.706s0.1 0.512 0.294 0.706c0.387 0.387 1.025 0.387 1.412 0l4.263-4.262 4.262 4.262c0.387 0.387 1.025 0.387 1.413 0s0.387-1.025 0-1.413l-4.262-4.262z"></path>
</svg>
