<!-- Generated by IcoMoon.io -->
<svg version="1.1" xmlns="http://www.w3.org/2000/svg" width="32" height="32" viewBox="0 0 32 32">
<title>close-outline</title>
<path d="M4.688 27.312c-3.014-2.914-4.885-6.992-4.885-11.509 0-8.837 7.163-16 16-16 4.517 0 8.595 1.87 11.504 4.88l0.005 0.005c2.779 2.874 4.491 6.795 4.491 11.115 0 8.837-7.163 16-16 16-4.32 0-8.242-1.712-11.12-4.496l0.005 0.005zM6.944 25.056c2.318 2.318 5.52 3.75 9.056 3.75 7.074 0 12.806-5.734 12.806-12.806 0-3.536-1.434-6.738-3.75-9.056v0c-2.318-2.318-5.52-3.75-9.056-3.75-7.074 0-12.806 5.734-12.806 12.806 0 3.536 1.434 6.738 3.75 9.056v0zM22.784 11.472l-4.528 4.528 4.528 4.528-2.256 2.256-4.528-4.528-4.528 4.528-2.256-2.256 4.528-4.528-4.528-4.528 2.256-2.256 4.528 4.528 4.528-4.528 2.256 2.256z"></path>
</svg>
