<!-- Generated by IcoMoon.io -->
<svg version="1.1" xmlns="http://www.w3.org/2000/svg" width="32" height="32" viewBox="0 0 32 32">
<title>closed-lock</title>
<path d="M23.173 13.312v-6.859c0-3.558-2.7-6.452-6.018-6.452h-2.31c-3.319 0-6.018 2.894-6.018 6.452v6.859c-2.031 1.974-3.301 4.773-3.301 7.873 0 5.964 4.699 10.815 10.474 10.815s10.474-4.852 10.474-10.815c0-3.1-1.27-5.899-3.301-7.873zM10.827 11.78v-5.328c0-2.455 1.803-4.452 4.018-4.452h2.31c2.216 0 4.018 1.997 4.018 4.452v5.328c-0.273-0.16-0.553-0.306-0.838-0.44-0.010-0.005-0.020-0.010-0.030-0.015-0.040-0.019-0.080-0.036-0.12-0.054-0.060-0.027-0.119-0.053-0.18-0.079-0.028-0.012-0.056-0.024-0.085-0.036-0.089-0.037-0.179-0.073-0.269-0.108-0.002-0.001-0.004-0.002-0.006-0.002-0.923-0.355-1.907-0.579-2.931-0.65-0.024-0.002-0.047-0.003-0.071-0.005-0.082-0.005-0.164-0.009-0.247-0.012-0.027-0.001-0.054-0.002-0.081-0.003-0.105-0.003-0.209-0.005-0.315-0.005s-0.21 0.002-0.315 0.005c-0.027 0.001-0.054 0.002-0.081 0.003-0.082 0.003-0.165 0.007-0.247 0.012-0.024 0.002-0.047 0.003-0.071 0.005-1.024 0.072-2.008 0.295-2.931 0.65-0.002 0.001-0.004 0.002-0.006 0.002-0.090 0.035-0.18 0.071-0.269 0.108-0.028 0.012-0.056 0.024-0.085 0.036-0.060 0.026-0.12 0.052-0.18 0.079-0.040 0.018-0.080 0.036-0.12 0.054-0.010 0.005-0.020 0.010-0.030 0.015-0.285 0.134-0.565 0.28-0.838 0.44zM16 30c-4.673 0-8.474-3.954-8.474-8.815 0-3.295 1.748-6.174 4.329-7.686 0.040-0.023 0.080-0.047 0.121-0.070 0.044-0.025 0.089-0.049 0.133-0.073 0.078-0.042 0.157-0.084 0.237-0.123 0.025-0.013 0.051-0.025 0.076-0.037 0.883-0.428 1.834-0.697 2.812-0.789 0.008-0.001 0.017-0.002 0.026-0.002 0.116-0.011 0.232-0.019 0.348-0.024 0.014-0.001 0.027-0.001 0.041-0.002 0.117-0.005 0.234-0.008 0.351-0.008s0.235 0.003 0.352 0.008c0.014 0.001 0.027 0.001 0.041 0.002 0.116 0.006 0.233 0.014 0.348 0.024 0.009 0.001 0.017 0.002 0.026 0.002 0.978 0.092 1.929 0.361 2.812 0.789 0.025 0.012 0.051 0.024 0.076 0.037 0.080 0.040 0.158 0.081 0.237 0.123 0.045 0.024 0.089 0.048 0.134 0.073 0.041 0.023 0.081 0.046 0.121 0.070 2.581 1.512 4.329 4.391 4.329 7.686-0 4.861-3.802 8.815-8.474 8.815z"></path>
<path d="M18.95 19.556c0-1.627-1.323-2.951-2.95-2.951s-2.95 1.324-2.95 2.951c0 0.832 0.345 1.606 0.934 2.156l-0.707 3.173c-0.016 0.072-0.024 0.144-0.024 0.218 0 0.867 0.849 1.52 1.974 1.52h1.547c1.125 0 1.974-0.654 1.974-1.52 0-0.073-0.008-0.146-0.024-0.218l-0.708-3.173c0.589-0.55 0.934-1.324 0.934-2.156zM15.384 24.623l0.616-2.762 0.616 2.762h-1.232zM16.436 20.401c-0.194 0.101-0.344 0.259-0.436 0.445-0.092-0.186-0.242-0.345-0.436-0.445-0.317-0.165-0.514-0.489-0.514-0.845 0-0.524 0.426-0.951 0.95-0.951s0.951 0.427 0.951 0.951c0 0.356-0.197 0.68-0.514 0.845z"></path>
</svg>
