<!-- Generated by IcoMoon.io -->
<svg version="1.1" xmlns="http://www.w3.org/2000/svg" width="32" height="32" viewBox="0 0 32 32">
<title>dth</title>
<path fill="#483896" d="M10.693 30.224v-10.774h-3.045v10.774h-2.459v1.406h7.964v-1.406h-2.459z"></path>
<path fill="#009b99" stroke="#483896" stroke-linejoin="miter" stroke-linecap="butt" stroke-miterlimit="10" stroke-width="0.6663" d="M7.758 0.495c-0.026 0.025-0.052 0.048-0.077 0.074-5.813 5.813-5.813 15.237 0 21.049s15.237 5.813 21.049 0c0.026-0.026 0.049-0.052 0.074-0.078z"></path>
<path fill="#483896" d="M26.183 4.708c0.343-0.343 0.313-0.93-0.066-1.309s-0.967-0.409-1.313-0.066c-0.281 0.281-0.308 0.724-0.101 1.084l-6.511 6.513 0.393 0.393 6.513-6.51c0.36 0.203 0.804 0.176 1.084-0.104z"></path>
<path fill="#483896" d="M23.982 2.692c0.348-0.291 0.8-0.467 1.293-0.467 1.117 0 2.023 0.905 2.023 2.022 0 0.493-0.176 0.945-0.47 1.296l0.003-0.003 0.26 0.261c0.358-0.415 0.576-0.96 0.576-1.556 0-1.319-1.069-2.389-2.389-2.389-0.596 0-1.14 0.218-1.559 0.579l0.003-0.003z"></path>
</svg>
