<!-- Generated by IcoMoon.io -->
<svg version="1.1" xmlns="http://www.w3.org/2000/svg" width="32" height="32" viewBox="0 0 32 32">
<title>dth</title>
<path fill="#483896" d="M7.889 30.344v-10.775h-3.045v10.775h-2.459v1.405h7.964v-1.405h-2.459z"></path>
<path fill="#009b99" stroke="#483896" stroke-linejoin="miter" stroke-linecap="butt" stroke-miterlimit="10" stroke-width="0.6663" d="M4.954 0.614l-0.079 0.073c-5.813 5.813-5.813 15.238 0 21.050s15.237 5.813 21.049 0c0.026-0.026 0.049-0.052 0.074-0.078z"></path>
<path fill="#483896" d="M23.379 4.827c0.343-0.343 0.313-0.93-0.066-1.309s-0.967-0.409-1.313-0.066c-0.281 0.281-0.308 0.724-0.101 1.084l-6.511 6.512 0.393 0.393 6.513-6.513c0.36 0.206 0.803 0.179 1.084-0.102z"></path>
<path fill="#483896" d="M21.178 2.813c0.348-0.29 0.8-0.467 1.293-0.467 1.117 0 2.023 0.905 2.023 2.022 0 0.493-0.176 0.945-0.47 1.296l0.003-0.003 0.26 0.261c0.359-0.416 0.578-0.961 0.578-1.558 0-1.319-1.069-2.389-2.389-2.389-0.597 0-1.142 0.219-1.561 0.581l0.003-0.003z"></path>
</svg>
