<!-- Generated by IcoMoon.io -->
<svg version="1.1" xmlns="http://www.w3.org/2000/svg" width="32" height="32" viewBox="0 0 32 32">
<title>edit-3</title>
<path d="M16 28h12c0.736 0 1.333-0.597 1.333-1.333s-0.597-1.333-1.333-1.333h-12c-0.736 0-1.333 0.597-1.333 1.333s0.597 1.333 1.333 1.333zM21.057 3.724l-16.667 16.667c-0.163 0.161-0.289 0.373-0.351 0.62l-1.333 5.333c-0.052 0.2-0.056 0.424 0 0.647 0.179 0.715 0.903 1.149 1.617 0.971l5.333-1.333c0.223-0.055 0.44-0.172 0.62-0.351l16.667-16.667c0.812-0.812 1.219-1.88 1.219-2.943s-0.407-2.131-1.219-2.943-1.881-1.22-2.944-1.22-2.131 0.407-2.943 1.219zM22.943 5.609c0.292-0.292 0.672-0.437 1.057-0.437s0.765 0.145 1.057 0.437 0.437 0.672 0.437 1.057-0.145 0.765-0.437 1.057l-16.405 16.405-2.82 0.705 0.705-2.82z"></path>
</svg>
