<!-- Generated by IcoMoon.io -->
<svg version="1.1" xmlns="http://www.w3.org/2000/svg" width="32" height="32" viewBox="0 0 32 32">
<title>edit</title>
<path d="M14.667 4h-9.333c-1.104 0-2.107 0.449-2.828 1.172s-1.172 1.724-1.172 2.828v18.667c0 1.104 0.449 2.107 1.172 2.828s1.724 1.172 2.828 1.172h18.667c1.104 0 2.107-0.449 2.828-1.172s1.172-1.724 1.172-2.828v-9.333c0-0.736-0.597-1.333-1.333-1.333s-1.333 0.597-1.333 1.333v9.333c0 0.368-0.148 0.7-0.391 0.943s-0.575 0.391-0.943 0.391h-18.667c-0.368 0-0.7-0.148-0.943-0.391s-0.391-0.575-0.391-0.943v-18.667c0-0.368 0.148-0.7 0.391-0.943s0.575-0.391 0.943-0.391h9.333c0.736 0 1.333-0.597 1.333-1.333s-0.597-1.333-1.333-1.333zM23.724 2.391l-12.667 12.667c-0.163 0.161-0.289 0.373-0.351 0.62l-1.333 5.333c-0.052 0.2-0.056 0.424 0 0.647 0.179 0.715 0.903 1.149 1.617 0.971l5.333-1.333c0.223-0.055 0.44-0.172 0.62-0.351l12.667-12.667c0.812-0.812 1.219-1.88 1.219-2.943s-0.407-2.131-1.219-2.943-1.881-1.22-2.944-1.22-2.131 0.407-2.943 1.219zM25.609 4.276c0.292-0.292 0.672-0.437 1.057-0.437s0.765 0.145 1.057 0.437 0.437 0.672 0.437 1.057-0.145 0.765-0.437 1.057l-12.405 12.405-2.819 0.705 0.705-2.819z"></path>
</svg>
