<!-- Generated by IcoMoon.io -->
<svg version="1.1" xmlns="http://www.w3.org/2000/svg" width="32" height="32" viewBox="0 0 32 32">
<title>electricity</title>
<path fill="#00bcb4" stroke-linejoin="miter" stroke-linecap="butt" stroke-miterlimit="10" stroke-width="0.785" stroke="#000" d="M24.829 13.266c0 1.217-0.301 2.384-0.75 3.521-0.4 1.026-1.266 1.819-1.927 2.703-0.684 0.913-1.168 1.938-1.579 2.972-0.432 1.087-0.84 2.171-1.107 3.305-0.177 0.756-0.282 1.481-0.282 2.144h-6.585c-0.007-0.653-0.078-1.285-0.207-1.896l0.011 0.063c-0.367-1.866-1.043-3.799-1.98-5.491-0.263-0.474-0.532-0.878-0.829-1.261l0.016 0.022c-0.671-0.866-1.431-1.616-1.827-2.631-0.438-1.125-0.744-2.241-0.744-3.449 0.001-4.772 3.982-8.641 8.896-8.641s8.896 3.869 8.896 8.641z"></path>
<path fill="#2f2e41" stroke-linejoin="miter" stroke-linecap="butt" stroke-miterlimit="10" stroke-width="0.7625" stroke="#000" d="M18.237 28.135v3.166c0 0.047-0.038 0.085-0.085 0.085v0h-4.417c0 0 0 0 0 0-0.047 0-0.084-0.038-0.084-0.084 0-0 0-0 0-0.001v0-3.25h4.5c0 0 0.001 0 0.001 0 0.047 0 0.084 0.037 0.085 0.084v0z"></path>
<path fill="#000" stroke-linejoin="miter" stroke-linecap="round" stroke-miterlimit="10" stroke-width="0.5231" stroke="#000" d="M13.527 30.294h-0.785"></path>
<path fill="#000" stroke-linejoin="miter" stroke-linecap="round" stroke-miterlimit="10" stroke-width="0.5231" stroke="#000" d="M19.124 30.189h-0.785"></path>
<path fill="none" stroke-linejoin="miter" stroke-linecap="round" stroke-miterlimit="10" stroke-width="0.5231" stroke="#000" d="M15.969 27.909v-8.634"></path>
<path fill="none" stroke-linejoin="miter" stroke-linecap="round" stroke-miterlimit="10" stroke-width="0.5231" stroke="#000" d="M13.699 17.183l2.27 2.093 2.27-2.093"></path>
<path fill="none" stroke-linejoin="miter" stroke-linecap="round" stroke-miterlimit="10" stroke-width="0.5231" stroke="#000" d="M2.983 10.318l-1.42-0.669"></path>
<path fill="none" stroke-linejoin="miter" stroke-linecap="round" stroke-miterlimit="10" stroke-width="0.5231" stroke="#000" d="M7.89 4.527l-0.893-1.291"></path>
<path fill="none" stroke-linejoin="miter" stroke-linecap="round" stroke-miterlimit="10" stroke-width="0.5231" stroke="#000" d="M28.961 10.092l1.414-0.682"></path>
<path fill="none" stroke-linejoin="miter" stroke-linecap="round" stroke-miterlimit="10" stroke-width="0.5231" stroke="#000" d="M24.454 4.734l0.914-1.277"></path>
<path fill="none" stroke-linejoin="miter" stroke-linecap="round" stroke-miterlimit="10" stroke-width="0.5231" stroke="#000" d="M15.964 2.007v-1.57"></path>
</svg>
