<!-- Generated by IcoMoon.io -->
<svg version="1.1" xmlns="http://www.w3.org/2000/svg" width="32" height="32" viewBox="0 0 32 32">
<title>globe</title>
<path d="M16 3h-0.044c-3.463 0.013-6.713 1.369-9.162 3.819-2.444 2.456-3.794 5.713-3.794 9.181s1.35 6.725 3.8 9.181c2.444 2.45 5.7 3.806 9.162 3.819h0.044c7.169 0 13-5.831 13-13s-5.837-13-13.006-13zM27.262 15.125h-4.85c-0.056-1.669-0.262-3.262-0.613-4.762 1.069-0.344 2.106-0.781 3.106-1.313 1.375 1.762 2.188 3.85 2.356 6.075zM15.125 15.125h-3.863c0.050-1.531 0.238-2.981 0.55-4.319 1.088 0.244 2.194 0.394 3.313 0.444v3.875zM15.125 16.875v3.869c-1.113 0.050-2.225 0.2-3.313 0.444-0.313-1.337-0.5-2.788-0.55-4.313h3.863zM16.875 16.875h3.831c-0.050 1.525-0.238 2.975-0.55 4.306-1.075-0.244-2.175-0.387-3.281-0.438v-3.869zM16.875 15.125v-3.875c1.113-0.050 2.212-0.2 3.281-0.438 0.313 1.338 0.5 2.781 0.55 4.313h-3.831zM23.712 7.756c-0.769 0.381-1.563 0.706-2.375 0.969-0.444-1.338-1.006-2.494-1.656-3.406 1.5 0.519 2.869 1.35 4.031 2.438zM19.688 9.175c-0.919 0.2-1.863 0.325-2.813 0.375v-4.588c1.063 0.575 2.1 2.119 2.813 4.213zM15.125 4.938v4.606c-0.963-0.050-1.912-0.175-2.844-0.381 0.725-2.112 1.775-3.656 2.844-4.225zM12.275 5.338c-0.644 0.906-1.2 2.056-1.644 3.381-0.8-0.262-1.588-0.588-2.344-0.963 1.15-1.081 2.506-1.906 3.987-2.419zM7.094 9.056c0.988 0.525 2.019 0.963 3.075 1.3-0.356 1.494-0.563 3.094-0.613 4.763h-4.813c0.162-2.213 0.975-4.3 2.35-6.063zM4.737 16.875h4.813c0.056 1.669 0.262 3.269 0.613 4.762-1.056 0.344-2.088 0.781-3.075 1.3-1.369-1.756-2.181-3.844-2.35-6.063zM8.281 24.244c0.756-0.375 1.544-0.7 2.35-0.962 0.444 1.331 1 2.475 1.644 3.387-1.481-0.525-2.838-1.344-3.994-2.425zM12.281 22.831c0.931-0.206 1.887-0.331 2.844-0.381v4.613c-1.075-0.569-2.119-2.119-2.844-4.231zM16.875 27.038v-4.594c0.95 0.050 1.894 0.175 2.813 0.375-0.712 2.1-1.75 3.644-2.813 4.219zM19.688 26.681c0.65-0.913 1.212-2.069 1.656-3.406 0.813 0.262 1.613 0.594 2.375 0.975-1.163 1.081-2.538 1.913-4.031 2.431zM24.906 22.944c-1-0.531-2.038-0.969-3.106-1.313 0.35-1.494 0.556-3.087 0.613-4.756h4.85c-0.169 2.219-0.975 4.306-2.356 6.069z"></path>
</svg>
