<!-- Generated by IcoMoon.io -->
<svg version="1.1" xmlns="http://www.w3.org/2000/svg" width="32" height="32" viewBox="0 0 32 32">
<title>icon-user</title>
<path fill="none" stroke="#483896" stroke-linejoin="miter" stroke-linecap="butt" stroke-miterlimit="10" stroke-width="1.7585" d="M16 7.648c3.156 0 5.714 2.558 5.714 5.714s-2.558 5.714-5.714 5.714c-3.156 0-5.714-2.558-5.714-5.714s2.558-5.714 5.714-5.714z"></path>
<path fill="#483896" d="M13.802 24.354v-2.274c0.001-1.075 0.871-1.946 1.945-1.949h0.499c1.076 0.001 1.948 0.873 1.949 1.949v2.274h1.758v-2.274c-0.002-2.046-1.661-3.705-3.707-3.707h-0.499c-2.046 0.002-3.705 1.661-3.707 3.707v2.274z"></path>
<path fill="none" stroke="#483896" stroke-linejoin="miter" stroke-linecap="butt" stroke-miterlimit="10" stroke-width="1.7585" d="M31.121 16c0 8.351-6.77 15.121-15.121 15.121s-15.121-6.77-15.121-15.121c0-8.351 6.77-15.121 15.121-15.121s15.121 6.77 15.121 15.121z"></path>
</svg>
