<!-- Generated by IcoMoon.io -->
<svg version="1.1" xmlns="http://www.w3.org/2000/svg" width="32" height="32" viewBox="0 0 32 32">
<title>ios-wallet</title>
<path d="M25.25 10h-18.5c-2.069 0-3.75 1.681-3.75 3.75v10.5c0 2.069 1.681 3.75 3.75 3.75h18.5c2.069 0 3.75-1.681 3.75-3.75v-10.5c0-2.069-1.681-3.75-3.75-3.75zM21.431 4.063l-14.681 2.869c-1.125 0.25-2.75 1.381-2.75 2.756 0 0 0.938-1.188 3.063-1.188h17.938v-1.281c0-0.787-0.313-1.794-0.869-2.35-0.706-0.706-1.719-1.013-2.7-0.806z"></path>
</svg>
