<!-- Generated by IcoMoon.io -->
<svg version="1.1" xmlns="http://www.w3.org/2000/svg" width="32" height="32" viewBox="0 0 32 32">
<title>logo-facebook</title>
<path d="M26.675 4h-21.35c-0.731 0-1.325 0.594-1.325 1.325v21.35c0 0.731 0.594 1.325 1.325 1.325h10.675v-9.5h-2.869v-3.5h2.869v-2.588c0-3.1 2.15-4.787 4.919-4.787 1.325 0 2.75 0.1 3.081 0.144v3.237h-2.206c-1.506 0-1.794 0.713-1.794 1.762v2.231h3.587l-0.469 3.5h-3.119v9.5h6.675c0.731 0 1.325-0.594 1.325-1.325v-21.35c0-0.731-0.594-1.325-1.325-1.325z"></path>
</svg>
