<!-- Generated by IcoMoon.io -->
<svg version="1.1" xmlns="http://www.w3.org/2000/svg" width="32" height="32" viewBox="0 0 32 32">
<title>md-planet</title>
<path d="M8.481 9.438c-0.156 0.188-0.306 0.375-0.45 0.575 2.012 2.269 4.756 4.781 7.762 7.106 2.363 1.825 4.769 3.45 6.963 4.694 0.369 0.206 0.731 0.406 1.081 0.587 0.156-0.188 0.306-0.375 0.45-0.575 0.731-1.006 1.131-2.075 1.456-3.35 0.050-0.2 0.094-0.4 0.131-0.594 0.988-5.188-2.225-10.306-7.406-11.619-2.313-0.588-4.631-0.319-6.644 0.606-1.338 0.619-2.387 1.431-3.344 2.569z"></path>
<path d="M26.137 20.425c-0.256 0.688-0.462 1.094-0.462 1.094 1.137 1.319 1.538 2.119 1.994 2.9 0.15 0.256 0.462 0.819 0.056 0.775-0.106-0.019-0.219-0.044-0.344-0.081-1.331-0.337-3.2-1.169-5.269-2.337-2.238-1.269-4.681-2.919-7.081-4.769-3.194-2.469-6.094-5.144-8.162-7.531-0.956-1.1-1.725-2.137-2.231-2.994-0.15-0.256-0.244-0.394-0.35-0.65-0.156-0.388 0.313-0.319 0.438-0.287 0.931 0.237 2.188 0.619 3.638 1.488 0 0 0.269-0.3 0.869-0.713-1.425-0.963-2.787-1.731-4.075-2.219-1.444-0.55-2.569-0.425-2.969 0.231-0.762 1.244 0.875 4.519 4.081 8.25-1.344 5.375 1.912 10.831 7.281 12.188 2.569 0.65 5.15 0.244 7.3-0.938 2.381 1.1 4.506 1.788 6.056 2.181 1.494 0.381 2.525 0.344 2.925-0.306 0.694-1.137-0.756-3.238-3.694-6.281z"></path>
</svg>
