<!-- Generated by IcoMoon.io -->
<svg version="1.1" xmlns="http://www.w3.org/2000/svg" width="32" height="32" viewBox="0 0 32 32">
<title>mobile_recharge</title>
<path fill="#38e3fe" stroke="#8423d9" stroke-linejoin="miter" stroke-linecap="butt" stroke-miterlimit="10" stroke-width="0.6787" d="M9.611 0.608h12.903c1.125 0 2.037 0.912 2.037 2.037v26.709c0 1.125-0.912 2.037-2.037 2.037h-12.902c-1.125 0-2.037-0.912-2.037-2.037v-26.709c0-1.125 0.912-2.037 2.037-2.037z"></path>
<path fill="#8423d9" d="M18.471 2.486h-4.817c-0.499-0.001-0.904-0.406-0.904-0.906 0 0 0 0 0 0v0-0.99h6.625v0.99c0 0 0 0 0 0 0 0.499-0.404 0.905-0.904 0.906h-0z"></path>
<path fill="#fff" d="M16.468 1.538c0 0.224-0.181 0.406-0.405 0.406s-0.405-0.182-0.405-0.406c0-0.224 0.181-0.406 0.405-0.406s0.405 0.182 0.405 0.406z"></path>
<path fill="#fff" d="M17.933 1.571c-0 0.16-0.13 0.289-0.289 0.289s-0.289-0.13-0.289-0.289 0.13-0.289 0.289-0.289v0c0 0 0 0 0 0 0.16 0 0.289 0.13 0.289 0.289 0 0 0 0 0 0.001v-0z"></path>
<path fill="#8423d9" d="M16.063 10.681c2.938 0 5.319 2.382 5.319 5.319s-2.382 5.319-5.319 5.319c-2.938 0-5.319-2.382-5.319-5.319v0c0.004-2.936 2.383-5.316 5.319-5.319h0zM16.063 10.228c-3.188 0-5.772 2.584-5.772 5.772s2.584 5.772 5.772 5.772c3.188 0 5.772-2.584 5.772-5.772v0c0-3.188-2.584-5.772-5.772-5.772v0z"></path>
<path fill="#fff" d="M18.529 14.967l-2.736 4.331c-0.034 0.068-0.102 0.114-0.182 0.114-0 0-0 0-0.001 0h0c-0.003 0-0.007 0.001-0.010 0.001-0.023 0-0.043-0.009-0.058-0.023l0 0c-0.083-0.036-0.14-0.117-0.14-0.212 0-0.014 0.001-0.027 0.003-0.040l-0 0.001 0.387-2.918h-2.006c-0 0-0.001 0-0.001 0-0.086 0-0.161-0.045-0.204-0.113l-0.001-0.001c-0.015-0.028-0.023-0.061-0.023-0.096 0-0.050 0.018-0.096 0.047-0.132l-0 0 2.279-3.192c0.041-0.061 0.11-0.1 0.188-0.1 0.022 0 0.043 0.003 0.064 0.009l-0.002-0c0.091 0.026 0.157 0.107 0.16 0.205v1.824h2.051c0 0 0.001 0 0.001 0 0.086 0 0.161 0.045 0.204 0.113l0.001 0.001c0.010 0.027 0.015 0.057 0.015 0.089 0 0.051-0.014 0.099-0.039 0.14l0.001-0.001z"></path>
<path fill="#8423d9" d="M17.001 28.781c0 0.518-0.42 0.939-0.939 0.939s-0.939-0.42-0.939-0.939c0-0.518 0.42-0.939 0.939-0.939s0.939 0.42 0.939 0.939z"></path>
</svg>
