<!-- Generated by IcoMoon.io -->
<svg version="1.1" xmlns="http://www.w3.org/2000/svg" width="32" height="32" viewBox="0 0 32 32">
<title>news-paper</title>
<path d="M25.6 3.2h6.4v24c0 2.651-2.149 4.8-4.8 4.8v0h-22.4c-2.651 0-4.8-2.149-4.8-4.8v0-27.2h25.6v3.2zM25.6 6.4v20.8c0 0.883 0.717 1.6 1.6 1.6v0c0.883 0 1.6-0.717 1.6-1.6v0-20.8h-3.2zM3.2 3.2v24c0 0.883 0.717 1.6 1.6 1.6v0h17.872c-0.173-0.472-0.272-1.019-0.272-1.587 0-0.005 0-0.010 0-0.013v0-24h-19.2zM6.4 16h12.8v3.2h-12.8v-3.2zM6.4 22.4h12.8v3.2h-12.8v-3.2zM6.4 6.4h12.8v6.4h-12.8v-6.4z"></path>
</svg>
