<!-- Generated by IcoMoon.io -->
<svg version="1.1" xmlns="http://www.w3.org/2000/svg" width="32" height="32" viewBox="0 0 32 32">
<title>offer</title>
<path fill="#00bcb4" stroke="#2f2e41" stroke-linejoin="miter" stroke-linecap="butt" stroke-miterlimit="10" stroke-width="0.6206" d="M20.439 2.593l7.081 5.145 2.705 8.324-2.705 8.324-7.081 5.144h-8.752l-7.081-5.144-2.705-8.324 2.705-8.324 7.081-5.145h8.752z"></path>
<path fill="#fff" d="M10.744 12.584c0-2.026 1.13-3.176 2.708-3.176s2.708 1.149 2.708 3.176-1.13 3.234-2.708 3.234-2.708-1.207-2.708-3.234zM10.763 20.571l3.563-3.663 0.643 0.584-3.25 3.955zM14.951 12.584c0-1.559-0.662-2.201-1.5-2.201s-1.5 0.643-1.5 2.201c0 1.519 0.662 2.26 1.5 2.26s1.501-0.741 1.501-2.26zM15.964 19.071c0-2.026 1.13-3.176 2.708-3.176s2.708 1.149 2.708 3.176-1.13 3.234-2.707 3.234-2.708-1.207-2.708-3.234zM17.151 13.869l3.253-3.955 0.955 0.875-3.566 3.662zM20.171 19.071c0-1.559-0.663-2.201-1.5-2.201s-1.5 0.642-1.5 2.201c0 1.519 0.663 2.26 1.5 2.26s1.503-0.741 1.503-2.26z"></path>
</svg>
