<!-- Generated by IcoMoon.io -->
<svg version="1.1" xmlns="http://www.w3.org/2000/svg" width="32" height="32" viewBox="0 0 32 32">
<title>offer</title>
<path fill="#009b99" stroke="#483896" stroke-linejoin="miter" stroke-linecap="butt" stroke-miterlimit="10" stroke-width="0.6781" d="M20.745 1.171l7.737 5.621 2.956 9.096-2.956 9.096-7.737 5.621h-9.564l-7.737-5.621-2.955-9.096 2.955-9.096 7.737-5.621h9.564z"></path>
<path fill="#fff" d="M10.151 12.087c0-2.214 1.235-3.47 2.959-3.47s2.959 1.256 2.959 3.47-1.235 3.534-2.959 3.534-2.959-1.32-2.959-3.534zM10.172 20.813l3.896-4 0.703 0.639-3.555 4.321zM14.75 12.087c0-1.703-0.724-2.406-1.639-2.406s-1.639 0.703-1.639 2.406c0 1.66 0.724 2.469 1.639 2.469s1.639-0.806 1.639-2.469zM15.856 19.176c0-2.214 1.235-3.47 2.959-3.47s2.959 1.256 2.959 3.47-1.235 3.534-2.962 3.534-2.956-1.32-2.956-3.534zM17.155 13.492l3.555-4.321 1.043 0.957-3.896 4zM20.454 19.176c0-1.703-0.724-2.406-1.639-2.406s-1.639 0.703-1.639 2.406c0 1.66 0.724 2.469 1.639 2.469s1.639-0.809 1.639-2.469z"></path>
</svg>
