<!-- Generated by IcoMoon.io -->
<svg version="1.1" xmlns="http://www.w3.org/2000/svg" width="32" height="32" viewBox="0 0 32 32">
<title>output_fastag</title>
<path fill="#00bcb4" stroke="#2f2e41" stroke-linejoin="miter" stroke-linecap="butt" stroke-miterlimit="10" stroke-width="0.7037" d="M3.628 29.013h-2.816v2.346h18.066v-2.346h-2.581"></path>
<path fill="#00bcb4" stroke="#2f2e41" stroke-linejoin="miter" stroke-linecap="butt" stroke-miterlimit="10" stroke-width="0.7037" d="M3.589 5.552h12.708v23.461h-12.708v-23.461z"></path>
<path fill="#00bcb4" stroke="#2f2e41" stroke-linejoin="miter" stroke-linecap="round" stroke-miterlimit="10" stroke-width="0.7169" d="M3.393 5.552l6.569-4.927 6.569 4.927"></path>
<path fill="none" stroke="#2f2e41" stroke-linejoin="miter" stroke-linecap="butt" stroke-miterlimit="10" stroke-width="0.4694" d="M16.297 19.081l13.608-9.072 1.407 1.877-15.016 9.893v-2.698z"></path>
<path fill="#2f2e41" d="M18.607 17.541l-0.584 3.101 1.2-0.791 0.698-3.186-1.313 0.875z"></path>
<path fill="#2f2e41" d="M21.892 15.43l-0.585 3.101 1.2-0.791 0.698-3.186-1.313 0.876z"></path>
<path fill="#2f2e41" d="M25.176 13.318l-0.584 3.101 1.2-0.79 0.698-3.186-1.313 0.875z"></path>
<path fill="#2f2e41" d="M28.461 10.972l-0.585 3.102 1.2-0.791 0.698-3.186-1.313 0.875z"></path>
<path fill="#fff" d="M7.213 8.836h5.5c0.166 0 0.3 0.134 0.3 0.3v5.5c0 0.166-0.134 0.3-0.3 0.3h-5.5c-0.166 0-0.3-0.134-0.3-0.3v-5.5c0-0.166 0.134-0.3 0.3-0.3z"></path>
</svg>
