<!-- Generated by IcoMoon.io -->
<svg version="1.1" xmlns="http://www.w3.org/2000/svg" width="32" height="32" viewBox="0 0 32 32">
<title>page-icon</title>
<path fill="none" stroke="#483896" stroke-linejoin="miter" stroke-linecap="butt" stroke-miterlimit="10" stroke-width="0.9507" d="M31.525 16c0 8.574-6.951 15.525-15.525 15.525s-15.525-6.951-15.525-15.525c0-8.574 6.951-15.525 15.525-15.525s15.525 6.951 15.525 15.525z"></path>
<path fill="none" stroke="#483896" stroke-linejoin="miter" stroke-linecap="butt" stroke-miterlimit="10" stroke-width="0.9507" d="M16 6.825h-0.001c3.315 0 6.003 2.688 6.003 6.003v-0.001c0 3.315-2.688 6.003-6.003 6.003h0.001c-3.315 0-6.003-2.688-6.003-6.003v0.001c0-3.315 2.688-6.003 6.003-6.003z"></path>
<path fill="#483896" d="M12.494 25.175v-2.56c0.002-1.823 1.48-3.3 3.302-3.302h0.408c1.823 0.002 3.3 1.479 3.303 3.302v2.56h0.951v-2.56c-0.005-2.347-1.907-4.248-4.254-4.251h-0.408c-2.348 0.003-4.251 1.905-4.254 4.253v2.56z"></path>
</svg>
