<!-- Generated by IcoMoon.io -->
<svg version="1.1" xmlns="http://www.w3.org/2000/svg" width="32" height="32" viewBox="0 0 32 32">
<title>postpaid_bill</title>
<path fill="#009b99" stroke="#483896" stroke-linejoin="miter" stroke-linecap="butt" stroke-miterlimit="10" stroke-width="0.6787" d="M7.486 0.636h12.902c1.125 0 2.037 0.912 2.037 2.037v26.709c0 1.125-0.912 2.037-2.037 2.037h-12.902c-1.125 0-2.037-0.912-2.037-2.037v-26.709c0-1.125 0.912-2.037 2.037-2.037z"></path>
<path fill="#009b99" stroke="#483896" stroke-linejoin="miter" stroke-linecap="butt" stroke-miterlimit="10" stroke-width="0.6787" d="M25.221 6.537l-1.561-0.898-1.561 0.898-1.561-0.898-1.561 0.898-1.589-0.914h-0.070l-1.589 0.914-1.588-0.914h-0.061v19.013h0.061l1.588-0.914 1.589 0.914h0.070l1.589-0.914 1.561 0.898 1.561-0.898 1.561 0.898 1.561-0.898 1.473 0.848v-18.881l-1.473 0.848z"></path>
<path fill="#fff" d="M23.895 11.172h-7.016v0.641h3.801c0.217 0.365 0.346 0.804 0.346 1.274 0 0.001 0 0.001 0 0.002v-0c-0.001 0.113-0.009 0.224-0.024 0.332l0.002-0.013h-3.486v0.638h3.321c-0.389 0.942-1.3 1.593-2.364 1.594h-0v0.005l-0.446 0.446 3.375 3.375h0.902l-3.241-3.247c1.165-0.227 2.092-1.062 2.447-2.154l0.006-0.023h1.745v-0.638h-1.615c0.011-0.098 0.017-0.213 0.017-0.328 0-0.458-0.098-0.894-0.275-1.286l0.008 0.020h2.5z"></path>
<path fill="#483896" d="M11.528 2.344c-0.406-0-0.735-0.329-0.736-0.736v-0.821h6.289v0.821c-0 0.406-0.329 0.735-0.736 0.736h-0z"></path>
<path fill="#483896" d="M16.912 0.958v0.651c-0 0.311-0.252 0.564-0.562 0.566h-4.821c-0.311-0-0.564-0.252-0.566-0.562v-0.654h5.95zM17.25 0.618h-6.625v0.99c0 0.5 0.405 0.906 0.906 0.906v0h4.818c0.498-0.002 0.901-0.406 0.901-0.905 0-0 0-0 0-0.001v0-0.99z"></path>
<path fill="#fff" d="M14.342 1.566c0 0.224-0.182 0.406-0.406 0.406s-0.406-0.182-0.406-0.406c0-0.224 0.182-0.406 0.406-0.406 0 0 0 0 0.001 0h-0c0.224 0.001 0.405 0.182 0.405 0.406v0z"></path>
<path fill="#fff" d="M15.807 1.599c0 0.001 0 0.002 0 0.002 0 0.16-0.13 0.289-0.289 0.289s-0.289-0.13-0.289-0.289c0-0.16 0.13-0.289 0.289-0.289v0c0 0 0 0 0 0 0.159 0 0.288 0.128 0.289 0.287v0z"></path>
<path fill="#483896" d="M14.876 28.809c0 0.518-0.42 0.939-0.939 0.939s-0.939-0.42-0.939-0.939c0-0.518 0.42-0.939 0.939-0.939s0.939 0.42 0.939 0.939z"></path>
</svg>
