<!-- Generated by IcoMoon.io -->
<svg version="1.1" xmlns="http://www.w3.org/2000/svg" width="27" height="32" viewBox="0 0 27 32">
<title>question-circle-o</title>
<path d="M15.714 21.429v2.857c0 0.321-0.25 0.571-0.571 0.571h-2.857c-0.321 0-0.571-0.25-0.571-0.571v-2.857c0-0.321 0.25-0.571 0.571-0.571h2.857c0.321 0 0.571 0.25 0.571 0.571zM20.286 12.571c0 2.536-1.768 3.536-3.072 4.267-0.928 0.536-1.501 0.875-1.501 1.447v0.571c0 0.321-0.25 0.571-0.571 0.571h-2.857c-0.321 0-0.571-0.25-0.571-0.571v-1.214c0-2.197 1.571-2.893 2.839-3.464 1.072-0.501 1.733-0.839 1.733-1.642 0-1.035-1.304-1.803-2.482-1.803-0.625 0-1.286 0.197-1.696 0.482-0.393 0.267-0.768 0.661-1.429 1.482-0.107 0.143-0.267 0.214-0.447 0.214-0.125 0-0.25-0.035-0.339-0.107l-1.928-1.464c-0.232-0.178-0.286-0.518-0.125-0.768 1.464-2.304 3.518-3.429 6.232-3.429v0c2.928 0 6.214 2.321 6.214 5.429zM13.714 4.571c-6.304 0-11.429 5.125-11.429 11.429s5.125 11.429 11.429 11.429 11.429-5.125 11.429-11.429-5.125-11.429-11.429-11.429zM27.429 16c0 7.571-6.143 13.714-13.714 13.714s-13.714-6.143-13.714-13.714 6.143-13.714 13.714-13.714v0c7.571 0 13.714 6.143 13.714 13.714z"></path>
</svg>
