<!-- Generated by IcoMoon.io -->
<svg version="1.1" xmlns="http://www.w3.org/2000/svg" width="32" height="32" viewBox="0 0 32 32">
<title>svg_logo-google</title>
<path d="M28.6 14l-0.131-0.556h-12.094v5.119h7.225c-0.75 3.563-4.231 5.438-7.075 5.438-2.069 0-4.25-0.869-5.694-2.269-1.481-1.438-2.425-3.556-2.425-5.738 0-2.156 0.969-4.313 2.381-5.731 1.406-1.412 3.537-2.213 5.656-2.213 2.425 0 4.163 1.287 4.813 1.875l3.637-3.619c-1.069-0.938-4-3.3-8.569-3.3-3.525 0-6.906 1.35-9.375 3.813-2.438 2.425-3.7 5.931-3.7 9.181s1.194 6.587 3.556 9.031c2.525 2.606 6.1 3.969 9.781 3.969 3.35 0 6.525-1.313 8.787-3.694 2.225-2.344 3.375-5.587 3.375-8.988 0-1.431-0.144-2.281-0.15-2.319z"></path>
</svg>
