<!-- Generated by IcoMoon.io -->
<svg version="1.1" xmlns="http://www.w3.org/2000/svg" width="32" height="32" viewBox="0 0 32 32">
<title>telephone</title>
<path fill="#009b99" d="M1.323 6.667h27.292c0.44 0 0.797 0.357 0.797 0.797v23.244c0 0.44-0.357 0.797-0.797 0.797h-27.292c-0.44 0-0.797-0.357-0.797-0.797v-23.244c0-0.44 0.357-0.797 0.797-0.797z"></path>
<path fill="#483896" d="M28.614 6.943c0.288 0 0.521 0.233 0.521 0.521v23.244c-0.001 0.287-0.234 0.52-0.521 0.521h-27.291c-0.288-0-0.521-0.233-0.521-0.521v-23.244c0.001-0.287 0.234-0.52 0.521-0.521h27.291zM28.614 6.391h-27.291c-0 0-0 0-0.001 0-0.592 0-1.073 0.48-1.073 1.072v0 23.244c0 0.592 0.48 1.073 1.073 1.073 0 0 0 0 0.001 0h27.291c0 0 0 0 0.001 0 0.592 0 1.073-0.48 1.073-1.073v0-23.244c0-0.592-0.48-1.072-1.073-1.072-0 0-0 0-0.001 0h0z"></path>
<path fill="#fff" d="M14.804 9.242h11.001c0.671 0 1.215 0.544 1.215 1.215v2.906c0 0.671-0.544 1.215-1.215 1.215h-11.001c-0.671 0-1.215-0.544-1.215-1.215v-2.906c0-0.671 0.544-1.215 1.215-1.215z"></path>
<path fill="#483896" d="M25.805 9.335c0.621 0 1.125 0.504 1.125 1.125v0 2.906c0 0.621-0.504 1.125-1.125 1.125v0h-11c-0.621 0-1.125-0.504-1.125-1.125v0-2.906c0-0.621 0.504-1.125 1.125-1.125v0h11zM25.805 9.148h-11c-0.721 0.001-1.305 0.586-1.305 1.307 0 0.001 0 0.002 0 0.003v-0 2.906c0 0.722 0.585 1.307 1.307 1.307v0h11c0.722 0 1.307-0.585 1.307-1.307v0-2.906c0-0.722-0.585-1.307-1.307-1.307v0z"></path>
<path fill="none" stroke="#483896" stroke-linejoin="miter" stroke-linecap="round" stroke-miterlimit="10" stroke-width="0.7362" d="M24.444 6.483v-5.796"></path>
<path fill="#483896" d="M6.874 9.901c2.134 0 3.864 1.73 3.864 3.864v11.239c0 2.134-1.73 3.864-3.864 3.864s-3.864-1.73-3.864-3.864v-11.239c0-2.134 1.73-3.864 3.864-3.864z"></path>
<path fill="#483896" d="M23.464 21.656h2.071c0.104 0 0.189 0.084 0.189 0.189v2.071c0 0.104-0.084 0.189-0.189 0.189h-2.071c-0.104 0-0.189-0.084-0.189-0.189v-2.071c0-0.104 0.084-0.189 0.189-0.189z"></path>
<path fill="#483896" d="M19.384 21.656h2.071c0.104 0 0.189 0.084 0.189 0.189v2.071c0 0.104-0.084 0.189-0.189 0.189h-2.071c-0.104 0-0.189-0.084-0.189-0.189v-2.071c0-0.104 0.084-0.189 0.189-0.189z"></path>
<path fill="#483896" d="M15.303 21.656h2.071c0.104 0 0.189 0.084 0.189 0.189v2.071c0 0.104-0.084 0.189-0.189 0.189h-2.071c-0.104 0-0.189-0.084-0.189-0.189v-2.071c0-0.104 0.085-0.189 0.189-0.189z"></path>
<path fill="#483896" d="M23.464 17.576h2.071c0.104 0 0.189 0.084 0.189 0.189v2.071c0 0.104-0.084 0.189-0.189 0.189h-2.071c-0.104 0-0.189-0.084-0.189-0.189v-2.071c0-0.104 0.084-0.189 0.189-0.189z"></path>
<path fill="#483896" d="M19.384 17.576h2.071c0.104 0 0.189 0.084 0.189 0.189v2.071c0 0.104-0.084 0.189-0.189 0.189h-2.071c-0.104 0-0.189-0.084-0.189-0.189v-2.071c0-0.104 0.084-0.189 0.189-0.189z"></path>
<path fill="#483896" d="M15.303 17.576h2.071c0.104 0 0.189 0.084 0.189 0.189v2.071c0 0.104-0.084 0.189-0.189 0.189h-2.071c-0.104 0-0.189-0.084-0.189-0.189v-2.071c0-0.104 0.085-0.189 0.189-0.189z"></path>
<path fill="#483896" d="M23.464 25.737h2.071c0.104 0 0.189 0.084 0.189 0.189v2.071c0 0.104-0.084 0.189-0.189 0.189h-2.071c-0.104 0-0.189-0.084-0.189-0.189v-2.071c0-0.104 0.084-0.189 0.189-0.189z"></path>
<path fill="#483896" d="M19.384 25.737h2.071c0.104 0 0.189 0.084 0.189 0.189v2.071c0 0.104-0.084 0.189-0.189 0.189h-2.071c-0.104 0-0.189-0.084-0.189-0.189v-2.071c0-0.104 0.084-0.189 0.189-0.189z"></path>
<path fill="#483896" d="M15.303 25.737h2.071c0.104 0 0.189 0.084 0.189 0.189v2.071c0 0.104-0.084 0.189-0.189 0.189h-2.071c-0.104 0-0.189-0.084-0.189-0.189v-2.071c0-0.104 0.085-0.189 0.189-0.189z"></path>
</svg>
