<!-- Generated by IcoMoon.io -->
<svg version="1.1" xmlns="http://www.w3.org/2000/svg" width="32" height="32" viewBox="0 0 32 32">
<title>telephone</title>
<path fill="#00bcb4" d="M2.417 6.667h27.292c0.44 0 0.797 0.357 0.797 0.797v23.244c0 0.44-0.357 0.797-0.797 0.797h-27.292c-0.44 0-0.797-0.357-0.797-0.797v-23.244c0-0.44 0.357-0.797 0.797-0.797z"></path>
<path fill="#2f2e41" d="M29.708 6.943c0.288 0 0.521 0.233 0.521 0.521v23.244c-0.001 0.287-0.234 0.52-0.521 0.521h-27.291c-0.288-0-0.521-0.233-0.521-0.521v-23.244c0.001-0.287 0.234-0.52 0.521-0.521h27.291zM29.708 6.391h-27.291c-0 0-0 0-0.001 0-0.592 0-1.073 0.48-1.073 1.072v0 23.244c0 0.592 0.48 1.073 1.073 1.073 0 0 0 0 0.001 0h27.291c0 0 0 0 0.001 0 0.592 0 1.073-0.48 1.073-1.073v0-23.244c0-0.592-0.48-1.072-1.073-1.072-0 0-0 0-0.001 0h0z"></path>
<path fill="#fff" d="M15.898 9.242h11.001c0.671 0 1.215 0.544 1.215 1.215v2.906c0 0.671-0.544 1.215-1.215 1.215h-11.001c-0.671 0-1.215-0.544-1.215-1.215v-2.906c0-0.671 0.544-1.215 1.215-1.215z"></path>
<path fill="#2f2e41" d="M26.899 9.335c0.621 0 1.125 0.504 1.125 1.125v0 2.906c0 0.621-0.504 1.125-1.125 1.125v0h-11c-0.621 0-1.125-0.504-1.125-1.125v0-2.906c0-0.621 0.504-1.125 1.125-1.125v0h11zM26.899 9.148h-11c-0.722 0-1.307 0.585-1.307 1.307v0 2.906c0 0.722 0.585 1.307 1.307 1.307h11c0.722 0 1.307-0.585 1.307-1.307v0-2.906c0-0.722-0.585-1.307-1.307-1.307v0z"></path>
<path fill="#000" stroke="#2f2e41" stroke-linejoin="miter" stroke-linecap="round" stroke-miterlimit="10" stroke-width="0.7362" d="M25.538 6.483v-5.796"></path>
<path fill="#2f2e41" d="M7.968 9.901c2.134 0 3.864 1.73 3.864 3.864v11.239c0 2.134-1.73 3.864-3.864 3.864s-3.864-1.73-3.864-3.864v-11.239c0-2.134 1.73-3.864 3.864-3.864z"></path>
<path fill="#2f2e41" d="M24.558 21.656h2.071c0.104 0 0.189 0.084 0.189 0.189v2.071c0 0.104-0.084 0.189-0.189 0.189h-2.071c-0.104 0-0.189-0.084-0.189-0.189v-2.071c0-0.104 0.084-0.189 0.189-0.189z"></path>
<path fill="#2f2e41" d="M20.477 21.656h2.071c0.104 0 0.189 0.084 0.189 0.189v2.071c0 0.104-0.084 0.189-0.189 0.189h-2.071c-0.104 0-0.189-0.084-0.189-0.189v-2.071c0-0.104 0.084-0.189 0.189-0.189z"></path>
<path fill="#2f2e41" d="M16.397 21.656h2.071c0.104 0 0.189 0.084 0.189 0.189v2.071c0 0.104-0.084 0.189-0.189 0.189h-2.071c-0.104 0-0.189-0.084-0.189-0.189v-2.071c0-0.104 0.084-0.189 0.189-0.189z"></path>
<path fill="#2f2e41" d="M24.558 17.576h2.071c0.104 0 0.189 0.084 0.189 0.189v2.071c0 0.104-0.084 0.189-0.189 0.189h-2.071c-0.104 0-0.189-0.084-0.189-0.189v-2.071c0-0.104 0.084-0.189 0.189-0.189z"></path>
<path fill="#2f2e41" d="M20.477 17.576h2.071c0.104 0 0.189 0.084 0.189 0.189v2.071c0 0.104-0.084 0.189-0.189 0.189h-2.071c-0.104 0-0.189-0.084-0.189-0.189v-2.071c0-0.104 0.084-0.189 0.189-0.189z"></path>
<path fill="#2f2e41" d="M16.397 17.576h2.071c0.104 0 0.189 0.084 0.189 0.189v2.071c0 0.104-0.084 0.189-0.189 0.189h-2.071c-0.104 0-0.189-0.084-0.189-0.189v-2.071c0-0.104 0.084-0.189 0.189-0.189z"></path>
<path fill="#2f2e41" d="M24.558 25.737h2.071c0.104 0 0.189 0.084 0.189 0.189v2.071c0 0.104-0.084 0.189-0.189 0.189h-2.071c-0.104 0-0.189-0.084-0.189-0.189v-2.071c0-0.104 0.084-0.189 0.189-0.189z"></path>
<path fill="#2f2e41" d="M20.477 25.737h2.071c0.104 0 0.189 0.084 0.189 0.189v2.071c0 0.104-0.084 0.189-0.189 0.189h-2.071c-0.104 0-0.189-0.084-0.189-0.189v-2.071c0-0.104 0.084-0.189 0.189-0.189z"></path>
<path fill="#2f2e41" d="M16.397 25.737h2.071c0.104 0 0.189 0.084 0.189 0.189v2.071c0 0.104-0.084 0.189-0.189 0.189h-2.071c-0.104 0-0.189-0.084-0.189-0.189v-2.071c0-0.104 0.084-0.189 0.189-0.189z"></path>
</svg>
