<!-- Generated by IcoMoon.io -->
<svg version="1.1" xmlns="http://www.w3.org/2000/svg" width="34" height="32" viewBox="0 0 34 32">
<title>undraw_no_data_qbuo-2</title>
<path fill="#e0e0e0" d="M2.833 5.553l17.512-3.757 5.192 24.196-17.512 3.757-5.192-24.196z"></path>
<path fill="#073322" opacity="0.5" d="M3.217 5.898l16.92-3.63 5.016 23.378-16.92 3.63-5.016-23.378z"></path>
<path fill="#fafafa" d="M3.469 6.024l16.489-3.538 4.905 22.861-16.489 3.538-4.905-22.861z"></path>
<path fill="#0ee1ab" d="M7.432 4.137l8.18-1.755 0.425 1.982-8.18 1.755-0.425-1.981z"></path>
<path fill="#abca97" d="M11.107 1.324c-0.632 0.136-1.031 0.77-0.892 1.416s0.763 1.061 1.393 0.925 1.031-0.77 0.892-1.416-0.762-1.061-1.393-0.925zM11.503 3.172c-0.048 0.012-0.103 0.019-0.16 0.019-0.382 0-0.691-0.309-0.691-0.691s0.309-0.691 0.691-0.691c0.329 0 0.605 0.23 0.674 0.539l0.001 0.005c0.011 0.046 0.018 0.099 0.018 0.154 0 0.324-0.225 0.595-0.528 0.665l-0.005 0.001z"></path>
<path fill="#009b99" d="M7.5 4.034l8.008-1.718 0.406 1.894-8.008 1.718-0.406-1.894z"></path>
<path fill="#009b99" d="M11.107 1.324c-0.521 0.115-0.904 0.572-0.904 1.119 0 0.632 0.512 1.145 1.145 1.145s1.145-0.512 1.145-1.145c0-0.085-0.009-0.168-0.027-0.248l0.001 0.008c-0.115-0.521-0.572-0.905-1.119-0.905-0.085 0-0.168 0.009-0.248 0.027l0.008-0.001zM11.486 3.091c-0.042 0.009-0.089 0.015-0.139 0.015-0.365 0-0.661-0.296-0.661-0.661s0.296-0.661 0.661-0.661c0.316 0 0.58 0.222 0.645 0.518l0.001 0.004c0.009 0.042 0.015 0.089 0.015 0.138 0 0.316-0.222 0.58-0.518 0.645l-0.004 0.001z"></path>
<path fill="#e0e0e0" d="M10.569 4.791h17.91v24.746h-17.91v-24.746z"></path>
<path fill="#2632d4" opacity="0.5" d="M10.872 5.21h17.305v23.91h-17.305v-23.91z"></path>
<path fill="#fff" d="M11.092 5.386h16.865v23.382h-16.865v-23.382z"></path>
<path fill="#97571e" d="M15.363 4.372h8.366v2.027h-8.366v-2.027z"></path>
<path fill="#7d32e1" d="M19.546 2.394c-0.646 0-1.17 0.536-1.17 1.198s0.524 1.198 1.17 1.198 1.17-0.536 1.17-1.198-0.524-1.198-1.17-1.198zM19.546 4.282c-0.005 0-0.011 0-0.016 0-0.382 0-0.691-0.309-0.691-0.691s0.309-0.691 0.691-0.691c0.382 0 0.691 0.309 0.691 0.691v0c0 0.001 0 0.003 0 0.005 0 0.374-0.301 0.678-0.674 0.683v0z"></path>
<path fill="#009b99" d="M15.451 4.285h8.19v1.937h-8.19v-1.937z"></path>
<path fill="#009b99" d="M19.546 2.394c-0.632 0-1.145 0.512-1.145 1.145s0.512 1.145 1.145 1.145c0.632 0 1.145-0.512 1.145-1.145v0c0-0.632-0.512-1.145-1.145-1.145v0zM19.546 4.199c-0.364 0-0.66-0.296-0.66-0.661s0.296-0.661 0.661-0.661c0.364 0 0.66 0.295 0.661 0.659v0c0 0.365-0.296 0.66-0.661 0.66 0 0-0.001 0-0.001 0v0z"></path>
<path fill="#47e6b1" opacity="0.5" d="M0.626 30.207h0.154v0.874h-0.154v-0.874z"></path>
<path fill="#47e6b1" opacity="0.5" d="M1.14 30.567v0.154h-0.874v-0.154h0.874z"></path>
<path fill="#47e6b1" opacity="0.5" d="M18.503 0h0.154v0.874h-0.154v-0.874z"></path>
<path fill="#47e6b1" opacity="0.5" d="M19.018 0.36v0.154h-0.874v-0.154h0.874z"></path>
<path fill="#4d8af0" opacity="0.5" d="M31.601 31.662c-0.067-0.030-0.114-0.096-0.114-0.173 0-0.020 0.003-0.039 0.009-0.056v0.001c0.002-0.006 0.003-0.013 0.004-0.021v0c0-0.002 0-0.004 0-0.006 0-0.052-0.042-0.095-0.095-0.095-0.031 0-0.058 0.015-0.075 0.037v0c-0.004 0.005-0.008 0.011-0.010 0.018v0.001c-0.030 0.067-0.096 0.114-0.173 0.114-0.020 0-0.039-0.003-0.056-0.009h0.001c-0.006-0.002-0.013-0.003-0.021-0.004v0c-0.002 0-0.004 0-0.006 0-0.052 0-0.095 0.042-0.095 0.095 0 0.031 0.015 0.058 0.037 0.075v0c0.005 0.004 0.011 0.008 0.018 0.010h0.001c0.067 0.030 0.114 0.096 0.114 0.173 0 0.020-0.003 0.039-0.009 0.056v-0.001c-0.002 0.006-0.003 0.013-0.004 0.021v0c0 0.002 0 0.004 0 0.006 0 0.052 0.042 0.095 0.095 0.095 0.031 0 0.058-0.015 0.075-0.037v0c0.004-0.005 0.008-0.011 0.010-0.018v-0.001c0.030-0.067 0.096-0.114 0.173-0.114 0.020 0 0.039 0.003 0.056 0.009h-0.001c0.006 0.002 0.013 0.003 0.021 0.004v0c0.002 0 0.004 0 0.006 0 0.052 0 0.095-0.042 0.095-0.095 0-0.031-0.015-0.058-0.037-0.075v0c-0.005-0.004-0.011-0.008-0.018-0.010h-0.001z"></path>
<path fill="#fdd835" opacity="0.5" d="M5.601 23.258c-0.067-0.030-0.114-0.096-0.114-0.173 0-0.020 0.003-0.039 0.009-0.056v0.001c0.002-0.006 0.003-0.013 0.004-0.021v0c0-0.002 0-0.004 0-0.006 0-0.052-0.042-0.095-0.095-0.095-0.031 0-0.058 0.015-0.075 0.037v0c-0.004 0.005-0.008 0.011-0.010 0.018v0.001c-0.030 0.067-0.096 0.114-0.173 0.114-0.020 0-0.039-0.003-0.056-0.009h0.001c-0.006-0.002-0.013-0.003-0.021-0.004v0c-0.002 0-0.004 0-0.006 0-0.052 0-0.095 0.042-0.095 0.095 0 0.031 0.015 0.058 0.037 0.075v0c0.005 0.004 0.011 0.008 0.018 0.010h0.001c0.067 0.030 0.114 0.096 0.114 0.173 0 0.020-0.003 0.039-0.009 0.056v-0.001c-0.002 0.006-0.003 0.013-0.004 0.021v0c0 0.002 0 0.004 0 0.006 0 0.052 0.042 0.095 0.095 0.095 0.031 0 0.058-0.015 0.075-0.037v0c0.004-0.005 0.008-0.011 0.010-0.018v-0.001c0.030-0.067 0.096-0.114 0.173-0.114 0.020 0 0.039 0.003 0.056 0.009h-0.001c0.006 0.002 0.013 0.003 0.021 0.004v0c0.002 0 0.004 0 0.006 0 0.052 0 0.095-0.042 0.095-0.095 0-0.031-0.015-0.058-0.037-0.075v0c-0.005-0.004-0.011-0.008-0.018-0.010h-0.001z"></path>
<path fill="#fdd835" opacity="0.5" d="M27.257 2.794c-0.067-0.030-0.114-0.096-0.114-0.173 0-0.020 0.003-0.039 0.009-0.056v0.001c0.002-0.006 0.003-0.013 0.004-0.021v0c0-0.002 0-0.004 0-0.006 0-0.052-0.042-0.095-0.095-0.095-0.031 0-0.058 0.015-0.075 0.037v0c-0.004 0.005-0.008 0.011-0.010 0.018v0.001c-0.030 0.067-0.096 0.114-0.173 0.114-0.020 0-0.039-0.003-0.056-0.009h0.001c-0.006-0.002-0.013-0.003-0.021-0.004v0c-0.002 0-0.004 0-0.006 0-0.052 0-0.095 0.042-0.095 0.095 0 0.031 0.015 0.058 0.037 0.075v0c0.005 0.004 0.011 0.008 0.018 0.010h0.001c0.067 0.030 0.114 0.096 0.114 0.173 0 0.020-0.003 0.039-0.009 0.056v-0.001c-0.002 0.006-0.003 0.013-0.004 0.021v0c0 0.002 0 0.004 0 0.006 0 0.052 0.042 0.095 0.095 0.095 0.031 0 0.058-0.015 0.075-0.037v0c0.004-0.005 0.008-0.011 0.010-0.018v-0.001c0.030-0.067 0.096-0.114 0.173-0.114 0.020 0 0.039 0.003 0.056 0.009h-0.001c0.006 0.002 0.013 0.003 0.021 0.004v0c0.002 0 0.004 0 0.006 0 0.052 0 0.095-0.042 0.095-0.095 0-0.031-0.015-0.058-0.037-0.075v0c-0.005-0.004-0.011-0.008-0.018-0.010h-0.001z"></path>
<path fill="#f55f44" opacity="0.5" d="M33.613 12.888c0 0.17-0.138 0.309-0.309 0.309s-0.309-0.138-0.309-0.309c0-0.17 0.138-0.309 0.309-0.309s0.309 0.138 0.309 0.309z"></path>
<path fill="#f55f44" opacity="0.5" d="M9.765 30.6c0 0.17-0.138 0.309-0.309 0.309s-0.309-0.138-0.309-0.309c0-0.17 0.138-0.309 0.309-0.309s0.309 0.138 0.309 0.309z"></path>
<path fill="#f55f44" opacity="0.5" d="M30.444 19.558c0 0.17-0.138 0.309-0.309 0.309s-0.309-0.138-0.309-0.309c0-0.17 0.138-0.309 0.309-0.309s0.309 0.138 0.309 0.309z"></path>
<path fill="#4d8af0" opacity="0.5" d="M3.88 3.949c0 0.17-0.138 0.309-0.309 0.309s-0.309-0.138-0.309-0.309c0-0.17 0.138-0.309 0.309-0.309s0.309 0.138 0.309 0.309z"></path>
<path fill="#47e6b1" opacity="0.5" d="M0.617 12.367c0 0.17-0.138 0.309-0.309 0.309s-0.309-0.138-0.309-0.309c0-0.17 0.138-0.309 0.309-0.309s0.309 0.138 0.309 0.309z"></path>
</svg>
