<!-- Generated by IcoMoon.io -->
<svg version="1.1" xmlns="http://www.w3.org/2000/svg" width="34" height="32" viewBox="0 0 34 32">
<title>undraw_post2_19cj</title>
<path fill="#12db07" opacity="0.5" d="M0.186 0h20.797c0.103 0 0.186 0.083 0.186 0.186v31.627c0 0.103-0.083 0.186-0.186 0.186h-20.797c-0.103 0-0.186-0.083-0.186-0.186v-31.627c0-0.103 0.083-0.186 0.186-0.186z"></path>
<path fill="#fff" d="M0.458 0.235h20.254c0.103 0 0.186 0.083 0.186 0.186v30.98c0 0.103-0.083 0.186-0.186 0.186h-20.254c-0.103 0-0.186-0.083-0.186-0.186v-30.98c0-0.103 0.083-0.186 0.186-0.186z"></path>
<path fill="#009b99" d="M2.52 6.011h3.753c0.103 0 0.186 0.083 0.186 0.186v3.34c0 0.103-0.083 0.186-0.186 0.186h-3.753c-0.103 0-0.186-0.083-0.186-0.186v-3.34c0-0.103 0.083-0.186 0.186-0.186z"></path>
<path fill="#e0e0e0" d="M7.882 6.011h10.768c0.102 0 0.185 0.083 0.185 0.185v0.042c0 0.102-0.083 0.185-0.185 0.185h-10.768c-0.102 0-0.185-0.083-0.185-0.185v-0.042c0-0.102 0.083-0.185 0.185-0.185z"></path>
<path fill="#e0e0e0" d="M7.882 7.248h8.888c0.102 0 0.185 0.083 0.185 0.185v0.042c0 0.102-0.083 0.185-0.185 0.185h-8.888c-0.102 0-0.185-0.083-0.185-0.185v-0.042c0-0.102 0.083-0.185 0.185-0.185z"></path>
<path fill="#009b99" d="M2.52 11.786h3.753c0.103 0 0.186 0.083 0.186 0.186v3.34c0 0.103-0.083 0.186-0.186 0.186h-3.753c-0.103 0-0.186-0.083-0.186-0.186v-3.34c0-0.103 0.083-0.186 0.186-0.186z"></path>
<path fill="#e0e0e0" d="M7.882 11.786h10.768c0.102 0 0.185 0.083 0.185 0.185v0.042c0 0.102-0.083 0.185-0.185 0.185h-10.768c-0.102 0-0.185-0.083-0.185-0.185v-0.042c0-0.102 0.083-0.185 0.185-0.185z"></path>
<path fill="#e0e0e0" d="M7.882 13.023h10.768c0.102 0 0.185 0.083 0.185 0.185v0.042c0 0.102-0.083 0.185-0.185 0.185h-10.768c-0.102 0-0.185-0.083-0.185-0.185v-0.042c0-0.102 0.083-0.185 0.185-0.185z"></path>
<path fill="#009b99" d="M2.52 17.561h3.753c0.103 0 0.186 0.083 0.186 0.186v3.34c0 0.103-0.083 0.186-0.186 0.186h-3.753c-0.103 0-0.186-0.083-0.186-0.186v-3.34c0-0.103 0.083-0.186 0.186-0.186z"></path>
<path fill="#e0e0e0" d="M7.882 17.561h10.768c0.102 0 0.185 0.083 0.185 0.185v0.042c0 0.102-0.083 0.185-0.185 0.185h-10.768c-0.102 0-0.185-0.083-0.185-0.185v-0.042c0-0.102 0.083-0.185 0.185-0.185z"></path>
<path fill="#e0e0e0" d="M7.882 18.799h0.867c0.102 0 0.185 0.083 0.185 0.185v0.042c0 0.102-0.083 0.185-0.185 0.185h-0.867c-0.102 0-0.185-0.083-0.185-0.185v-0.042c0-0.102 0.083-0.185 0.185-0.185z"></path>
<path fill="#9c3606" opacity="0.5" d="M13.36 10.303h20.479c0.103 0 0.186 0.083 0.186 0.186v18.437c0 0.103-0.083 0.186-0.186 0.186h-20.479c-0.103 0-0.186-0.083-0.186-0.186v-18.437c0-0.103 0.083-0.186 0.186-0.186z"></path>
<path fill="#fff" d="M13.682 10.492h19.87c0.103 0 0.186 0.083 0.186 0.186v17.846c0 0.103-0.083 0.186-0.186 0.186h-19.87c-0.103 0-0.186-0.083-0.186-0.186v-17.846c0-0.103 0.083-0.186 0.186-0.186z"></path>
<path fill="#009b99" d="M15.669 14.406h3.977c0.103 0 0.186 0.083 0.186 0.186v3.542c0 0.103-0.083 0.186-0.186 0.186h-3.977c-0.103 0-0.186-0.083-0.186-0.186v-3.542c0-0.103 0.083-0.186 0.186-0.186z"></path>
<path fill="#e0e0e0" d="M21.323 14.406h11.371c0.103 0 0.186 0.083 0.186 0.186v0.063c0 0.103-0.083 0.186-0.186 0.186h-11.371c-0.103 0-0.186-0.083-0.186-0.186v-0.063c0-0.103 0.083-0.186 0.186-0.186z"></path>
<path fill="#e0e0e0" d="M21.323 15.711h11.371c0.103 0 0.186 0.083 0.186 0.186v0.063c0 0.103-0.083 0.186-0.186 0.186h-11.371c-0.103 0-0.186-0.083-0.186-0.186v-0.063c0-0.103 0.083-0.186 0.186-0.186z"></path>
<path fill="#e0e0e0" d="M15.234 20.447h17.46c0.103 0 0.186 0.083 0.186 0.186v0.063c0 0.103-0.083 0.186-0.186 0.186h-17.459c-0.103 0-0.186-0.083-0.186-0.186v-0.063c0-0.103 0.083-0.186 0.186-0.186z"></path>
<path fill="#e0e0e0" d="M15.234 21.752h17.46c0.103 0 0.186 0.083 0.186 0.186v0.063c0 0.103-0.083 0.186-0.186 0.186h-17.459c-0.103 0-0.186-0.083-0.186-0.186v-0.063c0-0.103 0.083-0.186 0.186-0.186z"></path>
<path fill="#e0e0e0" d="M15.234 23.491h17.46c0.103 0 0.186 0.083 0.186 0.186v0.063c0 0.103-0.083 0.186-0.186 0.186h-17.459c-0.103 0-0.186-0.083-0.186-0.186v-0.063c0-0.103 0.083-0.186 0.186-0.186z"></path>
<path fill="#e0e0e0" d="M15.234 24.796h13.11c0.103 0 0.186 0.083 0.186 0.186v0.063c0 0.103-0.083 0.186-0.186 0.186h-13.11c-0.103 0-0.186-0.083-0.186-0.186v-0.063c0-0.103 0.083-0.186 0.186-0.186z"></path>
</svg>
