<!-- Generated by IcoMoon.io -->
<svg version="1.1" xmlns="http://www.w3.org/2000/svg" width="32" height="32" viewBox="0 0 32 32">
<title>user-circle-o</title>
<path d="M16 0c8.839 0 16 7.161 16 16 0 8.786-7.125 16-16 16-8.857 0-16-7.197-16-16 0-8.839 7.161-16 16-16zM27.054 24.125c1.661-2.286 2.661-5.089 2.661-8.125 0-7.553-6.161-13.714-13.714-13.714s-13.714 6.161-13.714 13.714c0 3.035 1 5.839 2.661 8.125 0.642-3.197 2.197-5.839 5.464-5.839 1.447 1.41 3.41 2.286 5.59 2.286s4.143-0.875 5.59-2.286c3.267 0 4.822 2.642 5.464 5.839zM22.857 12.571c0-3.786-3.072-6.857-6.857-6.857s-6.857 3.072-6.857 6.857 3.072 6.857 6.857 6.857 6.857-3.072 6.857-6.857z"></path>
</svg>
