<!-- Generated by IcoMoon.io -->
<svg version="1.1" xmlns="http://www.w3.org/2000/svg" width="32" height="32" viewBox="0 0 32 32">
<title>user1</title>
<path fill="none" stroke="#000" stroke-linejoin="miter" stroke-linecap="butt" stroke-miterlimit="10" stroke-width="1.6381" d="M15.883 8.009c2.94 0 5.323 2.383 5.323 5.323s-2.383 5.323-5.323 5.323c-2.94 0-5.323-2.383-5.323-5.323s2.383-5.323 5.323-5.323z"></path>
<path d="M13.836 23.569v-2.116c0.003-1 0.813-1.81 1.812-1.813h0.465c1 0.003 1.81 0.813 1.813 1.812v2.117h1.638v-2.116c-0.002-1.904-1.544-3.448-3.448-3.453h-0.465c-1.906 0.003-3.451 1.547-3.453 3.453v2.117z"></path>
<path fill="none" stroke="#000" stroke-linejoin="miter" stroke-linecap="butt" stroke-miterlimit="10" stroke-width="1.6381" d="M29.969 15.789c0 7.78-6.307 14.086-14.086 14.086s-14.086-6.307-14.086-14.086c0-7.78 6.307-14.086 14.086-14.086s14.086 6.307 14.086 14.086z"></path>
</svg>
