<!-- Generated by IcoMoon.io -->
<svg version="1.1" xmlns="http://www.w3.org/2000/svg" width="32" height="32" viewBox="0 0 32 32">
<title>view-show</title>
<path d="M0.32 16c2.976-5.747 8.877-9.606 15.68-9.606s12.704 3.859 15.634 9.509l0.046 0.098c-2.976 5.747-8.877 9.606-15.68 9.606s-12.704-3.859-15.634-9.509l-0.046-0.098zM16 22.4c3.534 0 6.4-2.866 6.4-6.4s-2.866-6.4-6.4-6.4v0c-3.534 0-6.4 2.866-6.4 6.4s2.866 6.4 6.4 6.4v0zM16 19.2c-1.768 0-3.2-1.432-3.2-3.2s1.432-3.2 3.2-3.2v0c1.768 0 3.2 1.432 3.2 3.2s-1.432 3.2-3.2 3.2v0z"></path>
</svg>
