<!-- Generated by IcoMoon.io -->
<svg version="1.1" xmlns="http://www.w3.org/2000/svg" width="32" height="32" viewBox="0 0 32 32">
<title>view-hide</title>
<path d="M20.496 6.976l-2.832 2.848c-0.498-0.139-1.069-0.219-1.659-0.219-3.534 0-6.4 2.866-6.4 6.4 0 0.59 0.080 1.162 0.229 1.704l-0.011-0.045-4.416 4.4c-2.112-1.6-3.872-3.68-5.088-6.064 2.976-5.746 8.877-9.605 15.678-9.605 1.594 0 3.136 0.211 4.605 0.608l-0.123-0.029zM26.576 9.936c2.128 1.6 3.888 3.68 5.12 6.064-2.974 5.75-8.878 9.611-15.683 9.611-1.603 0-3.157-0.214-4.632-0.616l0.123 0.029 2.832-2.848c0.498 0.139 1.069 0.219 1.659 0.219 3.534 0 6.4-2.866 6.4-6.4 0-0.59-0.080-1.162-0.229-1.704l0.011 0.045 4.416-4.4zM26.176 3.552l2.272 2.272-22.624 22.624-2.272-2.272 22.624-22.624z"></path>
</svg>
