<svg id="undraw_not_found_60pq" xmlns="http://www.w3.org/2000/svg" width="525.25" height="364.63" viewBox="0 0 525.25 364.63">
  <ellipse id="Ellipse_60" data-name="Ellipse 60" cx="29.998" cy="29.999" rx="29.998" ry="29.999" transform="translate(69.649 18.28)" fill="#ff6584"/>
  <path id="Path_170" data-name="Path 170" d="M350.622,221.873c0,70.783-42.079,95.5-93.987,95.5s-93.986-24.715-93.986-95.5,93.987-160.83,93.987-160.83S350.622,151.089,350.622,221.873Z" transform="translate(-105.022 -61.042)" fill="#deecf5"/>
  <path id="Path_171" data-name="Path 171" d="M273.34,245.5l.963-59.239,40.059-73.287-39.908,63.994.433-26.636L302.495,97.31,275,143.284h0l.778-47.907,29.564-42.213L275.9,87.844,276.388,0l-3.056,116.289.251-4.8L243.525,65.483,273.1,120.7l-2.8,53.5-.083-1.42-34.652-48.418L270.112,177.8l-.35,6.691-.063.1.029.549-7.105,135.743h9.494l1.139-70.114,34.462-53.3Z" transform="translate(-125.15)" fill="#3f3d56"/>
  <path id="Path_172" data-name="Path 172" d="M985.9,316.8c0,57.939-34.444,78.17-76.933,78.17s-76.932-20.23-76.932-78.17,76.931-131.648,76.931-131.648S985.9,258.86,985.9,316.8Z" transform="translate(-460.651 -126.978)" fill="#deecf5"/>
  <path id="Path_173" data-name="Path 173" d="M915.435,325.064l.787-48.49,32.791-59.989-32.667,52.382.354-21.8,22.6-43.4-22.507,37.632h0l.637-39.214,24.2-34.553-24.1,28.387.4-71.9-2.5,95.188.206-3.927-24.6-37.661,24.21,45.2-2.293,43.8-.068-1.162L884.514,225.91l28.278,43.739-.287,5.477-.051.082.024.449L906.661,386.77h7.771l.932-57.391,28.207-43.631Z" transform="translate(-469.921 -65.936)" fill="#3f3d56"/>
  <ellipse id="Ellipse_61" data-name="Ellipse 61" cx="259.95" cy="13.14" rx="259.95" ry="13.14" transform="translate(0 305.818)" fill="#3f3d56"/>
  <ellipse id="Ellipse_62" data-name="Ellipse 62" cx="44.523" cy="2.251" rx="44.523" ry="2.251" transform="translate(373.787 338.419)" fill="#3f3d56"/>
  <ellipse id="Ellipse_63" data-name="Ellipse 63" cx="44.523" cy="2.251" rx="44.523" ry="2.251" transform="translate(212.675 360.129)" fill="#3f3d56"/>
  <ellipse id="Ellipse_64" data-name="Ellipse 64" cx="101.72" cy="5.142" rx="101.72" ry="5.142" transform="translate(33.247 339.034)" fill="#3f3d56"/>
  <ellipse id="Ellipse_65" data-name="Ellipse 65" cx="37.029" cy="37.029" rx="37.029" ry="37.029" transform="translate(8.476 228.397)" fill="#2f2e41"/>
  <rect id="Rectangle_348" data-name="Rectangle 348" width="11.249" height="20.155" transform="translate(28.291 294.286) rotate(0.675)" fill="#2f2e41"/>
  <rect id="Rectangle_349" data-name="Rectangle 349" width="11.249" height="20.155" transform="translate(50.788 294.551) rotate(0.675)" fill="#2f2e41"/>
  <ellipse id="Ellipse_66" data-name="Ellipse 66" cx="3.515" cy="9.374" rx="3.515" ry="9.374" transform="translate(28.008 318.189) rotate(-89.325)" fill="#2f2e41"/>
  <ellipse id="Ellipse_67" data-name="Ellipse 67" cx="3.515" cy="9.374" rx="3.515" ry="9.374" transform="translate(50.511 317.985) rotate(-89.325)" fill="#2f2e41"/>
  <ellipse id="Ellipse_68" data-name="Ellipse 68" cx="12.656" cy="12.656" rx="12.656" ry="12.656" transform="translate(33.898 243.407)" fill="#fff"/>
  <ellipse id="Ellipse_69" data-name="Ellipse 69" cx="4.219" cy="4.219" rx="4.219" ry="4.219" transform="translate(42.335 251.845)" fill="#3f3d56"/>
  <path id="Path_174" data-name="Path 174" d="M60.47,518.236c-2.832-13.425,6.884-26.842,21.7-29.967s29.126,5.223,31.958,18.648-7.021,18.248-21.838,21.373S63.3,531.661,60.47,518.236Z" transform="translate(-50.476 -287.668)" fill="#009b99"/>
  <path id="Path_175" data-name="Path 175" d="M179.592,604.9c0,25.816-15.346,34.829-34.278,34.829q-.658,0-1.314-.015c-.877-.019-1.746-.061-2.6-.119-17.086-1.209-30.36-10.687-30.36-34.7,0-24.846,31.751-56.2,34.136-58.519l0,0,.138-.134S179.592,579.085,179.592,604.9Z" transform="translate(-77.601 -318.817)" fill="#009b99"/>
  <path id="Path_176" data-name="Path 176" d="M165.886,635.781l12.537-17.518L165.854,637.7l-.033,2.011c-.877-.019-1.746-.061-2.6-.119l1.351-25.828-.01-.2.023-.037.127-2.439-12.6-19.49,12.639,17.66.029.518,1.021-19.515-10.787-20.139L165.93,586.84l1.063-40.458,0-.138v.134l-.178,31.9,10.739-12.648-10.783,15.4-.284,17.472,10.026-16.768-10.068,19.339-.159,9.714,14.557-23.339-14.611,26.728Z" transform="translate(-99.422 -318.817)" fill="#3f3d56"/>
  <ellipse id="Ellipse_70" data-name="Ellipse 70" cx="37.029" cy="37.029" rx="37.029" ry="37.029" transform="translate(296.929 227.996)" fill="#2f2e41"/>
  <rect id="Rectangle_350" data-name="Rectangle 350" width="11.249" height="20.155" transform="matrix(0.956, -0.294, 0.294, 0.956, 326.366, 297.764)" fill="#2f2e41"/>
  <rect id="Rectangle_351" data-name="Rectangle 351" width="11.249" height="20.155" transform="matrix(0.956, -0.294, 0.294, 0.956, 347.872, 291.154)" fill="#2f2e41"/>
  <ellipse id="Ellipse_71" data-name="Ellipse 71" cx="9.374" cy="3.515" rx="9.374" ry="3.515" transform="matrix(0.956, -0.294, 0.294, 0.956, 331.323, 313.893)" fill="#2f2e41"/>
  <ellipse id="Ellipse_72" data-name="Ellipse 72" cx="9.374" cy="3.515" rx="9.374" ry="3.515" transform="matrix(0.956, -0.294, 0.294, 0.956, 352.691, 306.836)" fill="#2f2e41"/>
  <ellipse id="Ellipse_73" data-name="Ellipse 73" cx="12.656" cy="12.656" rx="12.656" ry="12.656" transform="translate(319.446 243.133)" fill="#fff"/>
  <ellipse id="Ellipse_74" data-name="Ellipse 74" cx="4.219" cy="4.219" rx="4.219" ry="4.219" transform="translate(327.883 251.57)" fill="#3f3d56"/>
  <path id="Path_177" data-name="Path 177" d="M653.964,534.454c-6.792-11.921-1.63-27.662,11.528-35.159s29.331-3.909,36.122,8.012-1.121,19.519-14.279,27.016S660.755,546.375,653.964,534.454Z" transform="translate(-364.456 -291.793)" fill="#009b99"/>
  <path id="Path_178" data-name="Path 178" d="M539.967,600.27c0,23.7-14.087,31.972-31.465,31.972q-.6,0-1.206-.014c-.805-.017-1.6-.056-2.391-.109-15.684-1.11-27.869-9.81-27.869-31.849,0-22.808,29.146-51.588,31.335-53.718l0,0,.127-.123S539.967,576.573,539.967,600.27Z" transform="translate(-272.048 -318.914)" fill="#009b99"/>
  <path id="Path_179" data-name="Path 179" d="M527.385,628.616l11.508-16.081-11.537,17.846-.031,1.846c-.805-.017-1.6-.056-2.391-.109l1.24-23.709-.01-.184.021-.035.117-2.239-11.566-17.891,11.6,16.211.027.475.938-17.914-9.9-18.487,10.023,15.343.976-37.138,0-.127v.123l-.163,29.286,9.858-11.61-9.9,14.133-.261,16.039,9.2-15.393L527.9,596.756l-.146,8.917,13.362-21.424-13.412,24.535Z" transform="translate(-292.078 -318.913)" fill="#3f3d56"/>
  <path id="Path_180" data-name="Path 180" d="M797.592,615.9c0,25.816-15.346,34.829-34.278,34.829q-.658,0-1.314-.015c-.877-.019-1.746-.061-2.6-.119-17.086-1.209-30.36-10.687-30.36-34.7,0-24.846,31.751-56.2,34.136-58.519l0,0,.138-.134S797.592,590.085,797.592,615.9Z" transform="translate(-405.93 -324.661)" fill="#009b99"/>
  <path id="Path_181" data-name="Path 181" d="M783.886,646.781l12.537-17.518L783.854,648.7l-.033,2.011c-.877-.019-1.746-.061-2.6-.119l1.351-25.828-.01-.2.023-.038.127-2.439-12.6-19.49,12.639,17.66.029.518,1.021-19.515-10.787-20.139,10.918,16.714,1.063-40.458,0-.138v.134l-.177,31.9,10.739-12.648-10.783,15.4-.284,17.472,10.026-16.768-10.068,19.339-.159,9.713,14.557-23.339-14.611,26.728Z" transform="translate(-427.75 -324.661)" fill="#3f3d56"/>
  <ellipse id="Ellipse_75" data-name="Ellipse 75" cx="5.812" cy="18.515" rx="5.812" ry="18.515" transform="translate(300.364 276.575) rotate(-64.626)" fill="#2f2e41"/>
  <ellipse id="Ellipse_76" data-name="Ellipse 76" cx="5.812" cy="18.515" rx="5.812" ry="18.515" transform="translate(14.782 275.42) rotate(-68.159)" fill="#2f2e41"/>
</svg>
