<svg xmlns="http://www.w3.org/2000/svg" width="282.48" height="503.4" viewBox="0 0 282.48 503.4">
  <defs>
    <style>
      .cls-1 {
        fill: #fcdb79;
        stroke: #fe5c5b;
        stroke-width: 10.86px;
      }

      .cls-1, .cls-5 {
        stroke-miterlimit: 10;
      }

      .cls-2 {
        fill: #ff5e62;
      }

      .cls-3 {
        fill: #fff;
      }

      .cls-4, .cls-5 {
        fill: none;
      }

      .cls-5 {
        stroke: #ff5e62;
        stroke-width: 2.98px;
      }
    </style>
  </defs>
  <title>Asset 1</title>
  <g id="Layer_2" data-name="Layer 2">
    <g id="Layer_1-2" data-name="Layer 1">
      <g>
        <rect class="cls-1" x="5.43" y="5.43" width="271.62" height="492.53" rx="32.59" ry="32.59"/>
        <g id="_Group_Natch" data-name="&lt;Group&gt;Natch">
          <g>
            <g>
              <path class="cls-2" d="M102.7,32.75A11.78,11.78,0,0,1,90.93,21V7.85H191.56V21a11.79,11.79,0,0,1-11.78,11.77Z"/>
              <path class="cls-2" d="M188.84,10.57V21A9.07,9.07,0,0,1,179.79,30H102.7A9.07,9.07,0,0,1,93.64,21V10.57h95.2m5.43-5.43H88.21V21A14.49,14.49,0,0,0,102.7,35.47h77.09A14.48,14.48,0,0,0,194.27,21V5.14Z"/>
            </g>
            <ellipse class="cls-3" cx="141.24" cy="20.3" rx="6.48" ry="6.49"/>
            <path class="cls-3" d="M171.17,20.84a4.63,4.63,0,1,1-4.63-4.64A4.63,4.63,0,0,1,171.17,20.84Z"/>
          </g>
          <rect class="cls-4" x="5.43" y="5.73" width="271.62" height="492.53" rx="32.59" ry="32.59"/>
        </g>
        <g>
          <rect class="cls-4" x="5.43" y="5.43" width="271.62" height="492.53" rx="32.59" ry="32.59"/>
          <g>
            <path class="cls-2" d="M141.24,166.59A85.11,85.11,0,1,1,56.13,251.7a85.21,85.21,0,0,1,85.11-85.11m0-7.24a92.35,92.35,0,1,0,92.35,92.35,92.35,92.35,0,0,0-92.35-92.35Z"/>
            <path class="cls-3" d="M180.71,235.17l-43.77,69.3a3.24,3.24,0,0,1-2.92,1.82,1.35,1.35,0,0,1-1.09-.36,3.68,3.68,0,0,1-2.19-4l6.2-46.69H104.85a3.83,3.83,0,0,1-3.29-1.83,3.34,3.34,0,0,1,.37-3.64l36.47-51.07a3.64,3.64,0,0,1,4-1.45,3.5,3.5,0,0,1,2.56,3.28V229.7h32.82a3.85,3.85,0,0,1,3.29,1.82,4.34,4.34,0,0,1-.37,3.65"/>
          </g>
        </g>
        <g>
          <g>
            <circle class="cls-5" cx="140.93" cy="456.07" r="22.35" transform="translate(-292.64 256.36) rotate(-48.1)"/>
            <circle class="cls-2" cx="141.24" cy="456.2" r="15.02"/>
          </g>
          <rect class="cls-4" x="5.43" y="5.43" width="271.62" height="492.53" rx="32.59" ry="32.59"/>
        </g>
      </g>
    </g>
  </g>
</svg>
