<svg aria-hidden="true" style="position: absolute; width: 0; height: 0; overflow: hidden;" version="1.1" xmlns="http://www.w3.org/2000/svg" xmlns:xlink="http://www.w3.org/1999/xlink">
<defs>
<symbol id="icon-arrow-back" viewBox="0 0 24 24">
<title>arrow-back</title>
<path d="M12 9.059v-2.559c0-0.256-0.098-0.512-0.293-0.708-0.195-0.195-0.451-0.292-0.707-0.292s-0.512 0.097-0.707 0.292l-6.293 6.208 6.293 6.207c0.195 0.195 0.451 0.293 0.707 0.293s0.512-0.098 0.707-0.293 0.293-0.452 0.293-0.707v-2.489c2.75 0.068 5.755 0.566 8 3.989v-1c0-4.633-3.5-8.443-8-8.941z"></path>
</symbol>
<symbol id="icon-user" viewBox="0 0 24 24">
<title>user</title>
<path d="M17 9c0-1.381-0.56-2.631-1.464-3.535s-2.155-1.465-3.536-1.465-2.631 0.56-3.536 1.465c-0.904 0.904-1.464 2.154-1.464 3.535s0.56 2.631 1.464 3.535c0.905 0.905 2.155 1.465 3.536 1.465s2.631-0.56 3.536-1.465c0.904-0.904 1.464-2.154 1.464-3.535z"></path>
<path d="M6 19c0 1 2.25 2 6 2 3.518 0 6-1 6-2 0-2-2.354-4-6-4-3.75 0-6 2-6 4z"></path>
</symbol>
<symbol id="icon-reply" viewBox="0 0 24 24">
<title>reply</title>
<path d="M9.984 9q4.875 0.703 7.523 3.727t3.492 7.289q-3.609-5.109-11.016-5.109v4.078l-6.984-6.984 6.984-6.984v3.984z"></path>
</symbol>
<symbol id="icon-agent" viewBox="0 0 32 32">
<title>agent</title>
<path fill="#00bcb4" style="fill: var(--color1, #00bcb4)" d="M16.261 24.916c0.23 0.169 0.377 0.438 0.377 0.742 0 0.206-0.068 0.396-0.182 0.549l0.002-0.002-1.056 1.429c-0.281 0.384-0.893 0.489-1.29 0.198-0.23-0.17-0.378-0.44-0.378-0.745 0-0.205 0.067-0.395 0.18-0.548l-0.002 0.003 1.059-1.429c0.17-0.228 0.44-0.375 0.743-0.375 0.206 0 0.396 0.067 0.55 0.181l-0.003-0.002z"></path>
<path fill="#00bcb4" style="fill: var(--color1, #00bcb4)" d="M9.813 23.547l1.055-1.422c0.112-0.151 0.179-0.341 0.179-0.547 0-0.51-0.414-0.924-0.924-0.924-0.304 0-0.574 0.147-0.743 0.374l-0.002 0.003-1.055 1.424c-0.113 0.152-0.18 0.342-0.18 0.549 0 0.305 0.148 0.576 0.376 0.745l0.003 0.002c0.389 0.282 1.004 0.188 1.291-0.203z"></path>
<path fill="#00bcb4" style="fill: var(--color1, #00bcb4)" d="M13.104 23.754l-1.053 1.421c-0.111 0.151-0.178 0.341-0.178 0.546 0 0.305 0.148 0.576 0.375 0.744l0.002 0.002c0.394 0.289 1.008 0.188 1.292-0.198l1.053-1.424c0.119-0.154 0.19-0.349 0.19-0.562 0-0.51-0.414-0.924-0.924-0.924-0.311 0-0.587 0.154-0.754 0.39l-0.002 0.003z"></path>
<path fill="#00bcb4" style="fill: var(--color1, #00bcb4)" d="M11.242 22.394l-1.063 1.434c-0.11 0.149-0.175 0.336-0.175 0.538 0 0.304 0.149 0.574 0.377 0.74l0.003 0.002c0.403 0.294 1.005 0.196 1.284-0.188l1.063-1.438c0.112-0.151 0.179-0.34 0.179-0.546 0-0.51-0.413-0.923-0.923-0.923-0.304 0-0.574 0.147-0.742 0.375l-0.002 0.003z"></path>
<path fill="#00bcb4" style="fill: var(--color1, #00bcb4)" d="M27.921 21.332l3.844-1.022-2.072-7.974-3.898 1.172 2.126 7.824z"></path>
<path fill="#00bcb4" style="fill: var(--color1, #00bcb4)" d="M24.672 14.369c-1.901 0.139-3.708-0.563-5.693-1.586-0.438-0.225-0.941-0.408-1.433-0.408-0.008-0-0.017-0-0.026-0-0.497 0-0.942 0.223-1.24 0.575l-0.002 0.002c-1.341 1.519-2.119 2.861-3.716 3.793-0.787 0.459 0.136 1.897 1.826 1.307 0.861-0.301 2.030-1.082 2.981-1.849 0.75-0.603 1.196-0.516 1.845 0.133 1.214 1.216 5.303 5.25 5.303 5.25 0.515-0.324 1.122-0.65 1.75-0.936l0.099-0.040z"></path>
<path fill="#2f2e41" style="fill: var(--color2, #2f2e41)" d="M17.766 26.524c-0.168 0.396-0.617 0.95-0.925 1.366 0.171 0.092 0.374 0.147 0.59 0.148h0c0.709 0 1.18-0.669 0.543-1.306z"></path>
<path fill="#2f2e41" style="fill: var(--color2, #2f2e41)" d="M6.33 13.509l-3.898-1.172-2.072 7.974 3.845 1.022 2.125-7.824z"></path>
<path fill="#2f2e41" style="fill: var(--color2, #2f2e41)" d="M23.875 22.833c-0.634-0.7-4.89-4.884-5.646-5.639-1.287 0.963-2.979 2.306-4.611 2.306-1.234 0-2.293-0.729-2.575-1.772-0.044-0.151-0.069-0.324-0.069-0.503 0-0.686 0.372-1.285 0.924-1.606l0.009-0.005c0.929-0.542 1.545-1.284 2.296-2.213-2.295-1.449-4.25 0.906-6.737 0.928l-1.666 6.128c0.776 0.178 1.428 0.376 2.060 0.614l-0.11-0.036 0.576-0.779c1.036-1.414 3.198-1.121 3.861 0.459 0.841 0.078 1.541 0.61 1.858 1.346l0.006 0.015c0.84 0.078 1.539 0.611 1.853 1.347l0.006 0.015c1.142 0.098 2.032 1.049 2.032 2.208 0 0.132-0.011 0.261-0.034 0.386l0.002-0.013 0.856 0.856c0.167 0.167 0.398 0.27 0.653 0.27 0.511 0 0.925-0.414 0.925-0.925 0-0.256-0.104-0.488-0.272-0.656l-0-0-1.654-1.656c-0.042-0.042-0.068-0.099-0.068-0.163 0-0.065 0.027-0.125 0.071-0.166l0-0c0.042-0.040 0.099-0.065 0.162-0.065s0.12 0.025 0.162 0.065l1.993 1.994c0.167 0.167 0.398 0.27 0.653 0.27 0.51 0 0.923-0.413 0.923-0.923 0-0.255-0.103-0.486-0.271-0.653l-2.454-2.453c-0.042-0.042-0.068-0.1-0.068-0.163 0-0.128 0.103-0.231 0.231-0.231 0.064 0 0.121 0.026 0.163 0.067v0l2.648 2.652c0.168 0.169 0.4 0.273 0.656 0.273 0.511 0 0.925-0.414 0.925-0.925 0-0.255-0.103-0.485-0.269-0.653l0 0z"></path>
</symbol>
<symbol id="icon-broadband" viewBox="0 0 32 32">
<title>broadband</title>
<path fill="none" stroke="#2f2e41" style="stroke: var(--color2, #2f2e41)" stroke-linejoin="miter" stroke-linecap="butt" stroke-miterlimit="10" stroke-width="0.6669" d="M2.149 18.431h27.794c0.86 0 1.556 0.697 1.556 1.556v8.224c0 0.86-0.697 1.556-1.556 1.556h-27.794c-0.86 0-1.556-0.697-1.556-1.556v-8.224c0-0.86 0.697-1.556 1.556-1.556z"></path>
<path fill="#00bcb4" style="fill: var(--color1, #00bcb4)" d="M2.831 19.376h26.414c0.688 0 1.246 0.558 1.246 1.246v7.052c0 0.688-0.558 1.246-1.246 1.246h-26.414c-0.688 0-1.246-0.558-1.246-1.246v-7.053c0-0.688 0.558-1.246 1.246-1.246z"></path>
<path fill="#fff" style="fill: var(--color3, #fff)" d="M7.064 21.838c1.212 0.197 2.035 1.339 1.838 2.551s-1.339 2.035-2.551 1.838c-1.212-0.197-2.035-1.339-1.838-2.551s1.339-2.035 2.551-1.838z"></path>
<path fill="#fff" style="fill: var(--color3, #fff)" d="M13.411 22.897c0.627 0.387 0.821 1.209 0.433 1.836s-1.209 0.821-1.836 0.433c-0.627-0.387-0.821-1.209-0.433-1.836s1.209-0.821 1.836-0.433z"></path>
<path fill="#fff" style="fill: var(--color3, #fff)" d="M17.473 23.011c0.626 0.39 0.817 1.214 0.427 1.841s-1.214 0.817-1.841 0.427c-0.626-0.39-0.817-1.214-0.427-1.841s1.214-0.817 1.841-0.427z"></path>
<path fill="#fff" style="fill: var(--color3, #fff)" d="M23.157 22.808h3.334c0.614 0 1.111 0.498 1.111 1.111v0.223c0 0.614-0.498 1.111-1.111 1.111h-3.334c-0.614 0-1.111-0.498-1.111-1.111v-0.223c0-0.614 0.498-1.111 1.111-1.111z"></path>
<path fill="#2f2e41" style="fill: var(--color2, #2f2e41)" d="M24.974 6.635c0-0.002 0-0.004 0-0.006 0-0.576-0.467-1.044-1.044-1.044s-1.044 0.467-1.044 1.044c0 0.47 0.311 0.868 0.739 0.998l0.007 0.002v10.933h0.596v-10.933c0.433-0.131 0.744-0.526 0.745-0.994v-0z"></path>
<path fill="#2f2e41" style="fill: var(--color2, #2f2e41)" d="M21.916 5.817c0.295-0.845 1.085-1.439 2.014-1.439s1.719 0.595 2.009 1.425l0.005 0.015h0.403c-0.311-1.061-1.275-1.823-2.417-1.823s-2.106 0.762-2.412 1.805l-0.004 0.018z"></path>
<path fill="#2f2e41" style="fill: var(--color2, #2f2e41)" d="M20.735 5.15c0.411-1.402 1.686-2.408 3.195-2.408s2.784 1.006 3.189 2.384l0.006 0.024h0.396c-0.421-1.618-1.869-2.793-3.592-2.793s-3.17 1.175-3.586 2.768l-0.006 0.026z"></path>
</symbol>
<symbol id="icon-dth" viewBox="0 0 32 32">
<title>dth</title>
<path fill="#2f2e41" style="fill: var(--color2, #2f2e41)" d="M10.693 30.224v-10.774h-3.045v10.774h-2.459v1.406h7.964v-1.406h-2.459z"></path>
<path fill="#00bcb4" style="fill: var(--color1, #00bcb4); stroke: var(--color2, #2f2e41)" stroke="#2f2e41" stroke-linejoin="miter" stroke-linecap="butt" stroke-miterlimit="10" stroke-width="0.6663" d="M7.758 0.495c-0.026 0.025-0.052 0.048-0.077 0.074-5.813 5.813-5.813 15.237 0 21.049s15.237 5.813 21.049 0c0.026-0.026 0.049-0.052 0.074-0.078z"></path>
<path fill="#2f2e41" style="fill: var(--color2, #2f2e41)" d="M26.183 4.708c0.343-0.343 0.313-0.93-0.066-1.309s-0.967-0.409-1.313-0.066c-0.281 0.281-0.308 0.724-0.101 1.084l-6.511 6.513 0.393 0.393 6.513-6.51c0.36 0.203 0.804 0.176 1.084-0.104z"></path>
<path fill="#2f2e41" style="fill: var(--color2, #2f2e41)" d="M23.982 2.692c0.348-0.291 0.8-0.467 1.293-0.467 1.117 0 2.023 0.905 2.023 2.022 0 0.493-0.176 0.945-0.47 1.296l0.003-0.003 0.26 0.261c0.358-0.415 0.576-0.96 0.576-1.556 0-1.319-1.069-2.389-2.389-2.389-0.596 0-1.14 0.218-1.559 0.579l0.003-0.003z"></path>
</symbol>
<symbol id="icon-electricity" viewBox="0 0 32 32">
<title>electricity</title>
<path fill="#00bcb4" style="fill: var(--color1, #00bcb4)" stroke-linejoin="miter" stroke-linecap="butt" stroke-miterlimit="10" stroke-width="0.785" stroke="#000" d="M24.829 13.266c0 1.217-0.301 2.384-0.75 3.521-0.4 1.026-1.266 1.819-1.927 2.703-0.684 0.913-1.168 1.938-1.579 2.972-0.432 1.087-0.84 2.171-1.107 3.305-0.177 0.756-0.282 1.481-0.282 2.144h-6.585c-0.007-0.653-0.078-1.285-0.207-1.896l0.011 0.063c-0.367-1.866-1.043-3.799-1.98-5.491-0.263-0.474-0.532-0.878-0.829-1.261l0.016 0.022c-0.671-0.866-1.431-1.616-1.827-2.631-0.438-1.125-0.744-2.241-0.744-3.449 0.001-4.772 3.982-8.641 8.896-8.641s8.896 3.869 8.896 8.641z"></path>
<path fill="#2f2e41" style="fill: var(--color2, #2f2e41)" stroke-linejoin="miter" stroke-linecap="butt" stroke-miterlimit="10" stroke-width="0.7625" stroke="#000" d="M18.237 28.135v3.166c0 0.047-0.038 0.085-0.085 0.085v0h-4.417c0 0 0 0 0 0-0.047 0-0.084-0.038-0.084-0.084 0-0 0-0 0-0.001v0-3.25h4.5c0 0 0.001 0 0.001 0 0.047 0 0.084 0.037 0.085 0.084v0z"></path>
<path fill="#000" style="fill: var(--color4, #000)" stroke-linejoin="miter" stroke-linecap="round" stroke-miterlimit="10" stroke-width="0.5231" stroke="#000" d="M13.527 30.294h-0.785"></path>
<path fill="#000" style="fill: var(--color4, #000)" stroke-linejoin="miter" stroke-linecap="round" stroke-miterlimit="10" stroke-width="0.5231" stroke="#000" d="M19.124 30.189h-0.785"></path>
<path stroke-linejoin="miter" stroke-linecap="round" stroke-miterlimit="10" stroke-width="0.5231" d="M15.969 27.909v-8.634"></path>
<path stroke-linejoin="miter" stroke-linecap="round" stroke-miterlimit="10" stroke-width="0.5231" d="M13.699 17.183l2.27 2.093 2.27-2.093"></path>
<path stroke-linejoin="miter" stroke-linecap="round" stroke-miterlimit="10" stroke-width="0.5231" d="M2.983 10.318l-1.42-0.669"></path>
<path stroke-linejoin="miter" stroke-linecap="round" stroke-miterlimit="10" stroke-width="0.5231" d="M7.89 4.527l-0.893-1.291"></path>
<path stroke-linejoin="miter" stroke-linecap="round" stroke-miterlimit="10" stroke-width="0.5231" d="M28.961 10.092l1.414-0.682"></path>
<path stroke-linejoin="miter" stroke-linecap="round" stroke-miterlimit="10" stroke-width="0.5231" d="M24.454 4.734l0.914-1.277"></path>
<path stroke-linejoin="miter" stroke-linecap="round" stroke-miterlimit="10" stroke-width="0.5231" d="M15.964 2.007v-1.57"></path>
</symbol>
<symbol id="icon-offer" viewBox="0 0 32 32">
<title>offer</title>
<path fill="#00bcb4" style="fill: var(--color1, #00bcb4); stroke: var(--color2, #2f2e41)" stroke="#2f2e41" stroke-linejoin="miter" stroke-linecap="butt" stroke-miterlimit="10" stroke-width="0.6206" d="M20.439 2.593l7.081 5.145 2.705 8.324-2.705 8.324-7.081 5.144h-8.752l-7.081-5.144-2.705-8.324 2.705-8.324 7.081-5.145h8.752z"></path>
<path fill="#fff" style="fill: var(--color3, #fff)" d="M10.744 12.584c0-2.026 1.13-3.176 2.708-3.176s2.708 1.149 2.708 3.176-1.13 3.234-2.708 3.234-2.708-1.207-2.708-3.234zM10.763 20.571l3.563-3.663 0.643 0.584-3.25 3.955zM14.951 12.584c0-1.559-0.662-2.201-1.5-2.201s-1.5 0.643-1.5 2.201c0 1.519 0.662 2.26 1.5 2.26s1.501-0.741 1.501-2.26zM15.964 19.071c0-2.026 1.13-3.176 2.708-3.176s2.708 1.149 2.708 3.176-1.13 3.234-2.707 3.234-2.708-1.207-2.708-3.234zM17.151 13.869l3.253-3.955 0.955 0.875-3.566 3.662zM20.171 19.071c0-1.559-0.663-2.201-1.5-2.201s-1.5 0.642-1.5 2.201c0 1.519 0.663 2.26 1.5 2.26s1.503-0.741 1.503-2.26z"></path>
</symbol>
<symbol id="icon-output_fastag" viewBox="0 0 32 32">
<title>output_fastag</title>
<path fill="#00bcb4" style="fill: var(--color1, #00bcb4); stroke: var(--color2, #2f2e41)" stroke="#2f2e41" stroke-linejoin="miter" stroke-linecap="butt" stroke-miterlimit="10" stroke-width="0.7037" d="M3.628 29.013h-2.816v2.346h18.066v-2.346h-2.581"></path>
<path fill="#00bcb4" style="fill: var(--color1, #00bcb4); stroke: var(--color2, #2f2e41)" stroke="#2f2e41" stroke-linejoin="miter" stroke-linecap="butt" stroke-miterlimit="10" stroke-width="0.7037" d="M3.589 5.552h12.708v23.461h-12.708v-23.461z"></path>
<path fill="#00bcb4" style="fill: var(--color1, #00bcb4); stroke: var(--color2, #2f2e41)" stroke="#2f2e41" stroke-linejoin="miter" stroke-linecap="round" stroke-miterlimit="10" stroke-width="0.7169" d="M3.393 5.552l6.569-4.927 6.569 4.927"></path>
<path fill="none" stroke="#2f2e41" style="stroke: var(--color2, #2f2e41)" stroke-linejoin="miter" stroke-linecap="butt" stroke-miterlimit="10" stroke-width="0.4694" d="M16.297 19.081l13.608-9.072 1.407 1.877-15.016 9.893v-2.698z"></path>
<path fill="#2f2e41" style="fill: var(--color2, #2f2e41)" d="M18.607 17.541l-0.584 3.101 1.2-0.791 0.698-3.186-1.313 0.875z"></path>
<path fill="#2f2e41" style="fill: var(--color2, #2f2e41)" d="M21.892 15.43l-0.585 3.101 1.2-0.791 0.698-3.186-1.313 0.876z"></path>
<path fill="#2f2e41" style="fill: var(--color2, #2f2e41)" d="M25.176 13.318l-0.584 3.101 1.2-0.79 0.698-3.186-1.313 0.875z"></path>
<path fill="#2f2e41" style="fill: var(--color2, #2f2e41)" d="M28.461 10.972l-0.585 3.102 1.2-0.791 0.698-3.186-1.313 0.875z"></path>
<path fill="#fff" style="fill: var(--color3, #fff)" d="M7.213 8.836h5.5c0.166 0 0.3 0.134 0.3 0.3v5.5c0 0.166-0.134 0.3-0.3 0.3h-5.5c-0.166 0-0.3-0.134-0.3-0.3v-5.5c0-0.166 0.134-0.3 0.3-0.3z"></path>
</symbol>
<symbol id="icon-postpaid" viewBox="0 0 32 32">
<title>postpaid</title>
<path fill="#00bcb4" style="fill: var(--color1, #00bcb4); stroke: var(--color2, #2f2e41)" stroke="#2f2e41" stroke-linejoin="miter" stroke-linecap="butt" stroke-miterlimit="10" stroke-width="0.6787" d="M7.486 0.636h12.902c1.125 0 2.037 0.912 2.037 2.037v26.709c0 1.125-0.912 2.037-2.037 2.037h-12.902c-1.125 0-2.037-0.912-2.037-2.037v-26.709c0-1.125 0.912-2.037 2.037-2.037z"></path>
<path fill="#00bcb4" style="fill: var(--color1, #00bcb4); stroke: var(--color2, #2f2e41)" stroke="#2f2e41" stroke-linejoin="miter" stroke-linecap="butt" stroke-miterlimit="10" stroke-width="0.6787" d="M25.221 6.537l-1.561-0.898-1.561 0.898-1.561-0.898-1.561 0.898-1.589-0.914h-0.070l-1.589 0.914-1.588-0.914h-0.061v19.013h0.061l1.588-0.914 1.589 0.914h0.070l1.589-0.914 1.561 0.898 1.561-0.898 1.561 0.898 1.561-0.898 1.473 0.848v-18.881l-1.473 0.848z"></path>
<path fill="#fff" style="fill: var(--color3, #fff)" d="M23.895 11.172h-7.016v0.641h3.801c0.217 0.365 0.346 0.804 0.346 1.274 0 0.001 0 0.001 0 0.002v-0c-0.001 0.113-0.009 0.224-0.024 0.332l0.002-0.013h-3.486v0.638h3.321c-0.389 0.942-1.3 1.593-2.364 1.594h-0v0.005l-0.446 0.446 3.375 3.375h0.902l-3.241-3.247c1.165-0.227 2.092-1.062 2.447-2.154l0.006-0.023h1.745v-0.638h-1.615c0.011-0.098 0.017-0.213 0.017-0.328 0-0.458-0.098-0.894-0.275-1.286l0.008 0.020h2.5z"></path>
<path fill="#2f2e41" style="fill: var(--color2, #2f2e41)" d="M11.528 2.344c-0.406-0-0.735-0.329-0.736-0.736v-0.821h6.289v0.821c-0 0.406-0.329 0.735-0.736 0.736h-0z"></path>
<path fill="#2f2e41" style="fill: var(--color2, #2f2e41)" d="M16.912 0.958v0.651c-0 0.311-0.252 0.564-0.562 0.566h-4.821c-0.311-0-0.564-0.252-0.566-0.562v-0.654h5.95zM17.25 0.618h-6.625v0.99c0 0.5 0.405 0.906 0.906 0.906v0h4.818c0.498-0.002 0.901-0.406 0.901-0.905 0-0 0-0 0-0.001v0-0.99z"></path>
<path fill="#fff" style="fill: var(--color3, #fff)" d="M14.342 1.566c0 0.224-0.182 0.406-0.406 0.406s-0.406-0.182-0.406-0.406c0-0.224 0.182-0.406 0.406-0.406 0 0 0 0 0.001 0h-0c0.224 0.001 0.405 0.182 0.405 0.406v0z"></path>
<path fill="#fff" style="fill: var(--color3, #fff)" d="M15.807 1.599c0 0.001 0 0.002 0 0.002 0 0.16-0.13 0.289-0.289 0.289s-0.289-0.13-0.289-0.289c0-0.16 0.13-0.289 0.289-0.289v0c0 0 0 0 0 0 0.159 0 0.288 0.128 0.289 0.287v0z"></path>
<path fill="#2f2e41" style="fill: var(--color2, #2f2e41)" d="M14.876 28.809c0 0.518-0.42 0.939-0.939 0.939s-0.939-0.42-0.939-0.939c0-0.518 0.42-0.939 0.939-0.939s0.939 0.42 0.939 0.939z"></path>
</symbol>
<symbol id="icon-recharge" viewBox="0 0 32 32">
<title>recharge</title>
<path fill="#00bcb4" style="fill: var(--color1, #00bcb4); stroke: var(--color2, #2f2e41)" stroke="#2f2e41" stroke-linejoin="miter" stroke-linecap="butt" stroke-miterlimit="10" stroke-width="0.6787" d="M9.611 0.608h12.903c1.125 0 2.037 0.912 2.037 2.037v26.709c0 1.125-0.912 2.037-2.037 2.037h-12.902c-1.125 0-2.037-0.912-2.037-2.037v-26.709c0-1.125 0.912-2.037 2.037-2.037z"></path>
<path fill="#2f2e41" style="fill: var(--color2, #2f2e41)" d="M18.471 2.486h-4.817c-0.499-0.001-0.904-0.406-0.904-0.906 0 0 0 0 0 0v0-0.99h6.625v0.99c0 0 0 0 0 0 0 0.499-0.404 0.905-0.904 0.906h-0z"></path>
<path fill="#fff" style="fill: var(--color3, #fff)" d="M16.468 1.538c0 0.224-0.181 0.406-0.405 0.406s-0.405-0.182-0.405-0.406c0-0.224 0.181-0.406 0.405-0.406s0.405 0.182 0.405 0.406z"></path>
<path fill="#fff" style="fill: var(--color3, #fff)" d="M17.933 1.571c-0 0.16-0.13 0.289-0.289 0.289s-0.289-0.13-0.289-0.289 0.13-0.289 0.289-0.289v0c0 0 0 0 0 0 0.16 0 0.289 0.13 0.289 0.289 0 0 0 0 0 0.001v-0z"></path>
<path fill="#2f2e41" style="fill: var(--color2, #2f2e41)" d="M16.063 10.681c2.938 0 5.319 2.382 5.319 5.319s-2.382 5.319-5.319 5.319c-2.938 0-5.319-2.382-5.319-5.319v0c0.004-2.936 2.383-5.316 5.319-5.319h0zM16.063 10.228c-3.188 0-5.772 2.584-5.772 5.772s2.584 5.772 5.772 5.772c3.188 0 5.772-2.584 5.772-5.772v0c0-3.188-2.584-5.772-5.772-5.772v0z"></path>
<path fill="#fff" style="fill: var(--color3, #fff)" d="M18.529 14.967l-2.736 4.331c-0.034 0.068-0.102 0.114-0.182 0.114-0 0-0 0-0.001 0h0c-0.003 0-0.007 0.001-0.010 0.001-0.023 0-0.043-0.009-0.058-0.023l0 0c-0.083-0.036-0.14-0.117-0.14-0.212 0-0.014 0.001-0.027 0.003-0.040l-0 0.001 0.387-2.918h-2.006c-0 0-0.001 0-0.001 0-0.086 0-0.161-0.045-0.204-0.113l-0.001-0.001c-0.015-0.028-0.023-0.061-0.023-0.096 0-0.050 0.018-0.096 0.047-0.132l-0 0 2.279-3.192c0.041-0.061 0.11-0.1 0.188-0.1 0.022 0 0.043 0.003 0.064 0.009l-0.002-0c0.091 0.026 0.157 0.107 0.16 0.205v1.824h2.051c0 0 0.001 0 0.001 0 0.086 0 0.161 0.045 0.204 0.113l0.001 0.001c0.010 0.027 0.015 0.057 0.015 0.089 0 0.051-0.014 0.099-0.039 0.14l0.001-0.001z"></path>
<path fill="#2f2e41" style="fill: var(--color2, #2f2e41)" d="M17.001 28.781c0 0.518-0.42 0.939-0.939 0.939s-0.939-0.42-0.939-0.939c0-0.518 0.42-0.939 0.939-0.939s0.939 0.42 0.939 0.939z"></path>
</symbol>
<symbol id="icon-telephone" viewBox="0 0 32 32">
<title>telephone</title>
<path fill="#00bcb4" style="fill: var(--color1, #00bcb4)" d="M2.417 6.667h27.292c0.44 0 0.797 0.357 0.797 0.797v23.244c0 0.44-0.357 0.797-0.797 0.797h-27.292c-0.44 0-0.797-0.357-0.797-0.797v-23.244c0-0.44 0.357-0.797 0.797-0.797z"></path>
<path fill="#2f2e41" style="fill: var(--color2, #2f2e41)" d="M29.708 6.943c0.288 0 0.521 0.233 0.521 0.521v23.244c-0.001 0.287-0.234 0.52-0.521 0.521h-27.291c-0.288-0-0.521-0.233-0.521-0.521v-23.244c0.001-0.287 0.234-0.52 0.521-0.521h27.291zM29.708 6.391h-27.291c-0 0-0 0-0.001 0-0.592 0-1.073 0.48-1.073 1.072v0 23.244c0 0.592 0.48 1.073 1.073 1.073 0 0 0 0 0.001 0h27.291c0 0 0 0 0.001 0 0.592 0 1.073-0.48 1.073-1.073v0-23.244c0-0.592-0.48-1.072-1.073-1.072-0 0-0 0-0.001 0h0z"></path>
<path fill="#fff" style="fill: var(--color3, #fff)" d="M15.898 9.242h11.001c0.671 0 1.215 0.544 1.215 1.215v2.906c0 0.671-0.544 1.215-1.215 1.215h-11.001c-0.671 0-1.215-0.544-1.215-1.215v-2.906c0-0.671 0.544-1.215 1.215-1.215z"></path>
<path fill="#2f2e41" style="fill: var(--color2, #2f2e41)" d="M26.899 9.335c0.621 0 1.125 0.504 1.125 1.125v0 2.906c0 0.621-0.504 1.125-1.125 1.125v0h-11c-0.621 0-1.125-0.504-1.125-1.125v0-2.906c0-0.621 0.504-1.125 1.125-1.125v0h11zM26.899 9.148h-11c-0.722 0-1.307 0.585-1.307 1.307v0 2.906c0 0.722 0.585 1.307 1.307 1.307h11c0.722 0 1.307-0.585 1.307-1.307v0-2.906c0-0.722-0.585-1.307-1.307-1.307v0z"></path>
<path fill="#000" style="fill: var(--color4, #000); stroke: var(--color2, #2f2e41)" stroke="#2f2e41" stroke-linejoin="miter" stroke-linecap="round" stroke-miterlimit="10" stroke-width="0.7362" d="M25.538 6.483v-5.796"></path>
<path fill="#2f2e41" style="fill: var(--color2, #2f2e41)" d="M7.968 9.901c2.134 0 3.864 1.73 3.864 3.864v11.239c0 2.134-1.73 3.864-3.864 3.864s-3.864-1.73-3.864-3.864v-11.239c0-2.134 1.73-3.864 3.864-3.864z"></path>
<path fill="#2f2e41" style="fill: var(--color2, #2f2e41)" d="M24.558 21.656h2.071c0.104 0 0.189 0.084 0.189 0.189v2.071c0 0.104-0.084 0.189-0.189 0.189h-2.071c-0.104 0-0.189-0.084-0.189-0.189v-2.071c0-0.104 0.084-0.189 0.189-0.189z"></path>
<path fill="#2f2e41" style="fill: var(--color2, #2f2e41)" d="M20.477 21.656h2.071c0.104 0 0.189 0.084 0.189 0.189v2.071c0 0.104-0.084 0.189-0.189 0.189h-2.071c-0.104 0-0.189-0.084-0.189-0.189v-2.071c0-0.104 0.084-0.189 0.189-0.189z"></path>
<path fill="#2f2e41" style="fill: var(--color2, #2f2e41)" d="M16.397 21.656h2.071c0.104 0 0.189 0.084 0.189 0.189v2.071c0 0.104-0.084 0.189-0.189 0.189h-2.071c-0.104 0-0.189-0.084-0.189-0.189v-2.071c0-0.104 0.084-0.189 0.189-0.189z"></path>
<path fill="#2f2e41" style="fill: var(--color2, #2f2e41)" d="M24.558 17.576h2.071c0.104 0 0.189 0.084 0.189 0.189v2.071c0 0.104-0.084 0.189-0.189 0.189h-2.071c-0.104 0-0.189-0.084-0.189-0.189v-2.071c0-0.104 0.084-0.189 0.189-0.189z"></path>
<path fill="#2f2e41" style="fill: var(--color2, #2f2e41)" d="M20.477 17.576h2.071c0.104 0 0.189 0.084 0.189 0.189v2.071c0 0.104-0.084 0.189-0.189 0.189h-2.071c-0.104 0-0.189-0.084-0.189-0.189v-2.071c0-0.104 0.084-0.189 0.189-0.189z"></path>
<path fill="#2f2e41" style="fill: var(--color2, #2f2e41)" d="M16.397 17.576h2.071c0.104 0 0.189 0.084 0.189 0.189v2.071c0 0.104-0.084 0.189-0.189 0.189h-2.071c-0.104 0-0.189-0.084-0.189-0.189v-2.071c0-0.104 0.084-0.189 0.189-0.189z"></path>
<path fill="#2f2e41" style="fill: var(--color2, #2f2e41)" d="M24.558 25.737h2.071c0.104 0 0.189 0.084 0.189 0.189v2.071c0 0.104-0.084 0.189-0.189 0.189h-2.071c-0.104 0-0.189-0.084-0.189-0.189v-2.071c0-0.104 0.084-0.189 0.189-0.189z"></path>
<path fill="#2f2e41" style="fill: var(--color2, #2f2e41)" d="M20.477 25.737h2.071c0.104 0 0.189 0.084 0.189 0.189v2.071c0 0.104-0.084 0.189-0.189 0.189h-2.071c-0.104 0-0.189-0.084-0.189-0.189v-2.071c0-0.104 0.084-0.189 0.189-0.189z"></path>
<path fill="#2f2e41" style="fill: var(--color2, #2f2e41)" d="M16.397 25.737h2.071c0.104 0 0.189 0.084 0.189 0.189v2.071c0 0.104-0.084 0.189-0.189 0.189h-2.071c-0.104 0-0.189-0.084-0.189-0.189v-2.071c0-0.104 0.084-0.189 0.189-0.189z"></path>
</symbol>
<symbol id="icon-user1" viewBox="0 0 32 32">
<title>user1</title>
<path fill="none" stroke="#000" style="stroke: var(--color4, #000)" stroke-linejoin="miter" stroke-linecap="butt" stroke-miterlimit="10" stroke-width="1.6381" d="M15.883 8.009c2.94 0 5.323 2.383 5.323 5.323s-2.383 5.323-5.323 5.323c-2.94 0-5.323-2.383-5.323-5.323s2.383-5.323 5.323-5.323z"></path>
<path d="M13.836 23.569v-2.116c0.003-1 0.813-1.81 1.812-1.813h0.465c1 0.003 1.81 0.813 1.813 1.812v2.117h1.638v-2.116c-0.002-1.904-1.544-3.448-3.448-3.453h-0.465c-1.906 0.003-3.451 1.547-3.453 3.453v2.117z"></path>
<path fill="none" stroke="#000" style="stroke: var(--color4, #000)" stroke-linejoin="miter" stroke-linecap="butt" stroke-miterlimit="10" stroke-width="1.6381" d="M29.969 15.789c0 7.78-6.307 14.086-14.086 14.086s-14.086-6.307-14.086-14.086c0-7.78 6.307-14.086 14.086-14.086s14.086 6.307 14.086 14.086z"></path>
</symbol>
<symbol id="icon-arrow-down" viewBox="0 0 32 32">
<title>arrow-down</title>
<path d="M16 18.381l7.938-7.944c0.587-0.588 1.538-0.588 2.119 0s0.581 1.537 0 2.125l-8.994 9c-0.569 0.569-1.481 0.581-2.069 0.044l-9.056-9.037c-0.294-0.294-0.438-0.681-0.438-1.063s0.144-0.769 0.438-1.063c0.588-0.588 1.537-0.588 2.119 0l7.944 7.938z"></path>
</symbol>
<symbol id="icon-arrow-right-circle" viewBox="0 0 32 32">
<title>arrow-right-circle</title>
<path d="M30.667 16c0-4.049-1.643-7.719-4.296-10.371s-6.321-4.296-10.371-4.296-7.719 1.643-10.371 4.296-4.296 6.321-4.296 10.371 1.643 7.719 4.296 10.371 6.321 4.296 10.371 4.296 7.719-1.643 10.371-4.296 4.296-6.321 4.296-10.371zM28 16c0 3.315-1.341 6.312-3.515 8.485s-5.171 3.515-8.485 3.515-6.312-1.341-8.485-3.515-3.515-5.171-3.515-8.485 1.341-6.312 3.515-8.485 5.171-3.515 8.485-3.515 6.312 1.341 8.485 3.515 3.515 5.171 3.515 8.485zM10.667 17.333h7.448l-3.057 3.057c-0.521 0.521-0.521 1.365 0 1.885s1.365 0.521 1.885 0l5.333-5.333c0.123-0.123 0.221-0.269 0.289-0.432 0.135-0.327 0.135-0.695 0-1.021-0.065-0.157-0.161-0.304-0.289-0.432l-5.333-5.333c-0.521-0.521-1.365-0.521-1.885 0s-0.521 1.365 0 1.885l3.057 3.057h-7.448c-0.736 0-1.333 0.597-1.333 1.333s0.597 1.333 1.333 1.333z"></path>
</symbol>
<symbol id="icon-arrow-round-back" viewBox="0 0 32 32">
<title>arrow-round-back</title>
<path d="M13.525 10.231c0.319 0.313 0.319 0.831 0.006 1.15l-3.794 3.806h14.456c0.444 0 0.806 0.363 0.806 0.813s-0.363 0.813-0.806 0.813h-14.456l3.8 3.806c0.313 0.319 0.306 0.831-0.006 1.15-0.319 0.313-0.825 0.313-1.144-0.006l-5.15-5.188c-0.069-0.075-0.125-0.156-0.169-0.256s-0.063-0.206-0.063-0.313c0-0.213 0.081-0.412 0.231-0.569l5.15-5.188c0.306-0.325 0.819-0.331 1.137-0.019z"></path>
</symbol>
<symbol id="icon-arrow-round-forward" viewBox="0 0 32 32">
<title>arrow-round-forward</title>
<path d="M18.475 10.231c-0.319 0.313-0.319 0.831-0.006 1.15l3.8 3.806h-14.463c-0.444 0-0.806 0.363-0.806 0.813s0.362 0.813 0.806 0.813h14.456l-3.8 3.806c-0.313 0.319-0.306 0.831 0.006 1.15 0.319 0.313 0.825 0.313 1.144-0.006l5.15-5.188c0.069-0.075 0.125-0.156 0.169-0.256s0.063-0.206 0.063-0.313c0-0.213-0.081-0.412-0.231-0.569l-5.15-5.188c-0.306-0.325-0.819-0.331-1.137-0.019z"></path>
</symbol>
<symbol id="icon-at-symbol" viewBox="0 0 32 32">
<title>at-symbol</title>
<path d="M21.76 21.552c-1.456 1.525-3.506 2.472-5.776 2.472-4.41 0-7.984-3.574-7.984-7.984 0-0.014 0-0.029 0-0.042v0.002c0-4.418 3.582-8 8-8 1.81 0 3.48 0.602 4.821 1.614l-0.021-0.014v-1.6h3.2v10.4c0 1.325 1.075 2.4 2.4 2.4s2.4-1.075 2.4-2.4v0-2.4c-0.005-7.066-5.734-12.79-12.8-12.79-7.069 0-12.8 5.731-12.8 12.8s5.731 12.8 12.8 12.8c2.088 0 4.059-0.499 5.8-1.387l-0.072 0.034 1.44 2.864c-2.088 1.069-4.555 1.696-7.168 1.696-8.837 0-16-7.163-16-16s7.163-16 16-16c8.83 0 15.99 7.155 16 15.984v0.002h-0.016v2.4c0 0.005 0 0.011 0 0.016 0 3.093-2.507 5.6-5.6 5.6-1.923 0-3.619-0.97-4.627-2.445l-0.013-0.019zM16 20.8c2.651 0 4.8-2.149 4.8-4.8s-2.149-4.8-4.8-4.8v0c-2.651 0-4.8 2.149-4.8 4.8s2.149 4.8 4.8 4.8v0z"></path>
</symbol>
<symbol id="icon-back-in-time" viewBox="0 0 32 32">
<title>back-in-time</title>
<path d="M17.6 2.878c-7.112 0-12.898 5.699-13.070 12.794v0.328h-3.795l5.75 6.23 5.59-6.23h-4.275v-0.328c0.171-5.285 4.493-9.512 9.8-9.512 5.418 0 9.81 4.406 9.81 9.84s-4.392 9.84-9.81 9.84c-2.171 0-4.178-0.712-5.803-1.909l-2.25 2.406c2.221 1.741 5.016 2.781 8.053 2.781 7.224 0 13.078-5.872 13.078-13.118s-5.854-13.122-13.078-13.122zM16 8v8c0 0.208 0.043 0.416 0.123 0.611s0.198 0.373 0.346 0.52l5.12 5.12c0.453-0.293 0.88-0.622 1.259-1.005l-3.648-3.646v-9.6h-3.2z"></path>
</symbol>
<symbol id="icon-card" viewBox="0 0 32 32">
<title>card</title>
<path d="M30 8c0-1.1-0.9-2-2-2h-24c-1.1 0-2 0.9-2 2v3h28v-3zM2 24c0 1.1 0.9 2 2 2h24c1.1 0 2-0.9 2-2v-10h-28v10zM10.875 21h10.25c0.481 0 0.875 0.394 0.875 0.875s-0.394 0.875-0.875 0.875h-10.25c-0.481 0-0.875-0.394-0.875-0.875s0.394-0.875 0.875-0.875zM6.375 21h0.75c0.481 0 0.875 0.394 0.875 0.875s-0.394 0.875-0.875 0.875h-0.75c-0.481 0-0.875-0.394-0.875-0.875s0.394-0.875 0.875-0.875z"></path>
</symbol>
<symbol id="icon-check" viewBox="0 0 32 32">
<title>check</title>
<path d="M13.27 27.197c-0.696 0-1.355-0.325-1.778-0.885l-5.717-7.554c-0.744-0.981-0.55-2.378 0.432-3.122 0.984-0.747 2.381-0.55 3.125 0.432l3.762 4.966 9.458-15.187c0.651-1.043 2.027-1.363 3.074-0.712s1.366 2.026 0.714 3.072l-11.174 17.936c-0.387 0.626-1.058 1.016-1.792 1.050-0.035 0.003-0.067 0.003-0.102 0.003z"></path>
</symbol>
<symbol id="icon-checkmark" viewBox="0 0 32 32">
<title>checkmark</title>
<path d="M22.663 12.056l-1.1-1.131c-0.044-0.050-0.113-0.075-0.175-0.075-0.069 0-0.131 0.025-0.175 0.075l-7.625 7.681-2.775-2.775c-0.050-0.050-0.113-0.075-0.175-0.075s-0.125 0.025-0.175 0.075l-1.113 1.112c-0.1 0.1-0.1 0.256 0 0.356l3.5 3.5c0.225 0.225 0.5 0.356 0.731 0.356 0.331 0 0.619-0.244 0.725-0.344h0.006l8.356-8.4c0.087-0.106 0.087-0.262-0.006-0.356z"></path>
</symbol>
<symbol id="icon-cheveron-outline-down" viewBox="0 0 32 32">
<title>cheveron-outline-down</title>
<path d="M32 16c0 8.837-7.163 16-16 16s-16-7.163-16-16v0c0-8.837 7.163-16 16-16s16 7.163 16 16v0zM16 3.2c-7.069 0-12.8 5.731-12.8 12.8s5.731 12.8 12.8 12.8v0c7.069 0 12.8-5.731 12.8-12.8s-5.731-12.8-12.8-12.8v0zM14.88 20.064l-5.68-5.664 2.256-2.256 4.544 4.496 4.528-4.512 2.256 2.272-6.784 6.784-1.12-1.12z"></path>
</symbol>
<symbol id="icon-cheveron-outline-right" viewBox="0 0 32 32">
<title>cheveron-outline-right</title>
<path d="M16 0c8.837 0 16 7.163 16 16s-7.163 16-16 16v0c-8.837 0-16-7.163-16-16s7.163-16 16-16v0zM3.2 16c0 7.069 5.731 12.8 12.8 12.8s12.8-5.731 12.8-12.8v0c0-7.069-5.731-12.8-12.8-12.8s-12.8 5.731-12.8 12.8v0zM20.064 17.12l-5.664 5.68-2.256-2.256 4.496-4.544-4.48-4.528 2.24-2.256 6.784 6.784-1.12 1.12z"></path>
</symbol>
<symbol id="icon-cheveron-outline-up" viewBox="0 0 32 32">
<title>cheveron-outline-up</title>
<path d="M0 16c0-8.837 7.163-16 16-16s16 7.163 16 16v0c0 8.837-7.163 16-16 16s-16-7.163-16-16v0zM16 28.8c7.069 0 12.8-5.731 12.8-12.8s-5.731-12.8-12.8-12.8v0c-7.069 0-12.8 5.731-12.8 12.8s5.731 12.8 12.8 12.8v0zM17.12 11.936l5.68 5.664-2.256 2.256-4.544-4.496-4.528 4.48-2.256-2.24 6.784-6.784 1.12 1.12z"></path>
</symbol>
<symbol id="icon-chevron-down" viewBox="0 0 32 32">
<title>chevron-down</title>
<path d="M7.226 12.077c0.698-0.714 1.669-0.77 2.522 0l6.253 5.995 6.253-5.995c0.853-0.77 1.826-0.714 2.518 0 0.698 0.712 0.653 1.915 0 2.584-0.65 0.669-7.512 7.203-7.512 7.203-0.347 0.357-0.803 0.536-1.259 0.536s-0.912-0.179-1.262-0.536c0 0-6.859-6.534-7.512-7.203s-0.698-1.872 0-2.584z"></path>
</symbol>
<symbol id="icon-chevrons-down" viewBox="0 0 32 32">
<title>chevrons-down</title>
<path d="M8.391 18.276l6.667 6.667c0.521 0.521 1.365 0.521 1.885 0l6.667-6.667c0.521-0.521 0.521-1.365 0-1.885s-1.365-0.521-1.885 0l-5.724 5.724-5.724-5.724c-0.521-0.521-1.365-0.521-1.885 0s-0.521 1.365 0 1.885zM8.391 8.943l6.667 6.667c0.521 0.521 1.365 0.521 1.885 0l6.667-6.667c0.521-0.521 0.521-1.365 0-1.885s-1.365-0.521-1.885 0l-5.724 5.724-5.724-5.724c-0.521-0.521-1.365-0.521-1.885 0s-0.521 1.365 0 1.885z"></path>
</symbol>
<symbol id="icon-chevron-small-down" viewBox="0 0 32 32">
<title>chevron-small-down</title>
<path d="M21.469 12.574c0.434-0.429 1.134-0.429 1.565 0s0.435 1.122 0 1.55l-6.253 6.128c-0.432 0.429-1.131 0.429-1.566 0l-6.253-6.128c-0.432-0.427-0.432-1.122 0-1.55s1.134-0.429 1.565 0l5.474 5.026 5.469-5.026z"></path>
</symbol>
<symbol id="icon-chevron-small-up" viewBox="0 0 32 32">
<title>chevron-small-up</title>
<path d="M10.531 19.426c-0.434 0.429-1.134 0.429-1.565 0s-0.435-1.122 0-1.55l6.253-6.128c0.432-0.429 1.131-0.429 1.566 0l6.253 6.128c0.432 0.427 0.432 1.122 0 1.55s-1.134 0.429-1.566 0l-5.472-5.026-5.469 5.026z"></path>
</symbol>
<symbol id="icon-chevrons-up" viewBox="0 0 32 32">
<title>chevrons-up</title>
<path d="M23.609 13.724l-6.667-6.667c-0.521-0.521-1.365-0.521-1.885 0l-6.667 6.667c-0.521 0.521-0.521 1.365 0 1.885s1.365 0.521 1.885 0l5.724-5.724 5.724 5.724c0.521 0.521 1.365 0.521 1.885 0s0.521-1.365 0-1.885zM23.609 23.057l-6.667-6.667c-0.521-0.521-1.365-0.521-1.885 0l-6.667 6.667c-0.521 0.521-0.521 1.365 0 1.885s1.365 0.521 1.885 0l5.724-5.724 5.724 5.724c0.521 0.521 1.365 0.521 1.885 0s0.521-1.365 0-1.885z"></path>
</symbol>
<symbol id="icon-chevron-up" viewBox="0 0 32 32">
<title>chevron-up</title>
<path d="M24.774 19.923c-0.698 0.714-1.669 0.77-2.522 0l-6.253-5.995-6.253 5.995c-0.853 0.77-1.826 0.714-2.518 0-0.698-0.712-0.653-1.915 0-2.584 0.65-0.669 7.512-7.203 7.512-7.203 0.347-0.357 0.803-0.536 1.259-0.536s0.912 0.179 1.262 0.536c0 0 6.859 6.534 7.512 7.203s0.698 1.872 0 2.584z"></path>
</symbol>
<symbol id="icon-clock" viewBox="0 0 32 32">
<title>clock</title>
<path d="M16 0c-8.837 0-16 7.164-16 16s7.163 16 16 16 16-7.164 16-16c0-8.836-7.163-16-16-16zM16 28c-6.627 0-12-5.373-12-12s5.373-12 12-12 12 5.373 12 12-5.373 12-12 12zM23 14h-5v-7c0-0.552-0.447-1-1-1h-2c-0.553 0-1 0.448-1 1v10c0 0.553 0.447 1 1 1h8c0.553 0 1-0.447 1-1v-2c0-0.553-0.447-1-1-1z"></path>
</symbol>
<symbol id="icon-close" viewBox="0 0 32 32">
<title>close</title>
<path d="M17.413 16l4.262-4.262c0.387-0.387 0.387-1.025 0-1.412s-1.025-0.387-1.413 0l-4.262 4.263-4.262-4.262c-0.387-0.387-1.025-0.387-1.412 0-0.194 0.194-0.294 0.45-0.294 0.706s0.1 0.512 0.294 0.706l4.263 4.262-4.262 4.262c-0.194 0.194-0.294 0.45-0.294 0.706s0.1 0.512 0.294 0.706c0.387 0.387 1.025 0.387 1.412 0l4.263-4.262 4.262 4.262c0.387 0.387 1.025 0.387 1.413 0s0.387-1.025 0-1.413l-4.262-4.262z"></path>
</symbol>
<symbol id="icon-closed-lock" viewBox="0 0 32 32">
<title>closed-lock</title>
<path d="M23.173 13.312v-6.859c0-3.558-2.7-6.452-6.018-6.452h-2.31c-3.319 0-6.018 2.894-6.018 6.452v6.859c-2.031 1.974-3.301 4.773-3.301 7.873 0 5.964 4.699 10.815 10.474 10.815s10.474-4.852 10.474-10.815c0-3.1-1.27-5.899-3.301-7.873zM10.827 11.78v-5.328c0-2.455 1.803-4.452 4.018-4.452h2.31c2.216 0 4.018 1.997 4.018 4.452v5.328c-0.273-0.16-0.553-0.306-0.838-0.44-0.010-0.005-0.020-0.010-0.030-0.015-0.040-0.019-0.080-0.036-0.12-0.054-0.060-0.027-0.119-0.053-0.18-0.079-0.028-0.012-0.056-0.024-0.085-0.036-0.089-0.037-0.179-0.073-0.269-0.108-0.002-0.001-0.004-0.002-0.006-0.002-0.923-0.355-1.907-0.579-2.931-0.65-0.024-0.002-0.047-0.003-0.071-0.005-0.082-0.005-0.164-0.009-0.247-0.012-0.027-0.001-0.054-0.002-0.081-0.003-0.105-0.003-0.209-0.005-0.315-0.005s-0.21 0.002-0.315 0.005c-0.027 0.001-0.054 0.002-0.081 0.003-0.082 0.003-0.165 0.007-0.247 0.012-0.024 0.002-0.047 0.003-0.071 0.005-1.024 0.072-2.008 0.295-2.931 0.65-0.002 0.001-0.004 0.002-0.006 0.002-0.090 0.035-0.18 0.071-0.269 0.108-0.028 0.012-0.056 0.024-0.085 0.036-0.060 0.026-0.12 0.052-0.18 0.079-0.040 0.018-0.080 0.036-0.12 0.054-0.010 0.005-0.020 0.010-0.030 0.015-0.285 0.134-0.565 0.28-0.838 0.44zM16 30c-4.673 0-8.474-3.954-8.474-8.815 0-3.295 1.748-6.174 4.329-7.686 0.040-0.023 0.080-0.047 0.121-0.070 0.044-0.025 0.089-0.049 0.133-0.073 0.078-0.042 0.157-0.084 0.237-0.123 0.025-0.013 0.051-0.025 0.076-0.037 0.883-0.428 1.834-0.697 2.812-0.789 0.008-0.001 0.017-0.002 0.026-0.002 0.116-0.011 0.232-0.019 0.348-0.024 0.014-0.001 0.027-0.001 0.041-0.002 0.117-0.005 0.234-0.008 0.351-0.008s0.235 0.003 0.352 0.008c0.014 0.001 0.027 0.001 0.041 0.002 0.116 0.006 0.233 0.014 0.348 0.024 0.009 0.001 0.017 0.002 0.026 0.002 0.978 0.092 1.929 0.361 2.812 0.789 0.025 0.012 0.051 0.024 0.076 0.037 0.080 0.040 0.158 0.081 0.237 0.123 0.045 0.024 0.089 0.048 0.134 0.073 0.041 0.023 0.081 0.046 0.121 0.070 2.581 1.512 4.329 4.391 4.329 7.686 0 4.861-3.802 8.815-8.474 8.815z"></path>
<path d="M18.95 19.556c0-1.627-1.323-2.951-2.95-2.951s-2.95 1.324-2.95 2.951c0 0.832 0.345 1.606 0.934 2.156l-0.707 3.173c-0.016 0.072-0.024 0.144-0.024 0.218 0 0.867 0.849 1.52 1.974 1.52h1.547c1.125 0 1.974-0.654 1.974-1.52 0-0.073-0.008-0.146-0.024-0.218l-0.708-3.173c0.589-0.55 0.934-1.324 0.934-2.156zM15.384 24.623l0.616-2.762 0.616 2.762h-1.232zM16.436 20.401c-0.194 0.101-0.344 0.259-0.436 0.445-0.092-0.186-0.242-0.345-0.436-0.445-0.317-0.165-0.514-0.489-0.514-0.845 0-0.524 0.426-0.951 0.95-0.951s0.951 0.427 0.951 0.951c0 0.356-0.197 0.68-0.514 0.845z"></path>
</symbol>
<symbol id="icon-close-outline" viewBox="0 0 32 32">
<title>close-outline</title>
<path d="M4.688 27.312c-3.014-2.914-4.885-6.992-4.885-11.509 0-8.837 7.163-16 16-16 4.517 0 8.595 1.87 11.504 4.88l0.005 0.005c2.779 2.874 4.491 6.795 4.491 11.115 0 8.837-7.163 16-16 16-4.32 0-8.242-1.712-11.12-4.496l0.005 0.005zM6.944 25.056c2.318 2.318 5.52 3.75 9.056 3.75 7.074 0 12.806-5.734 12.806-12.806 0-3.536-1.434-6.738-3.75-9.056v0c-2.318-2.318-5.52-3.75-9.056-3.75-7.074 0-12.806 5.734-12.806 12.806 0 3.536 1.434 6.738 3.75 9.056v0zM22.784 11.472l-4.528 4.528 4.528 4.528-2.256 2.256-4.528-4.528-4.528 4.528-2.256-2.256 4.528-4.528-4.528-4.528 2.256-2.256 4.528 4.528 4.528-4.528 2.256 2.256z"></path>
</symbol>
<symbol id="icon-compose" viewBox="0 0 32 32">
<title>compose</title>
<path d="M3.2 6.4v22.4h22.4v-9.6l3.2-3.2v16h-28.8v-28.8h16l-3.2 3.2h-9.6zM19.68 5.92l6.4 6.4-13.28 13.28h-6.4v-6.4l13.28-13.28zM21.92 3.68l3.68-3.68 6.4 6.4-3.68 3.68-6.4-6.4z"></path>
</symbol>
<symbol id="icon-controller-record" viewBox="0 0 32 32">
<title>controller-record</title>
<path d="M16 4.8c-6.186 0-11.2 5.013-11.2 11.2 0 6.184 5.014 11.2 11.2 11.2s11.2-5.016 11.2-11.2c0-6.187-5.014-11.2-11.2-11.2z"></path>
</symbol>
<symbol id="icon-credit-card" viewBox="0 0 32 32">
<title>credit-card</title>
<path d="M29 4h-26c-1.65 0-3 1.35-3 3v18c0 1.65 1.35 3 3 3h26c1.65 0 3-1.35 3-3v-18c0-1.65-1.35-3-3-3zM3 6h26c0.542 0 1 0.458 1 1v3h-28v-3c0-0.542 0.458-1 1-1zM29 26h-26c-0.542 0-1-0.458-1-1v-9h28v9c0 0.542-0.458 1-1 1zM4 20h2v4h-2zM8 20h2v4h-2zM12 20h2v4h-2z"></path>
</symbol>
<symbol id="icon-credit-card1" viewBox="0 0 32 32">
<title>credit-card1</title>
<path d="M28.8 9.6v-3.2h-25.6v3.2h25.6zM28.8 16h-25.6v9.6h25.6v-9.6zM0 6.4c0-1.76 1.44-3.2 3.2-3.2h25.6c1.768 0 3.2 1.432 3.2 3.2v0 19.2c0 1.768-1.432 3.2-3.2 3.2v0h-25.6c-1.768 0-3.2-1.432-3.2-3.2v0-19.2zM6.4 19.2h6.4v3.2h-6.4v-3.2z"></path>
</symbol>
<symbol id="icon-debit-card" viewBox="0 0 32 32">
<title>debit-card</title>
<path d="M30 8c0-1.1-0.9-2-2-2h-24c-1.1 0-2 0.9-2 2v3h28v-3zM2 24c0 1.1 0.9 2 2 2h24c1.1 0 2-0.9 2-2v-10h-28v10zM10.875 21h10.25c0.481 0 0.875 0.394 0.875 0.875s-0.394 0.875-0.875 0.875h-10.25c-0.481 0-0.875-0.394-0.875-0.875s0.394-0.875 0.875-0.875zM6.375 21h0.75c0.481 0 0.875 0.394 0.875 0.875s-0.394 0.875-0.875 0.875h-0.75c-0.481 0-0.875-0.394-0.875-0.875s0.394-0.875 0.875-0.875z"></path>
</symbol>
<symbol id="icon-document" viewBox="0 0 32 32">
<title>document</title>
<path d="M6.4 28.8h19.2v-19.2h-6.4v-6.4h-12.8v25.6zM3.2 30.4v-30.4h19.2l6.4 6.4v25.6h-25.6v-1.6z"></path>
</symbol>
<symbol id="icon-edit" viewBox="0 0 32 32">
<title>edit</title>
<path d="M14.667 4h-9.333c-1.104 0-2.107 0.449-2.828 1.172s-1.172 1.724-1.172 2.828v18.667c0 1.104 0.449 2.107 1.172 2.828s1.724 1.172 2.828 1.172h18.667c1.104 0 2.107-0.449 2.828-1.172s1.172-1.724 1.172-2.828v-9.333c0-0.736-0.597-1.333-1.333-1.333s-1.333 0.597-1.333 1.333v9.333c0 0.368-0.148 0.7-0.391 0.943s-0.575 0.391-0.943 0.391h-18.667c-0.368 0-0.7-0.148-0.943-0.391s-0.391-0.575-0.391-0.943v-18.667c0-0.368 0.148-0.7 0.391-0.943s0.575-0.391 0.943-0.391h9.333c0.736 0 1.333-0.597 1.333-1.333s-0.597-1.333-1.333-1.333zM23.724 2.391l-12.667 12.667c-0.163 0.161-0.289 0.373-0.351 0.62l-1.333 5.333c-0.052 0.2-0.056 0.424 0 0.647 0.179 0.715 0.903 1.149 1.617 0.971l5.333-1.333c0.223-0.055 0.44-0.172 0.62-0.351l12.667-12.667c0.812-0.812 1.219-1.88 1.219-2.943s-0.407-2.131-1.219-2.943-1.881-1.22-2.944-1.22-2.131 0.407-2.943 1.219zM25.609 4.276c0.292-0.292 0.672-0.437 1.057-0.437s0.765 0.145 1.057 0.437 0.437 0.672 0.437 1.057-0.145 0.765-0.437 1.057l-12.405 12.405-2.819 0.705 0.705-2.819z"></path>
</symbol>
<symbol id="icon-edit-3" viewBox="0 0 32 32">
<title>edit-3</title>
<path d="M16 28h12c0.736 0 1.333-0.597 1.333-1.333s-0.597-1.333-1.333-1.333h-12c-0.736 0-1.333 0.597-1.333 1.333s0.597 1.333 1.333 1.333zM21.057 3.724l-16.667 16.667c-0.163 0.161-0.289 0.373-0.351 0.62l-1.333 5.333c-0.052 0.2-0.056 0.424 0 0.647 0.179 0.715 0.903 1.149 1.617 0.971l5.333-1.333c0.223-0.055 0.44-0.172 0.62-0.351l16.667-16.667c0.812-0.812 1.219-1.88 1.219-2.943s-0.407-2.131-1.219-2.943-1.881-1.22-2.944-1.22-2.131 0.407-2.943 1.219zM22.943 5.609c0.292-0.292 0.672-0.437 1.057-0.437s0.765 0.145 1.057 0.437 0.437 0.672 0.437 1.057-0.145 0.765-0.437 1.057l-16.405 16.405-2.82 0.705 0.705-2.82z"></path>
</symbol>
<symbol id="icon-envelope" viewBox="0 0 32 32">
<title>envelope</title>
<path d="M28.8 3.2c1.768 0 3.2 1.432 3.2 3.2v0 19.2c0 1.768-1.432 3.2-3.2 3.2v0h-25.6c-1.768 0-3.2-1.432-3.2-3.2v0-19.2c0-1.76 1.44-3.2 3.2-3.2h25.6zM21.808 17.76l10.192 7.84v-3.2l-8.192-6.24 8.192-6.56v-3.2l-16 12.8-16-12.8v3.2l8.192 6.56-8.192 6.24v3.2l10.192-7.84 5.808 4.64 5.808-4.64z"></path>
</symbol>
<symbol id="icon-facebook" viewBox="0 0 32 32">
<title>facebook</title>
<path d="M19 6h5v-6h-5c-3.86 0-7 3.14-7 7v3h-4v6h4v16h6v-16h5l1-6h-6v-3c0-0.542 0.458-1 1-1z"></path>
</symbol>
<symbol id="icon-files-empty" viewBox="0 0 32 32">
<title>files-empty</title>
<path d="M28.681 11.159c-0.694-0.947-1.662-2.053-2.724-3.116s-2.169-2.030-3.116-2.724c-1.612-1.182-2.393-1.319-2.841-1.319h-11.5c-1.379 0-2.5 1.122-2.5 2.5v23c0 1.378 1.121 2.5 2.5 2.5h19c1.378 0 2.5-1.122 2.5-2.5v-15.5c0-0.448-0.137-1.23-1.319-2.841zM24.543 9.457c0.959 0.959 1.712 1.825 2.268 2.543h-4.811v-4.811c0.718 0.556 1.584 1.309 2.543 2.268v0zM28 29.5c0 0.271-0.229 0.5-0.5 0.5h-19c-0.271 0-0.5-0.229-0.5-0.5v-23c0-0.271 0.229-0.5 0.5-0.5 0 0 11.499 0 11.5 0v7c0 0.552 0.448 1 1 1h7v15.5z"></path>
<path d="M18.841 1.319c-1.612-1.182-2.393-1.319-2.841-1.319h-11.5c-1.378 0-2.5 1.121-2.5 2.5v23c0 1.207 0.86 2.217 2 2.45v-25.45c0-0.271 0.229-0.5 0.5-0.5h15.215c-0.301-0.248-0.595-0.477-0.873-0.681z"></path>
</symbol>
<symbol id="icon-globe" viewBox="0 0 32 32">
<title>globe</title>
<path d="M16 3h-0.044c-3.463 0.013-6.713 1.369-9.162 3.819-2.444 2.456-3.794 5.713-3.794 9.181s1.35 6.725 3.8 9.181c2.444 2.45 5.7 3.806 9.162 3.819h0.044c7.169 0 13-5.831 13-13s-5.837-13-13.006-13zM27.262 15.125h-4.85c-0.056-1.669-0.262-3.262-0.613-4.762 1.069-0.344 2.106-0.781 3.106-1.313 1.375 1.762 2.188 3.85 2.356 6.075zM15.125 15.125h-3.863c0.050-1.531 0.238-2.981 0.55-4.319 1.088 0.244 2.194 0.394 3.313 0.444v3.875zM15.125 16.875v3.869c-1.113 0.050-2.225 0.2-3.313 0.444-0.313-1.337-0.5-2.788-0.55-4.313h3.863zM16.875 16.875h3.831c-0.050 1.525-0.238 2.975-0.55 4.306-1.075-0.244-2.175-0.387-3.281-0.438v-3.869zM16.875 15.125v-3.875c1.113-0.050 2.212-0.2 3.281-0.438 0.313 1.338 0.5 2.781 0.55 4.313h-3.831zM23.712 7.756c-0.769 0.381-1.563 0.706-2.375 0.969-0.444-1.338-1.006-2.494-1.656-3.406 1.5 0.519 2.869 1.35 4.031 2.438zM19.688 9.175c-0.919 0.2-1.863 0.325-2.813 0.375v-4.588c1.063 0.575 2.1 2.119 2.813 4.213zM15.125 4.938v4.606c-0.963-0.050-1.912-0.175-2.844-0.381 0.725-2.112 1.775-3.656 2.844-4.225zM12.275 5.338c-0.644 0.906-1.2 2.056-1.644 3.381-0.8-0.262-1.588-0.588-2.344-0.963 1.15-1.081 2.506-1.906 3.987-2.419zM7.094 9.056c0.988 0.525 2.019 0.963 3.075 1.3-0.356 1.494-0.563 3.094-0.613 4.763h-4.813c0.162-2.213 0.975-4.3 2.35-6.063zM4.737 16.875h4.813c0.056 1.669 0.262 3.269 0.613 4.762-1.056 0.344-2.088 0.781-3.075 1.3-1.369-1.756-2.181-3.844-2.35-6.063zM8.281 24.244c0.756-0.375 1.544-0.7 2.35-0.962 0.444 1.331 1 2.475 1.644 3.387-1.481-0.525-2.838-1.344-3.994-2.425zM12.281 22.831c0.931-0.206 1.887-0.331 2.844-0.381v4.613c-1.075-0.569-2.119-2.119-2.844-4.231zM16.875 27.038v-4.594c0.95 0.050 1.894 0.175 2.813 0.375-0.712 2.1-1.75 3.644-2.813 4.219zM19.688 26.681c0.65-0.913 1.212-2.069 1.656-3.406 0.813 0.262 1.613 0.594 2.375 0.975-1.163 1.081-2.538 1.913-4.031 2.431zM24.906 22.944c-1-0.531-2.038-0.969-3.106-1.313 0.35-1.494 0.556-3.087 0.613-4.756h4.85c-0.169 2.219-0.975 4.306-2.356 6.069z"></path>
</symbol>
<symbol id="icon-hash" viewBox="0 0 28 32">
<title>hash</title>
<path d="M28 12v-4h-5.004l1-8h-4l-1 8h-7.998l1-8h-4l-1 8h-6.998v4h6.498l-0.998 8h-5.5v4h5l-1 8h4l1-8h7.998l-1 8h4.002l1-8h7v-4h-6.5l0.996-8h5.504zM17.498 20h-7.998l0.998-8h7.998l-0.998 8z"></path>
</symbol>
<symbol id="icon-hash1" viewBox="0 0 32 32">
<title>hash1</title>
<path d="M18.955 13.333l-0.592 5.333h-5.317l0.592-5.333zM20.008 3.853l-0.757 6.813h-5.317l0.724-6.52c0.081-0.732-0.447-1.391-1.177-1.472s-1.391 0.447-1.472 1.179l-0.757 6.813h-5.917c-0.736 0-1.333 0.597-1.333 1.333s0.597 1.333 1.333 1.333h5.621l-0.592 5.333h-5.029c-0.736 0-1.333 0.597-1.333 1.333s0.597 1.333 1.333 1.333h4.732l-0.724 6.52c-0.081 0.732 0.447 1.391 1.177 1.472s1.391-0.447 1.472-1.177l0.759-6.815h5.317l-0.724 6.52c-0.081 0.732 0.447 1.391 1.177 1.472s1.391-0.447 1.472-1.177l0.757-6.815h5.917c0.736 0 1.333-0.597 1.333-1.333s-0.597-1.333-1.333-1.333h-5.621l0.592-5.333h5.029c0.736 0 1.333-0.597 1.333-1.333s-0.597-1.333-1.333-1.333h-4.732l0.724-6.52c0.081-0.732-0.447-1.391-1.177-1.472s-1.391 0.447-1.472 1.177z"></path>
</symbol>
<symbol id="icon-help-circle" viewBox="0 0 32 32">
<title>help-circle</title>
<path d="M30.667 16c0-4.049-1.643-7.719-4.296-10.371s-6.321-4.296-10.371-4.296-7.719 1.643-10.371 4.296-4.296 6.321-4.296 10.371 1.643 7.719 4.296 10.371 6.321 4.296 10.371 4.296 7.719-1.643 10.371-4.296 4.296-6.321 4.296-10.371zM28 16c0 3.315-1.341 6.312-3.515 8.485s-5.171 3.515-8.485 3.515-6.312-1.341-8.485-3.515-3.515-5.171-3.515-8.485 1.341-6.312 3.515-8.485 5.171-3.515 8.485-3.515 6.312 1.341 8.485 3.515 3.515 5.171 3.515 8.485zM13.377 12.443c0.244-0.695 0.745-1.224 1.363-1.52s1.343-0.356 2.037-0.111c0.611 0.215 1.092 0.627 1.4 1.145 0.244 0.409 0.38 0.887 0.381 1.383 0 0.207-0.052 0.412-0.156 0.619-0.107 0.213-0.271 0.433-0.491 0.653-0.945 0.945-2.441 1.456-2.441 1.456-0.699 0.233-1.076 0.988-0.843 1.687s0.988 1.076 1.687 0.843c0 0 2.059-0.675 3.484-2.1 0.372-0.372 0.727-0.819 0.991-1.347 0.267-0.533 0.437-1.144 0.437-1.825-0.005-0.975-0.272-1.916-0.756-2.732-0.617-1.037-1.587-1.869-2.807-2.299-1.389-0.488-2.847-0.367-4.076 0.223s-2.237 1.651-2.725 3.040c-0.245 0.695 0.12 1.456 0.815 1.7s1.456-0.121 1.7-0.815zM17.333 22.667c0-0.736-0.597-1.333-1.333-1.333s-1.333 0.597-1.333 1.333 0.597 1.333 1.333 1.333 1.333-0.597 1.333-1.333z"></path>
</symbol>
<symbol id="icon-help-with-circle" viewBox="0 0 32 32">
<title>help-with-circle</title>
<path d="M16 0.64c-8.483 0-15.36 6.877-15.36 15.36s6.877 15.36 15.36 15.36c8.482 0 15.36-6.877 15.36-15.362 0-8.482-6.878-15.358-15.36-15.358zM15.758 24.958h-0.082c-1.251-0.037-2.134-0.96-2.098-2.194 0.035-1.213 0.939-2.094 2.149-2.094l0.074 0.003c1.286 0.037 2.16 0.95 2.123 2.219-0.037 1.216-0.925 2.066-2.166 2.066zM21.024 14.509c-0.294 0.416-0.941 0.938-1.757 1.573l-0.899 0.619c-0.493 0.384-0.79 0.747-0.901 1.101-0.090 0.278-0.131 0.354-0.139 0.922v0.144h-3.432l0.010-0.291c0.043-1.19 0.072-1.894 0.566-2.475 0.776-0.909 2.488-2.013 2.56-2.059 0.246-0.184 0.453-0.394 0.606-0.619 0.36-0.498 0.518-0.888 0.518-1.269 0-0.534-0.157-1.029-0.469-1.466-0.301-0.426-0.872-0.637-1.698-0.637-0.819 0-1.381 0.259-1.715 0.794-0.346 0.546-0.52 1.12-0.52 1.707v0.147h-3.538l0.006-0.154c0.091-2.165 0.866-3.725 2.296-4.635 0.901-0.578 2.022-0.87 3.33-0.87 1.709 0 3.155 0.416 4.291 1.235 1.154 0.83 1.738 2.075 1.738 3.698-0.002 0.907-0.288 1.76-0.854 2.536z"></path>
</symbol>
<symbol id="icon-history1" viewBox="0 0 34 32">
<title>history1</title>
<path d="M20 2c7.732 0 14 6.268 14 14s-6.268 14-14 14v-3c2.938 0 5.701-1.144 7.778-3.222s3.222-4.84 3.222-7.778c0-2.938-1.144-5.701-3.222-7.778s-4.84-3.222-7.778-3.222c-2.938 0-5.701 1.144-7.778 3.222-1.598 1.598-2.643 3.601-3.041 5.778h5.819l-7 8-7-8h5.143c0.971-6.784 6.804-12 13.857-12zM26 14v4h-8v-10h4v6z"></path>
</symbol>
<symbol id="icon-home" viewBox="0 0 32 32">
<title>home</title>
<path d="M29.875 17.6h-2.675v9.6c0 0.712-0.31 1.6-1.6 1.6h-6.4v-9.6h-6.4v9.6h-6.4c-1.29 0-1.6-0.888-1.6-1.6v-9.6h-2.675c-0.957 0-0.752-0.518-0.096-1.197l12.838-12.851c0.312-0.323 0.722-0.483 1.133-0.499 0.411 0.016 0.821 0.174 1.133 0.499l12.837 12.85c0.658 0.68 0.862 1.198-0.094 1.198z"></path>
</symbol>
<symbol id="icon-icon-user" viewBox="0 0 32 32">
<title>icon-user</title>
<path fill="none" stroke="#483896" style="stroke: var(--color5, #483896)" stroke-linejoin="miter" stroke-linecap="butt" stroke-miterlimit="10" stroke-width="1.7585" d="M16 7.648c3.156 0 5.714 2.558 5.714 5.714s-2.558 5.714-5.714 5.714c-3.156 0-5.714-2.558-5.714-5.714s2.558-5.714 5.714-5.714z"></path>
<path fill="#483896" style="fill: var(--color5, #483896)" d="M13.802 24.354v-2.274c0.001-1.075 0.871-1.946 1.945-1.949h0.499c1.076 0.001 1.948 0.873 1.949 1.949v2.274h1.758v-2.274c-0.002-2.046-1.661-3.705-3.707-3.707h-0.499c-2.046 0.002-3.705 1.661-3.707 3.707v2.274z"></path>
<path fill="none" stroke="#483896" style="stroke: var(--color5, #483896)" stroke-linejoin="miter" stroke-linecap="butt" stroke-miterlimit="10" stroke-width="1.7585" d="M31.121 16c0 8.351-6.77 15.121-15.121 15.121s-15.121-6.77-15.121-15.121c0-8.351 6.77-15.121 15.121-15.121s15.121 6.77 15.121 15.121z"></path>
</symbol>
<symbol id="icon-info" viewBox="0 0 32 32">
<title>info</title>
<path d="M14 9.5c0-0.825 0.675-1.5 1.5-1.5h1c0.825 0 1.5 0.675 1.5 1.5v1c0 0.825-0.675 1.5-1.5 1.5h-1c-0.825 0-1.5-0.675-1.5-1.5v-1z"></path>
<path d="M20 24h-8v-2h2v-6h-2v-2h6v8h2z"></path>
<path d="M16 0c-8.837 0-16 7.163-16 16s7.163 16 16 16 16-7.163 16-16-7.163-16-16-16zM16 29c-7.18 0-13-5.82-13-13s5.82-13 13-13 13 5.82 13 13-5.82 13-13 13z"></path>
</symbol>
<symbol id="icon-inr" viewBox="0 0 16 32">
<title>inr</title>
<path d="M16.035 8.393v1.822c0 0.321-0.25 0.571-0.571 0.571h-3c-0.553 3.429-3.178 5.661-7.232 6.143 2.661 2.839 5.501 6.267 8.197 9.571 0.143 0.161 0.178 0.41 0.072 0.607-0.089 0.197-0.286 0.321-0.518 0.321h-3.482c-0.178 0-0.339-0.072-0.447-0.214-2.875-3.447-5.518-6.607-8.893-10.197-0.107-0.107-0.161-0.25-0.161-0.393v-2.267c0-0.304 0.25-0.571 0.571-0.571h2c3.143 0 5.107-1.054 5.625-3h-7.625c-0.321 0-0.571-0.25-0.571-0.571v-1.822c0-0.321 0.25-0.571 0.571-0.571h7.375c-0.679-1.339-2.286-2.018-4.786-2.018h-2.59c-0.321 0-0.571-0.267-0.571-0.571v-2.375c0-0.321 0.25-0.571 0.571-0.571h14.857c0.321 0 0.571 0.25 0.571 0.571v1.822c0 0.321-0.25 0.571-0.571 0.571h-4.161c0.571 0.733 0.946 1.59 1.143 2.571h3.054c0.321 0 0.571 0.25 0.571 0.571z"></path>
</symbol>
<symbol id="icon-ionicons_svg_logo-google" viewBox="0 0 32 32">
<title>ionicons_svg_logo-google</title>
<path d="M28.6 14l-0.131-0.556h-12.094v5.119h7.225c-0.75 3.563-4.231 5.438-7.075 5.438-2.069 0-4.25-0.869-5.694-2.269-1.481-1.438-2.425-3.556-2.425-5.738 0-2.156 0.969-4.313 2.381-5.731 1.406-1.412 3.537-2.213 5.656-2.213 2.425 0 4.163 1.287 4.813 1.875l3.637-3.619c-1.069-0.938-4-3.3-8.569-3.3-3.525 0-6.906 1.35-9.375 3.813-2.438 2.425-3.7 5.931-3.7 9.181s1.194 6.587 3.556 9.031c2.525 2.606 6.1 3.969 9.781 3.969 3.35 0 6.525-1.313 8.787-3.694 2.225-2.344 3.375-5.587 3.375-8.988 0-1.431-0.144-2.281-0.15-2.319z"></path>
</symbol>
<symbol id="icon-ios-wallet" viewBox="0 0 32 32">
<title>ios-wallet</title>
<path d="M25.25 10h-18.5c-2.069 0-3.75 1.681-3.75 3.75v10.5c0 2.069 1.681 3.75 3.75 3.75h18.5c2.069 0 3.75-1.681 3.75-3.75v-10.5c0-2.069-1.681-3.75-3.75-3.75zM21.431 4.063l-14.681 2.869c-1.125 0.25-2.75 1.381-2.75 2.756 0 0 0.938-1.188 3.063-1.188h17.938v-1.281c0-0.787-0.313-1.794-0.869-2.35-0.706-0.706-1.719-1.013-2.7-0.806z"></path>
</symbol>
<symbol id="icon-locked" viewBox="0 0 32 32">
<title>locked</title>
<path d="M16 31c-5.247 0-9.5-4.254-9.5-9.5 0-3.41 1.802-6.391 4.5-8.067v-5.933c0-3.038 2.463-5.5 5.5-5.5s5.5 2.462 5.5 5.5v6.637c2.135 1.742 3.5 4.392 3.5 7.363 0 5.246-4.253 9.5-9.5 9.5zM20 7.5c0-1.933-1.566-3.5-3.5-3.5-1.933 0-3.5 1.567-3.5 3.5v4.991c0.944-0.314 1.95-0.491 3-0.491 1.432 0 2.783 0.325 4 0.892v-5.392zM16 13.5c-4.418 0-8 3.582-8 8s3.582 8 8 8 8-3.582 8-8-3.582-8-8-8zM16 29c-4.143 0-7.5-3.357-7.5-7.5s3.357-7.5 7.5-7.5c4.143 0 7.5 3.357 7.5 7.5s-3.357 7.5-7.5 7.5zM17.5 19.5c0-0.828-0.672-1.5-1.5-1.5s-1.5 0.672-1.5 1.5c0 0.711 0.504 1.277 1.167 1.434l-1.167 4.566h3.062l-1.314-4.551c0.705-0.121 1.252-0.709 1.252-1.449z"></path>
</symbol>
<symbol id="icon-logo-facebook" viewBox="0 0 32 32">
<title>logo-facebook</title>
<path d="M26.675 4h-21.35c-0.731 0-1.325 0.594-1.325 1.325v21.35c0 0.731 0.594 1.325 1.325 1.325h10.675v-9.5h-2.869v-3.5h2.869v-2.588c0-3.1 2.15-4.787 4.919-4.787 1.325 0 2.75 0.1 3.081 0.144v3.237h-2.206c-1.506 0-1.794 0.713-1.794 1.762v2.231h3.587l-0.469 3.5h-3.119v9.5h6.675c0.731 0 1.325-0.594 1.325-1.325v-21.35c0-0.731-0.594-1.325-1.325-1.325z"></path>
</symbol>
<symbol id="icon-logo-google" viewBox="0 0 32 32">
<title>logo-google</title>
<path d="M28.6 14l-0.131-0.556h-12.094v5.119h7.225c-0.75 3.563-4.231 5.438-7.075 5.438-2.069 0-4.25-0.869-5.694-2.269-1.481-1.438-2.425-3.556-2.425-5.738 0-2.156 0.969-4.313 2.381-5.731 1.406-1.412 3.537-2.213 5.656-2.213 2.425 0 4.163 1.287 4.813 1.875l3.637-3.619c-1.069-0.938-4-3.3-8.569-3.3-3.525 0-6.906 1.35-9.375 3.813-2.438 2.425-3.7 5.931-3.7 9.181s1.194 6.587 3.556 9.031c2.525 2.606 6.1 3.969 9.781 3.969 3.35 0 6.525-1.313 8.787-3.694 2.225-2.344 3.375-5.587 3.375-8.988 0-1.431-0.144-2.281-0.15-2.319z"></path>
</symbol>
<symbol id="icon-logo-twitter" viewBox="0 0 32 32">
<title>logo-twitter</title>
<path d="M30.75 6.844c-1.087 0.481-2.25 0.806-3.475 0.956 1.25-0.75 2.212-1.938 2.663-3.35-1.169 0.694-2.462 1.2-3.844 1.469-1.106-1.181-2.681-1.919-4.419-1.919-3.344 0-6.050 2.712-6.050 6.056 0 0.475 0.050 0.938 0.156 1.381-5.031-0.25-9.494-2.662-12.475-6.331-0.519 0.894-0.819 1.938-0.819 3.044 0 2.1 1.075 3.956 2.7 5.044-1-0.025-1.938-0.3-2.75-0.756v0.075c0 2.938 2.088 5.381 4.856 5.937-0.506 0.137-1.044 0.212-1.594 0.212-0.388 0-0.769-0.038-1.138-0.113 0.769 2.406 3.006 4.156 5.656 4.206-2.069 1.625-4.681 2.594-7.519 2.594-0.487 0-0.969-0.031-1.444-0.087 2.669 1.738 5.85 2.738 9.262 2.738 11.144 0 17.231-9.231 17.231-17.238 0-0.262-0.006-0.525-0.019-0.781 1.181-0.856 2.206-1.919 3.019-3.138z"></path>
</symbol>
<symbol id="icon-log-out" viewBox="0 0 32 32">
<title>log-out</title>
<path d="M30.4 16l-9.6-8v4.8h-11.2v6.4h11.2v4.8l9.6-8zM4.8 4.8h12.8v-3.2h-12.8c-1.76 0-3.2 1.44-3.2 3.2v22.4c0 1.76 1.44 3.2 3.2 3.2h12.8v-3.2h-12.8v-22.4z"></path>
</symbol>
<symbol id="icon-logo-whatsapp" viewBox="0 0 32 32">
<title>logo-whatsapp</title>
<path d="M16.254 2c-7.591 0-13.745 6.106-13.745 13.639 0 2.577 0.721 4.987 1.972 7.043l-2.481 7.318 7.61-2.418c1.969 1.080 4.234 1.697 6.644 1.697 7.592 0 13.746-6.107 13.746-13.639s-6.154-13.639-13.746-13.639zM23.089 20.819c-0.323 0.802-1.786 1.533-2.431 1.567s-0.663 0.5-4.178-1.027c-3.514-1.527-5.628-5.24-5.795-5.479s-1.361-1.94-1.297-3.653c0.065-1.713 1.003-2.522 1.338-2.858s0.718-0.397 0.952-0.401c0.277-0.005 0.456-0.008 0.661-0.001s0.512-0.043 0.778 0.665c0.266 0.708 0.903 2.447 0.984 2.624s0.132 0.383 0.006 0.611c-0.126 0.228-0.19 0.371-0.373 0.568s-0.386 0.44-0.55 0.591c-0.182 0.167-0.373 0.348-0.181 0.704s0.853 1.522 1.861 2.484c1.295 1.236 2.412 1.646 2.756 1.832 0.345 0.188 0.55 0.167 0.764-0.058s0.915-0.984 1.162-1.323 0.479-0.273 0.796-0.146c0.317 0.128 2.010 1.035 2.355 1.222s0.575 0.283 0.657 0.431c0.082 0.149 0.056 0.846-0.267 1.647z"></path>
</symbol>
<symbol id="icon-mail" viewBox="0 0 32 32">
<title>mail</title>
<path d="M4 10.561l11.236 7.865c0.453 0.313 1.060 0.328 1.529 0l11.235-7.865v13.439c0 0.363-0.147 0.695-0.393 0.94s-0.577 0.393-0.94 0.393h-21.333c-0.363 0-0.695-0.147-0.94-0.393s-0.393-0.577-0.393-0.94zM1.333 8.016v15.984c0 1.104 0.453 2.105 1.173 2.827s1.723 1.173 2.827 1.173h21.333c1.104 0 2.105-0.453 2.827-1.173s1.173-1.723 1.173-2.827v-15.984c0-0.013 0-0.027 0-0.040-0.007-1.095-0.457-2.087-1.173-2.803-0.721-0.72-1.723-1.173-2.827-1.173h-21.333c-1.104 0-2.105 0.453-2.827 1.173-0.716 0.716-1.167 1.708-1.173 2.804 0 0.007 0 0.015 0 0.023zM27.859 7.405l-11.859 8.3-11.859-8.3c0.064-0.128 0.149-0.244 0.251-0.345 0.247-0.247 0.579-0.393 0.941-0.393h21.333c0.363 0 0.695 0.147 0.94 0.393 0.101 0.101 0.187 0.219 0.251 0.345z"></path>
</symbol>
<symbol id="icon-mail1" viewBox="0 0 32 32">
<title>mail1</title>
<path d="M2.518 8.458c0.781 0.419 11.597 6.23 12 6.446s0.925 0.318 1.45 0.318c0.525 0 1.046-0.102 1.45-0.318s11.219-6.027 12-6.446c0.782-0.421 1.522-2.058 0.086-2.058h-27.070c-1.435 0-0.696 1.637 0.085 2.058zM29.781 11.982c-0.888 0.462-11.819 6.158-12.363 6.443s-0.925 0.318-1.45 0.318-0.906-0.034-1.45-0.318-11.413-5.982-12.301-6.445c-0.624-0.326-0.618 0.056-0.618 0.35s0 11.669 0 11.669c0 0.672 0.906 1.6 1.6 1.6h25.6c0.694 0 1.6-0.928 1.6-1.6 0 0 0-11.373 0-11.667s0.006-0.677-0.619-0.35z"></path>
</symbol>
<symbol id="icon-md-person" viewBox="0 0 32 32">
<title>md-person</title>
<path d="M16 16c3.3 0 6-2.7 6-6s-2.7-6-6-6-6 2.7-6 6 2.7 6 6 6zM16 19c-3.975 0-12 2.025-12 6v3h24v-3c0-3.975-8.025-6-12-6z"></path>
</symbol>
<symbol id="icon-md-planet" viewBox="0 0 32 32">
<title>md-planet</title>
<path d="M8.481 9.438c-0.156 0.188-0.306 0.375-0.45 0.575 2.012 2.269 4.756 4.781 7.762 7.106 2.363 1.825 4.769 3.45 6.963 4.694 0.369 0.206 0.731 0.406 1.081 0.587 0.156-0.188 0.306-0.375 0.45-0.575 0.731-1.006 1.131-2.075 1.456-3.35 0.050-0.2 0.094-0.4 0.131-0.594 0.988-5.188-2.225-10.306-7.406-11.619-2.313-0.588-4.631-0.319-6.644 0.606-1.338 0.619-2.387 1.431-3.344 2.569z"></path>
<path d="M26.137 20.425c-0.256 0.688-0.462 1.094-0.462 1.094 1.137 1.319 1.538 2.119 1.994 2.9 0.15 0.256 0.462 0.819 0.056 0.775-0.106-0.019-0.219-0.044-0.344-0.081-1.331-0.337-3.2-1.169-5.269-2.337-2.238-1.269-4.681-2.919-7.081-4.769-3.194-2.469-6.094-5.144-8.162-7.531-0.956-1.1-1.725-2.137-2.231-2.994-0.15-0.256-0.244-0.394-0.35-0.65-0.156-0.388 0.313-0.319 0.438-0.287 0.931 0.237 2.188 0.619 3.638 1.488 0 0 0.269-0.3 0.869-0.713-1.425-0.963-2.787-1.731-4.075-2.219-1.444-0.55-2.569-0.425-2.969 0.231-0.762 1.244 0.875 4.519 4.081 8.25-1.344 5.375 1.912 10.831 7.281 12.188 2.569 0.65 5.15 0.244 7.3-0.938 2.381 1.1 4.506 1.788 6.056 2.181 1.494 0.381 2.525 0.344 2.925-0.306 0.694-1.137-0.756-3.238-3.694-6.281z"></path>
</symbol>
<symbol id="icon-news-paper" viewBox="0 0 32 32">
<title>news-paper</title>
<path d="M25.6 3.2h6.4v24c0 2.651-2.149 4.8-4.8 4.8v0h-22.4c-2.651 0-4.8-2.149-4.8-4.8v0-27.2h25.6v3.2zM25.6 6.4v20.8c0 0.883 0.717 1.6 1.6 1.6v0c0.883 0 1.6-0.717 1.6-1.6v0-20.8h-3.2zM3.2 3.2v24c0 0.883 0.717 1.6 1.6 1.6v0h17.872c-0.173-0.472-0.272-1.019-0.272-1.587 0-0.005 0-0.010 0-0.013v0-24h-19.2zM6.4 16h12.8v3.2h-12.8v-3.2zM6.4 22.4h12.8v3.2h-12.8v-3.2zM6.4 6.4h12.8v6.4h-12.8v-6.4z"></path>
</symbol>
<symbol id="icon-notification" viewBox="0 0 32 32">
<title>notification</title>
<path d="M16 3c-3.472 0-6.737 1.352-9.192 3.808s-3.808 5.72-3.808 9.192c0 3.472 1.352 6.737 3.808 9.192s5.72 3.808 9.192 3.808c3.472 0 6.737-1.352 9.192-3.808s3.808-5.72 3.808-9.192c0-3.472-1.352-6.737-3.808-9.192s-5.72-3.808-9.192-3.808zM16 0v0c8.837 0 16 7.163 16 16s-7.163 16-16 16c-8.837 0-16-7.163-16-16s7.163-16 16-16zM14 22h4v4h-4zM14 6h4v12h-4z"></path>
</symbol>
<symbol id="icon-page-icon" viewBox="0 0 32 32">
<title>page-icon</title>
<path fill="none" stroke="#483896" style="stroke: var(--color5, #483896)" stroke-linejoin="miter" stroke-linecap="butt" stroke-miterlimit="10" stroke-width="0.9507" d="M31.525 16c0 8.574-6.951 15.525-15.525 15.525s-15.525-6.951-15.525-15.525c0-8.574 6.951-15.525 15.525-15.525s15.525 6.951 15.525 15.525z"></path>
<path fill="none" stroke="#483896" style="stroke: var(--color5, #483896)" stroke-linejoin="miter" stroke-linecap="butt" stroke-miterlimit="10" stroke-width="0.9507" d="M16 6.825h-0.001c3.315 0 6.003 2.688 6.003 6.003v-0.001c0 3.315-2.688 6.003-6.003 6.003h0.001c-3.315 0-6.003-2.688-6.003-6.003v0.001c0-3.315 2.688-6.003 6.003-6.003z"></path>
<path fill="#483896" style="fill: var(--color5, #483896)" d="M12.494 25.175v-2.56c0.002-1.823 1.48-3.3 3.302-3.302h0.408c1.823 0.002 3.3 1.479 3.303 3.302v2.56h0.951v-2.56c-0.005-2.347-1.907-4.248-4.254-4.251h-0.408c-2.348 0.003-4.251 1.905-4.254 4.253v2.56z"></path>
</symbol>
<symbol id="icon-pencil" viewBox="0 0 32 32">
<title>pencil</title>
<path d="M23.504 4.258c-3.030-2.206-5.187-2.158-6.006-2.026-0.23 0.037-0.424 0.17-0.56 0.357l-11.013 15.195c-0.443 0.611-0.699 1.338-0.739 2.091l-0.474 8.998c-0.034 0.648 0.611 1.117 1.216 0.885l8.41-3.216c0.709-0.272 1.325-0.744 1.77-1.358l11.008-15.19c0.142-0.197 0.2-0.437 0.16-0.677-0.134-0.842-0.779-2.883-3.771-5.059zM14.363 24.744l-3.269 1.262c-0.128 0.050-0.27 0.010-0.354-0.099-0.421-0.536-0.922-1.067-1.72-1.648-0.798-0.579-1.458-0.893-2.096-1.13-0.128-0.048-0.21-0.17-0.202-0.307l0.195-3.498 0.878-1.208c0 0 1.966-0.27 4.533 1.597 2.563 1.866 2.914 3.821 2.914 3.821l-0.88 1.21z"></path>
</symbol>
<symbol id="icon-person" viewBox="0 0 32 32">
<title>person</title>
<path d="M16 16c3.3 0 6-2.7 6-6s-2.7-6-6-6-6 2.7-6 6 2.7 6 6 6zM16 19c-3.975 0-12 2.025-12 6v3h24v-3c0-3.975-8.025-6-12-6z"></path>
</symbol>
<symbol id="icon-phone" viewBox="0 0 32 32">
<title>phone</title>
<path d="M32 29.36v1.040c0 0.883-0.717 1.6-1.6 1.6v0h-3.2c-15.022 0-27.2-12.178-27.2-27.2v0-3.2c0-0.883 0.717-1.6 1.6-1.6v0h6.4c0.883 0 1.6 0.717 1.6 1.6v0 6.4c0 0.896-0.496 2.096-1.12 2.72l-3.424 3.424c2.432 5.76 7.040 10.368 12.8 12.8l3.392-3.392c0.64-0.64 1.84-1.136 2.72-1.136h6.432c0.877 0.010 1.584 0.722 1.584 1.6 0 0 0 0 0 0v0 5.36z"></path>
</symbol>
<symbol id="icon-phone1" viewBox="0 0 32 32">
<title>phone1</title>
<path d="M30.667 22.56c0.021-0.952-0.315-1.872-0.897-2.591-0.613-0.755-1.505-1.289-2.567-1.44-1.067-0.131-2.26-0.419-3.448-0.861-0.577-0.212-1.191-0.291-1.792-0.232-0.884 0.085-1.743 0.465-2.425 1.14l-0.96 0.96c-2.36-1.489-4.48-3.556-6.111-6.119l0.968-0.968c0.429-0.44 0.751-0.968 0.943-1.541 0.283-0.843 0.285-1.781-0.052-2.681-0.385-1.004-0.691-2.192-0.859-3.46-0.139-0.953-0.607-1.796-1.284-2.407-0.719-0.647-1.675-1.037-2.703-1.027h-3.995c-0.117 0-0.243 0.005-0.364 0.016-1.099 0.1-2.056 0.637-2.711 1.421s-1.011 1.823-0.911 2.932c0.4 4.101 1.82 8.324 4.288 12.136 2.003 3.217 4.864 6.164 8.397 8.408 3.424 2.263 7.579 3.816 12.115 4.308 0.123 0.012 0.255 0.017 0.384 0.017 1.104-0.004 2.104-0.457 2.824-1.183s1.164-1.729 1.16-2.828zM28 22.56v4c0.001 0.373-0.145 0.707-0.387 0.949s-0.572 0.393-0.941 0.395l-0.117-0.005c-4.080-0.444-7.831-1.851-10.899-3.879-3.237-2.057-5.812-4.717-7.603-7.592-2.263-3.493-3.54-7.308-3.899-10.984-0.032-0.357 0.085-0.701 0.305-0.965s0.537-0.44 0.904-0.473l4.116-0.005c0.361-0.004 0.676 0.125 0.916 0.341 0.227 0.205 0.384 0.488 0.431 0.811 0.189 1.429 0.544 2.823 1.009 4.033 0.108 0.288 0.107 0.596 0.013 0.877-0.065 0.193-0.175 0.375-0.323 0.527l-1.683 1.681c-0.432 0.432-0.505 1.085-0.216 1.601 2.112 3.713 5.119 6.609 8.508 8.504 0.529 0.296 1.176 0.192 1.593-0.221l1.693-1.693c0.221-0.219 0.503-0.343 0.797-0.372 0.203-0.020 0.413 0.007 0.612 0.080 1.363 0.508 2.76 0.848 4.045 1.005 0.321 0.045 0.616 0.221 0.82 0.473 0.196 0.241 0.308 0.549 0.301 0.909z"></path>
</symbol>
<symbol id="icon-planet" viewBox="0 0 32 32">
<title>planet</title>
<path d="M8.481 9.438c-0.156 0.188-0.306 0.375-0.45 0.575 2.012 2.269 4.756 4.781 7.762 7.106 2.363 1.825 4.769 3.45 6.963 4.694 0.369 0.206 0.731 0.406 1.081 0.587 0.156-0.188 0.306-0.375 0.45-0.575 0.731-1.006 1.131-2.075 1.456-3.35 0.050-0.2 0.094-0.4 0.131-0.594 0.988-5.188-2.225-10.306-7.406-11.619-2.313-0.588-4.631-0.319-6.644 0.606-1.338 0.619-2.387 1.431-3.344 2.569z"></path>
<path d="M26.137 20.425c-0.256 0.688-0.462 1.094-0.462 1.094 1.137 1.319 1.538 2.119 1.994 2.9 0.15 0.256 0.462 0.819 0.056 0.775-0.106-0.019-0.219-0.044-0.344-0.081-1.331-0.337-3.2-1.169-5.269-2.337-2.238-1.269-4.681-2.919-7.081-4.769-3.194-2.469-6.094-5.144-8.162-7.531-0.956-1.1-1.725-2.137-2.231-2.994-0.15-0.256-0.244-0.394-0.35-0.65-0.156-0.388 0.313-0.319 0.438-0.287 0.931 0.237 2.188 0.619 3.638 1.488 0 0 0.269-0.3 0.869-0.713-1.425-0.963-2.787-1.731-4.075-2.219-1.444-0.55-2.569-0.425-2.969 0.231-0.762 1.244 0.875 4.519 4.081 8.25-1.344 5.375 1.912 10.831 7.281 12.188 2.569 0.65 5.15 0.244 7.3-0.938 2.381 1.1 4.506 1.788 6.056 2.181 1.494 0.381 2.525 0.344 2.925-0.306 0.694-1.137-0.756-3.238-3.694-6.281z"></path>
</symbol>
<symbol id="icon-power" viewBox="0 0 32 32">
<title>power</title>
<path d="M15.333 24.764c-2.315 0-4.491-0.901-6.128-2.537-1.636-1.637-2.539-3.813-2.539-6.129s0.903-4.492 2.539-6.129c0.521-0.521 1.364-0.521 1.885 0s0.521 1.364 0 1.885c-1.133 1.135-1.757 2.641-1.757 4.244s0.624 3.111 1.757 4.244c1.133 1.133 2.639 1.756 4.243 1.756s3.109-0.624 4.243-1.756c1.135-1.133 1.757-2.64 1.757-4.244s-0.624-3.111-1.757-4.244c-0.521-0.521-0.521-1.364 0-1.885s1.364-0.521 1.885 0c1.636 1.639 2.539 3.815 2.539 6.129s-0.903 4.492-2.539 6.129c-1.637 1.636-3.813 2.537-6.128 2.537z"></path>
<path d="M15.333 14.667c-0.737 0-1.333-0.597-1.333-1.333v-6.667c0-0.736 0.596-1.333 1.333-1.333s1.333 0.597 1.333 1.333v6.667c0 0.736-0.596 1.333-1.333 1.333z"></path>
</symbol>
<symbol id="icon-power-outline" viewBox="0 0 32 32">
<title>power-outline</title>
<path d="M23.347 8.083c-1.085-1.087-2.64-1.4-4.013-0.972v-0.444c0-2.208-1.792-4-4-4s-4 1.792-4 4v0.443c-1.372-0.425-2.927-0.113-4.013 0.973-2.14 2.141-3.32 4.988-3.32 8.015s1.18 5.873 3.32 8.015c2.139 2.14 4.985 3.319 8.013 3.319s5.873-1.179 8.013-3.319c2.14-2.14 3.32-4.987 3.32-8.015s-1.18-5.873-3.32-8.015zM14 6.667c0-0.736 0.596-1.333 1.333-1.333s1.333 0.597 1.333 1.333v6.667c0 0.736-0.596 1.333-1.333 1.333s-1.333-0.597-1.333-1.333v-6.667zM12.667 11.737v1.596c0 1.472 1.195 2.667 2.667 2.667s2.667-1.195 2.667-2.667v-1.576c0.127 0.379 0.331 0.739 0.633 1.040 0.881 0.881 1.367 2.053 1.367 3.3s-0.485 2.419-1.367 3.301c-1.763 1.761-4.836 1.761-6.599 0-0.883-0.883-1.368-2.055-1.368-3.301s0.485-2.419 1.367-3.301c0.308-0.307 0.511-0.672 0.633-1.059zM21.461 22.227c-1.637 1.637-3.812 2.537-6.128 2.537s-4.491-0.901-6.128-2.537c-1.636-1.637-2.539-3.813-2.539-6.129s0.903-4.492 2.539-6.129c0.521-0.521 1.364-0.521 1.885 0s0.521 1.364 0 1.885c-1.133 1.135-1.757 2.641-1.757 4.244s0.624 3.111 1.757 4.244c1.133 1.133 2.639 1.756 4.243 1.756s3.109-0.624 4.243-1.756c1.135-1.133 1.757-2.64 1.757-4.244s-0.624-3.111-1.757-4.244c-0.521-0.521-0.521-1.364 0-1.885s1.364-0.521 1.885 0c1.636 1.639 2.539 3.815 2.539 6.129s-0.903 4.492-2.539 6.129z"></path>
</symbol>
<symbol id="icon-profile" viewBox="0 0 32 32">
<title>profile</title>
<path d="M27 0h-24c-1.65 0-3 1.35-3 3v26c0 1.65 1.35 3 3 3h24c1.65 0 3-1.35 3-3v-26c0-1.65-1.35-3-3-3zM26 28h-22v-24h22v24zM8 18h14v2h-14zM8 22h14v2h-14zM10 9c0-1.657 1.343-3 3-3s3 1.343 3 3c0 1.657-1.343 3-3 3s-3-1.343-3-3zM15 12h-4c-1.65 0-3 0.9-3 2v2h10v-2c0-1.1-1.35-2-3-2z"></path>
</symbol>
<symbol id="icon-question-circle-o" viewBox="0 0 27 32">
<title>question-circle-o</title>
<path d="M15.714 21.429v2.857c0 0.321-0.25 0.571-0.571 0.571h-2.857c-0.321 0-0.571-0.25-0.571-0.571v-2.857c0-0.321 0.25-0.571 0.571-0.571h2.857c0.321 0 0.571 0.25 0.571 0.571zM20.286 12.571c0 2.536-1.768 3.536-3.072 4.267-0.928 0.536-1.501 0.875-1.501 1.447v0.571c0 0.321-0.25 0.571-0.571 0.571h-2.857c-0.321 0-0.571-0.25-0.571-0.571v-1.214c0-2.197 1.571-2.893 2.839-3.464 1.072-0.501 1.733-0.839 1.733-1.642 0-1.035-1.304-1.803-2.482-1.803-0.625 0-1.286 0.197-1.696 0.482-0.393 0.267-0.768 0.661-1.429 1.482-0.107 0.143-0.267 0.214-0.447 0.214-0.125 0-0.25-0.035-0.339-0.107l-1.928-1.464c-0.232-0.178-0.286-0.518-0.125-0.768 1.464-2.304 3.518-3.429 6.232-3.429v0c2.928 0 6.214 2.321 6.214 5.429zM13.714 4.571c-6.304 0-11.429 5.125-11.429 11.429s5.125 11.429 11.429 11.429 11.429-5.125 11.429-11.429-5.125-11.429-11.429-11.429zM27.429 16c0 7.571-6.143 13.714-13.714 13.714s-13.714-6.143-13.714-13.714 6.143-13.714 13.714-13.714v0c7.571 0 13.714 6.143 13.714 13.714z"></path>
</symbol>
<symbol id="icon-sign-out" viewBox="0 0 29 32">
<title>sign-out</title>
<path d="M11.429 25.714c0 0.501 0.232 1.714-0.571 1.714h-5.714c-2.839 0-5.143-2.304-5.143-5.143v-12.571c0-2.839 2.304-5.143 5.143-5.143h5.714c0.304 0 0.571 0.267 0.571 0.571 0 0.501 0.232 1.714-0.571 1.714h-5.714c-1.571 0-2.857 1.286-2.857 2.857v12.571c0 1.571 1.286 2.857 2.857 2.857h5.143c0.447 0 1.143-0.089 1.143 0.571zM28 16c0 0.304-0.125 0.59-0.339 0.803l-9.714 9.714c-0.214 0.214-0.501 0.339-0.803 0.339-0.625 0-1.143-0.518-1.143-1.143v-5.143h-8c-0.625 0-1.143-0.518-1.143-1.143v-6.857c0-0.625 0.518-1.143 1.143-1.143h8v-5.143c0-0.625 0.518-1.143 1.143-1.143 0.304 0 0.59 0.125 0.803 0.339l9.714 9.714c0.214 0.214 0.339 0.501 0.339 0.803z"></path>
</symbol>
<symbol id="icon-spinner2" viewBox="0 0 32 32">
<title>spinner2</title>
<path d="M32 16c-0.040-2.089-0.493-4.172-1.331-6.077-0.834-1.906-2.046-3.633-3.533-5.060-1.486-1.428-3.248-2.557-5.156-3.302-1.906-0.748-3.956-1.105-5.981-1.061-2.025 0.040-4.042 0.48-5.885 1.292-1.845 0.809-3.517 1.983-4.898 3.424s-2.474 3.147-3.193 4.994c-0.722 1.846-1.067 3.829-1.023 5.79 0.040 1.961 0.468 3.911 1.254 5.694 0.784 1.784 1.921 3.401 3.316 4.736s3.046 2.391 4.832 3.085c1.785 0.697 3.701 1.028 5.598 0.985 1.897-0.040 3.78-0.455 5.502-1.216 1.723-0.759 3.285-1.859 4.574-3.208s2.308-2.945 2.977-4.67c0.407-1.046 0.684-2.137 0.829-3.244 0.039 0.002 0.078 0.004 0.118 0.004 1.105 0 2-0.895 2-2 0-0.056-0.003-0.112-0.007-0.167h0.007zM28.822 21.311c-0.733 1.663-1.796 3.169-3.099 4.412s-2.844 2.225-4.508 2.868c-1.663 0.646-3.447 0.952-5.215 0.909-1.769-0.041-3.519-0.429-5.119-1.14-1.602-0.708-3.053-1.734-4.25-2.991s-2.141-2.743-2.76-4.346c-0.621-1.603-0.913-3.319-0.871-5.024 0.041-1.705 0.417-3.388 1.102-4.928 0.683-1.541 1.672-2.937 2.883-4.088s2.642-2.058 4.184-2.652c1.542-0.596 3.192-0.875 4.832-0.833 1.641 0.041 3.257 0.404 4.736 1.064 1.48 0.658 2.82 1.609 3.926 2.774s1.975 2.54 2.543 4.021c0.57 1.481 0.837 3.064 0.794 4.641h0.007c-0.005 0.055-0.007 0.11-0.007 0.167 0 1.032 0.781 1.88 1.784 1.988-0.195 1.088-0.517 2.151-0.962 3.156z"></path>
</symbol>
<symbol id="icon-stand-by" viewBox="0 0 32 32">
<title>stand-by</title>
<path d="M6.656 6.656l2.272 2.272c-2.536 2.067-4.141 5.19-4.141 8.688 0 6.176 5.008 11.184 11.184 11.184 0.010 0 0.021 0 0.030 0h-0.002c6.179-0.010 11.184-5.019 11.184-11.2 0-3.488-1.594-6.603-4.093-8.656l-0.019-0.016 2.272-2.272c3.098 2.658 5.048 6.576 5.048 10.95 0 7.954-6.446 14.4-14.4 14.4s-14.4-6.446-14.4-14.4c0-4.374 1.95-8.293 5.029-10.934l0.019-0.016zM14.4 0h3.2v12.8h-3.2v-12.8z"></path>
</symbol>
<symbol id="icon-stopwatch" viewBox="0 0 32 32">
<title>stopwatch</title>
<path d="M11.802 10.792c-0.715 0.44 1.915 6.787 2.557 7.821 0.56 0.91 1.749 1.187 2.653 0.63 0.909-0.563 1.192-1.75 0.632-2.656-0.635-1.037-5.128-6.237-5.842-5.795zM11.266 3.843c1.485-0.517 3.075-0.803 4.734-0.803s3.25 0.286 4.734 0.803c0.526 0.182 1.224-0.184 0.915-0.978-0.226-0.576-0.443-1.139-0.531-1.368-0.21-0.542-0.96-0.99-1.286-1.064-1.235-0.278-2.515-0.434-3.832-0.434s-2.597 0.155-3.834 0.434c-0.326 0.074-1.075 0.522-1.285 1.064-0.088 0.229-0.307 0.792-0.531 1.368-0.309 0.794 0.389 1.162 0.915 0.978zM30.557 5.098c-0.307-0.368-0.634-0.728-0.981-1.075-0.346-0.347-0.706-0.672-1.072-0.981-0.245-0.206-0.965-0.374-1.421 0.082s-2.637 2.635-2.637 2.635c0.643 0.461 1.269 0.968 1.848 1.546s1.083 1.203 1.546 1.848c0 0 2.181-2.179 2.635-2.635 0.458-0.458 0.29-1.176 0.082-1.419zM16 4.64c-7.16 0-12.962 5.802-12.962 12.96s5.802 12.962 12.962 12.962c7.157 0 12.96-5.802 12.96-12.962 0-7.157-5.803-12.96-12.96-12.96zM16 27.362c-5.389 0-9.76-4.37-9.76-9.76s4.37-9.76 9.76-9.76c5.39 0 9.762 4.37 9.762 9.76s-4.371 9.76-9.762 9.76z"></path>
</symbol>
<symbol id="icon-svg_logo-google" viewBox="0 0 32 32">
<title>svg_logo-google</title>
<path d="M28.6 14l-0.131-0.556h-12.094v5.119h7.225c-0.75 3.563-4.231 5.438-7.075 5.438-2.069 0-4.25-0.869-5.694-2.269-1.481-1.438-2.425-3.556-2.425-5.738 0-2.156 0.969-4.313 2.381-5.731 1.406-1.412 3.537-2.213 5.656-2.213 2.425 0 4.163 1.287 4.813 1.875l3.637-3.619c-1.069-0.938-4-3.3-8.569-3.3-3.525 0-6.906 1.35-9.375 3.813-2.438 2.425-3.7 5.931-3.7 9.181s1.194 6.587 3.556 9.031c2.525 2.606 6.1 3.969 9.781 3.969 3.35 0 6.525-1.313 8.787-3.694 2.225-2.344 3.375-5.587 3.375-8.988 0-1.431-0.144-2.281-0.15-2.319z"></path>
</symbol>
<symbol id="icon-switch" viewBox="0 0 32 32">
<title>switch</title>
<path d="M15.5 31.062c-6.904 0-12.5-5.597-12.5-12.5 0-5.315 3.323-9.844 8-11.651v4.449c-2.399 1.503-4 4.162-4 7.202 0 4.694 3.806 8.5 8.5 8.5s8.5-3.806 8.5-8.5c0-2.596-1.166-4.915-3-6.475v-4.736c4.143 2.036 7 6.284 7 11.212 0 6.903-5.597 12.499-12.5 12.499zM16 17.062c-1.104 0-2-0.896-2-2v-11.124c0-1.104 0.896-2 2-2s2 0.896 2 2v11.125c0 1.104-0.896 1.999-2 1.999z"></path>
</symbol>
<symbol id="icon-switch1" viewBox="0 0 32 32">
<title>switch1</title>
<path d="M20 4.581v4.249c1.131 0.494 2.172 1.2 3.071 2.099 1.889 1.889 2.929 4.4 2.929 7.071s-1.040 5.182-2.929 7.071c-1.889 1.889-4.4 2.929-7.071 2.929s-5.182-1.040-7.071-2.929c-1.889-1.889-2.929-4.4-2.929-7.071s1.040-5.182 2.929-7.071c0.899-0.899 1.94-1.606 3.071-2.099v-4.249c-5.783 1.721-10 7.077-10 13.419 0 7.732 6.268 14 14 14s14-6.268 14-14c0-6.342-4.217-11.698-10-13.419zM14 0h4v16h-4z"></path>
</symbol>
<symbol id="icon-text-document-inverted" viewBox="0 0 32 32">
<title>text-document-inverted</title>
<path d="M25.6 1.6h-19.2c-0.885 0-1.6 0.715-1.6 1.6v25.6c0 0.883 0.715 1.6 1.6 1.6h19.2c0.885 0 1.6-0.717 1.6-1.6v-25.6c0-0.883-0.715-1.6-1.6-1.6zM20.8 24h-9.6v-3.2h9.6v3.2zM20.8 17.6h-9.6v-3.2h9.6v3.2zM20.8 11.2h-9.6v-3.2h9.6v3.2z"></path>
</symbol>
<symbol id="icon-thumbs-down" viewBox="0 0 32 32">
<title>thumbs-down</title>
<path d="M17.6 32c-1.768 0-3.2-1.432-3.2-3.2v0-9.6h-11.2c-1.768 0-3.2-1.432-3.2-3.2v0-3.2l3.68-9.792c0.747-1.71 2.382-2.906 4.307-3.008h12.813c1.768 0 3.2 1.432 3.2 3.2v0 12.8l-4.8 11.2v4.8h-1.6zM27.2 16v-16h4.8v16h-4.8z"></path>
</symbol>
<symbol id="icon-thumbs-up" viewBox="0 0 32 32">
<title>thumbs-up</title>
<path d="M17.6 0h1.6v4.8l4.8 11.2v12.8c0 1.768-1.432 3.2-3.2 3.2v0h-12.8c-1.76 0-3.696-1.344-4.32-3.008l-3.68-9.792v-3.2c0-1.768 1.432-3.2 3.2-3.2v0h11.2v-9.6c0-1.768 1.432-3.2 3.2-3.2v0zM27.2 16h4.8v16h-4.8v-16z"></path>
</symbol>
<symbol id="icon-time-slot" viewBox="0 0 32 32">
<title>time-slot</title>
<path d="M16 0.64c-8.483 0-15.36 6.877-15.36 15.36s6.877 15.36 15.36 15.36c8.482 0 15.36-6.877 15.36-15.362 0-8.482-6.878-15.358-15.36-15.358zM16 28.158c-6.715 0-12.16-5.443-12.16-12.16 0-6.715 5.443-12.16 12.16-12.16v0 12.162l10.867-5.434c0.821 1.637 1.293 3.477 1.293 5.434 0 6.715-5.445 12.158-12.16 12.158z"></path>
</symbol>
<symbol id="icon-twitter" viewBox="0 0 32 32">
<title>twitter</title>
<path d="M32 7.075c-1.175 0.525-2.444 0.875-3.769 1.031 1.356-0.813 2.394-2.1 2.887-3.631-1.269 0.75-2.675 1.3-4.169 1.594-1.2-1.275-2.906-2.069-4.794-2.069-3.625 0-6.563 2.938-6.563 6.563 0 0.512 0.056 1.012 0.169 1.494-5.456-0.275-10.294-2.888-13.531-6.862-0.563 0.969-0.887 2.1-0.887 3.3 0 2.275 1.156 4.287 2.919 5.463-1.075-0.031-2.087-0.331-2.975-0.819 0 0.025 0 0.056 0 0.081 0 3.181 2.263 5.838 5.269 6.437-0.55 0.15-1.131 0.231-1.731 0.231-0.425 0-0.831-0.044-1.237-0.119 0.838 2.606 3.263 4.506 6.131 4.563-2.25 1.762-5.075 2.813-8.156 2.813-0.531 0-1.050-0.031-1.569-0.094 2.913 1.869 6.362 2.95 10.069 2.95 12.075 0 18.681-10.006 18.681-18.681 0-0.287-0.006-0.569-0.019-0.85 1.281-0.919 2.394-2.075 3.275-3.394z"></path>
</symbol>
<symbol id="icon-undraw_no_data_qbuo-2" viewBox="0 0 34 32">
<title>undraw_no_data_qbuo-2</title>
<path fill="#e0e0e0" style="fill: var(--color6, #e0e0e0)" d="M2.833 5.553l17.512-3.757 5.192 24.196-17.512 3.757-5.192-24.196z"></path>
<path fill="#073322" style="fill: var(--color7, #073322)" opacity="0.5" d="M3.217 5.898l16.92-3.63 5.016 23.378-16.92 3.63-5.016-23.378z"></path>
<path fill="#fafafa" style="fill: var(--color8, #fafafa)" d="M3.469 6.024l16.489-3.538 4.905 22.861-16.489 3.538-4.905-22.861z"></path>
<path fill="#0ee1ab" style="fill: var(--color9, #0ee1ab)" d="M7.432 4.137l8.18-1.755 0.425 1.982-8.18 1.755-0.425-1.981z"></path>
<path fill="#abca97" style="fill: var(--color10, #abca97)" d="M11.107 1.324c-0.632 0.136-1.031 0.77-0.892 1.416s0.763 1.061 1.393 0.925 1.031-0.77 0.892-1.416-0.762-1.061-1.393-0.925zM11.503 3.172c-0.048 0.012-0.103 0.019-0.16 0.019-0.382 0-0.691-0.309-0.691-0.691s0.309-0.691 0.691-0.691c0.329 0 0.605 0.23 0.674 0.539l0.001 0.005c0.011 0.046 0.018 0.099 0.018 0.154 0 0.324-0.225 0.595-0.528 0.665l-0.005 0.001z"></path>
<path fill="#009b99" style="fill: var(--color11, #009b99)" d="M7.5 4.034l8.008-1.718 0.406 1.894-8.008 1.718-0.406-1.894z"></path>
<path fill="#009b99" style="fill: var(--color11, #009b99)" d="M11.107 1.324c-0.521 0.115-0.904 0.572-0.904 1.119 0 0.632 0.512 1.145 1.145 1.145s1.145-0.512 1.145-1.145c0-0.085-0.009-0.168-0.027-0.248l0.001 0.008c-0.115-0.521-0.572-0.905-1.119-0.905-0.085 0-0.168 0.009-0.248 0.027l0.008-0.001zM11.486 3.091c-0.042 0.009-0.089 0.015-0.139 0.015-0.365 0-0.661-0.296-0.661-0.661s0.296-0.661 0.661-0.661c0.316 0 0.58 0.222 0.645 0.518l0.001 0.004c0.009 0.042 0.015 0.089 0.015 0.138 0 0.316-0.222 0.58-0.518 0.645l-0.004 0.001z"></path>
<path fill="#e0e0e0" style="fill: var(--color6, #e0e0e0)" d="M10.569 4.791h17.91v24.746h-17.91v-24.746z"></path>
<path fill="#2632d4" style="fill: var(--color12, #2632d4)" opacity="0.5" d="M10.872 5.21h17.305v23.91h-17.305v-23.91z"></path>
<path fill="#fff" style="fill: var(--color3, #fff)" d="M11.092 5.386h16.865v23.382h-16.865v-23.382z"></path>
<path fill="#97571e" style="fill: var(--color13, #97571e)" d="M15.363 4.372h8.366v2.027h-8.366v-2.027z"></path>
<path fill="#7d32e1" style="fill: var(--color14, #7d32e1)" d="M19.546 2.394c-0.646 0-1.17 0.536-1.17 1.198s0.524 1.198 1.17 1.198 1.17-0.536 1.17-1.198-0.524-1.198-1.17-1.198zM19.546 4.282c-0.005 0-0.011 0-0.016 0-0.382 0-0.691-0.309-0.691-0.691s0.309-0.691 0.691-0.691c0.382 0 0.691 0.309 0.691 0.691v0c0 0.001 0 0.003 0 0.005 0 0.374-0.301 0.678-0.674 0.683v0z"></path>
<path fill="#009b99" style="fill: var(--color11, #009b99)" d="M15.451 4.285h8.19v1.937h-8.19v-1.937z"></path>
<path fill="#009b99" style="fill: var(--color11, #009b99)" d="M19.546 2.394c-0.632 0-1.145 0.512-1.145 1.145s0.512 1.145 1.145 1.145c0.632 0 1.145-0.512 1.145-1.145v0c0-0.632-0.512-1.145-1.145-1.145v0zM19.546 4.199c-0.364 0-0.66-0.296-0.66-0.661s0.296-0.661 0.661-0.661c0.364 0 0.66 0.295 0.661 0.659v0c0 0.365-0.296 0.66-0.661 0.66 0 0-0.001 0-0.001 0v0z"></path>
<path fill="#47e6b1" style="fill: var(--color15, #47e6b1)" opacity="0.5" d="M0.626 30.207h0.154v0.874h-0.154v-0.874z"></path>
<path fill="#47e6b1" style="fill: var(--color15, #47e6b1)" opacity="0.5" d="M1.14 30.567v0.154h-0.874v-0.154h0.874z"></path>
<path fill="#47e6b1" style="fill: var(--color15, #47e6b1)" opacity="0.5" d="M18.503 0h0.154v0.874h-0.154v-0.874z"></path>
<path fill="#47e6b1" style="fill: var(--color15, #47e6b1)" opacity="0.5" d="M19.018 0.36v0.154h-0.874v-0.154h0.874z"></path>
<path fill="#4d8af0" style="fill: var(--color16, #4d8af0)" opacity="0.5" d="M31.601 31.662c-0.067-0.030-0.114-0.096-0.114-0.173 0-0.020 0.003-0.039 0.009-0.056v0.001c0.002-0.006 0.003-0.013 0.004-0.021v0c0-0.002 0-0.004 0-0.006 0-0.052-0.042-0.095-0.095-0.095-0.031 0-0.058 0.015-0.075 0.037v0c-0.004 0.005-0.008 0.011-0.010 0.018v0.001c-0.030 0.067-0.096 0.114-0.173 0.114-0.020 0-0.039-0.003-0.056-0.009h0.001c-0.006-0.002-0.013-0.003-0.021-0.004v0c-0.002 0-0.004 0-0.006 0-0.052 0-0.095 0.042-0.095 0.095 0 0.031 0.015 0.058 0.037 0.075v0c0.005 0.004 0.011 0.008 0.018 0.010h0.001c0.067 0.030 0.114 0.096 0.114 0.173 0 0.020-0.003 0.039-0.009 0.056v-0.001c-0.002 0.006-0.003 0.013-0.004 0.021v0c0 0.002 0 0.004 0 0.006 0 0.052 0.042 0.095 0.095 0.095 0.031 0 0.058-0.015 0.075-0.037v0c0.004-0.005 0.008-0.011 0.010-0.018v-0.001c0.030-0.067 0.096-0.114 0.173-0.114 0.020 0 0.039 0.003 0.056 0.009h-0.001c0.006 0.002 0.013 0.003 0.021 0.004v0c0.002 0 0.004 0 0.006 0 0.052 0 0.095-0.042 0.095-0.095 0-0.031-0.015-0.058-0.037-0.075v0c-0.005-0.004-0.011-0.008-0.018-0.010h-0.001z"></path>
<path fill="#fdd835" style="fill: var(--color17, #fdd835)" opacity="0.5" d="M5.601 23.258c-0.067-0.030-0.114-0.096-0.114-0.173 0-0.020 0.003-0.039 0.009-0.056v0.001c0.002-0.006 0.003-0.013 0.004-0.021v0c0-0.002 0-0.004 0-0.006 0-0.052-0.042-0.095-0.095-0.095-0.031 0-0.058 0.015-0.075 0.037v0c-0.004 0.005-0.008 0.011-0.010 0.018v0.001c-0.030 0.067-0.096 0.114-0.173 0.114-0.020 0-0.039-0.003-0.056-0.009h0.001c-0.006-0.002-0.013-0.003-0.021-0.004v0c-0.002 0-0.004 0-0.006 0-0.052 0-0.095 0.042-0.095 0.095 0 0.031 0.015 0.058 0.037 0.075v0c0.005 0.004 0.011 0.008 0.018 0.010h0.001c0.067 0.030 0.114 0.096 0.114 0.173 0 0.020-0.003 0.039-0.009 0.056v-0.001c-0.002 0.006-0.003 0.013-0.004 0.021v0c0 0.002 0 0.004 0 0.006 0 0.052 0.042 0.095 0.095 0.095 0.031 0 0.058-0.015 0.075-0.037v0c0.004-0.005 0.008-0.011 0.010-0.018v-0.001c0.030-0.067 0.096-0.114 0.173-0.114 0.020 0 0.039 0.003 0.056 0.009h-0.001c0.006 0.002 0.013 0.003 0.021 0.004v0c0.002 0 0.004 0 0.006 0 0.052 0 0.095-0.042 0.095-0.095 0-0.031-0.015-0.058-0.037-0.075v0c-0.005-0.004-0.011-0.008-0.018-0.010h-0.001z"></path>
<path fill="#fdd835" style="fill: var(--color17, #fdd835)" opacity="0.5" d="M27.257 2.794c-0.067-0.030-0.114-0.096-0.114-0.173 0-0.020 0.003-0.039 0.009-0.056v0.001c0.002-0.006 0.003-0.013 0.004-0.021v0c0-0.002 0-0.004 0-0.006 0-0.052-0.042-0.095-0.095-0.095-0.031 0-0.058 0.015-0.075 0.037v0c-0.004 0.005-0.008 0.011-0.010 0.018v0.001c-0.030 0.067-0.096 0.114-0.173 0.114-0.020 0-0.039-0.003-0.056-0.009h0.001c-0.006-0.002-0.013-0.003-0.021-0.004v0c-0.002 0-0.004 0-0.006 0-0.052 0-0.095 0.042-0.095 0.095 0 0.031 0.015 0.058 0.037 0.075v0c0.005 0.004 0.011 0.008 0.018 0.010h0.001c0.067 0.030 0.114 0.096 0.114 0.173 0 0.020-0.003 0.039-0.009 0.056v-0.001c-0.002 0.006-0.003 0.013-0.004 0.021v0c0 0.002 0 0.004 0 0.006 0 0.052 0.042 0.095 0.095 0.095 0.031 0 0.058-0.015 0.075-0.037v0c0.004-0.005 0.008-0.011 0.010-0.018v-0.001c0.030-0.067 0.096-0.114 0.173-0.114 0.020 0 0.039 0.003 0.056 0.009h-0.001c0.006 0.002 0.013 0.003 0.021 0.004v0c0.002 0 0.004 0 0.006 0 0.052 0 0.095-0.042 0.095-0.095 0-0.031-0.015-0.058-0.037-0.075v0c-0.005-0.004-0.011-0.008-0.018-0.010h-0.001z"></path>
<path fill="#f55f44" style="fill: var(--color18, #f55f44)" opacity="0.5" d="M33.613 12.888c0 0.17-0.138 0.309-0.309 0.309s-0.309-0.138-0.309-0.309c0-0.17 0.138-0.309 0.309-0.309s0.309 0.138 0.309 0.309z"></path>
<path fill="#f55f44" style="fill: var(--color18, #f55f44)" opacity="0.5" d="M9.765 30.6c0 0.17-0.138 0.309-0.309 0.309s-0.309-0.138-0.309-0.309c0-0.17 0.138-0.309 0.309-0.309s0.309 0.138 0.309 0.309z"></path>
<path fill="#f55f44" style="fill: var(--color18, #f55f44)" opacity="0.5" d="M30.444 19.558c0 0.17-0.138 0.309-0.309 0.309s-0.309-0.138-0.309-0.309c0-0.17 0.138-0.309 0.309-0.309s0.309 0.138 0.309 0.309z"></path>
<path fill="#4d8af0" style="fill: var(--color16, #4d8af0)" opacity="0.5" d="M3.88 3.949c0 0.17-0.138 0.309-0.309 0.309s-0.309-0.138-0.309-0.309c0-0.17 0.138-0.309 0.309-0.309s0.309 0.138 0.309 0.309z"></path>
<path fill="#47e6b1" style="fill: var(--color15, #47e6b1)" opacity="0.5" d="M0.617 12.367c0 0.17-0.138 0.309-0.309 0.309s-0.309-0.138-0.309-0.309c0-0.17 0.138-0.309 0.309-0.309s0.309 0.138 0.309 0.309z"></path>
</symbol>
<symbol id="icon-undraw_post2_19cj" viewBox="0 0 34 32">
<title>undraw_post2_19cj</title>
<path fill="#12db07" style="fill: var(--color19, #12db07)" opacity="0.5" d="M0.186 0h20.797c0.103 0 0.186 0.083 0.186 0.186v31.627c0 0.103-0.083 0.186-0.186 0.186h-20.797c-0.103 0-0.186-0.083-0.186-0.186v-31.627c0-0.103 0.083-0.186 0.186-0.186z"></path>
<path fill="#fff" style="fill: var(--color3, #fff)" d="M0.458 0.235h20.254c0.103 0 0.186 0.083 0.186 0.186v30.98c0 0.103-0.083 0.186-0.186 0.186h-20.254c-0.103 0-0.186-0.083-0.186-0.186v-30.98c0-0.103 0.083-0.186 0.186-0.186z"></path>
<path fill="#009b99" style="fill: var(--color11, #009b99)" d="M2.52 6.011h3.753c0.103 0 0.186 0.083 0.186 0.186v3.34c0 0.103-0.083 0.186-0.186 0.186h-3.753c-0.103 0-0.186-0.083-0.186-0.186v-3.34c0-0.103 0.083-0.186 0.186-0.186z"></path>
<path fill="#e0e0e0" style="fill: var(--color6, #e0e0e0)" d="M7.882 6.011h10.768c0.102 0 0.185 0.083 0.185 0.185v0.042c0 0.102-0.083 0.185-0.185 0.185h-10.768c-0.102 0-0.185-0.083-0.185-0.185v-0.042c0-0.102 0.083-0.185 0.185-0.185z"></path>
<path fill="#e0e0e0" style="fill: var(--color6, #e0e0e0)" d="M7.882 7.248h8.888c0.102 0 0.185 0.083 0.185 0.185v0.042c0 0.102-0.083 0.185-0.185 0.185h-8.888c-0.102 0-0.185-0.083-0.185-0.185v-0.042c0-0.102 0.083-0.185 0.185-0.185z"></path>
<path fill="#009b99" style="fill: var(--color11, #009b99)" d="M2.52 11.786h3.753c0.103 0 0.186 0.083 0.186 0.186v3.34c0 0.103-0.083 0.186-0.186 0.186h-3.753c-0.103 0-0.186-0.083-0.186-0.186v-3.34c0-0.103 0.083-0.186 0.186-0.186z"></path>
<path fill="#e0e0e0" style="fill: var(--color6, #e0e0e0)" d="M7.882 11.786h10.768c0.102 0 0.185 0.083 0.185 0.185v0.042c0 0.102-0.083 0.185-0.185 0.185h-10.768c-0.102 0-0.185-0.083-0.185-0.185v-0.042c0-0.102 0.083-0.185 0.185-0.185z"></path>
<path fill="#e0e0e0" style="fill: var(--color6, #e0e0e0)" d="M7.882 13.023h10.768c0.102 0 0.185 0.083 0.185 0.185v0.042c0 0.102-0.083 0.185-0.185 0.185h-10.768c-0.102 0-0.185-0.083-0.185-0.185v-0.042c0-0.102 0.083-0.185 0.185-0.185z"></path>
<path fill="#009b99" style="fill: var(--color11, #009b99)" d="M2.52 17.561h3.753c0.103 0 0.186 0.083 0.186 0.186v3.34c0 0.103-0.083 0.186-0.186 0.186h-3.753c-0.103 0-0.186-0.083-0.186-0.186v-3.34c0-0.103 0.083-0.186 0.186-0.186z"></path>
<path fill="#e0e0e0" style="fill: var(--color6, #e0e0e0)" d="M7.882 17.561h10.768c0.102 0 0.185 0.083 0.185 0.185v0.042c0 0.102-0.083 0.185-0.185 0.185h-10.768c-0.102 0-0.185-0.083-0.185-0.185v-0.042c0-0.102 0.083-0.185 0.185-0.185z"></path>
<path fill="#e0e0e0" style="fill: var(--color6, #e0e0e0)" d="M7.882 18.799h0.867c0.102 0 0.185 0.083 0.185 0.185v0.042c0 0.102-0.083 0.185-0.185 0.185h-0.867c-0.102 0-0.185-0.083-0.185-0.185v-0.042c0-0.102 0.083-0.185 0.185-0.185z"></path>
<path fill="#9c3606" style="fill: var(--color20, #9c3606)" opacity="0.5" d="M13.36 10.303h20.479c0.103 0 0.186 0.083 0.186 0.186v18.437c0 0.103-0.083 0.186-0.186 0.186h-20.479c-0.103 0-0.186-0.083-0.186-0.186v-18.437c0-0.103 0.083-0.186 0.186-0.186z"></path>
<path fill="#fff" style="fill: var(--color3, #fff)" d="M13.682 10.492h19.87c0.103 0 0.186 0.083 0.186 0.186v17.846c0 0.103-0.083 0.186-0.186 0.186h-19.87c-0.103 0-0.186-0.083-0.186-0.186v-17.846c0-0.103 0.083-0.186 0.186-0.186z"></path>
<path fill="#009b99" style="fill: var(--color11, #009b99)" d="M15.669 14.406h3.977c0.103 0 0.186 0.083 0.186 0.186v3.542c0 0.103-0.083 0.186-0.186 0.186h-3.977c-0.103 0-0.186-0.083-0.186-0.186v-3.542c0-0.103 0.083-0.186 0.186-0.186z"></path>
<path fill="#e0e0e0" style="fill: var(--color6, #e0e0e0)" d="M21.323 14.406h11.371c0.103 0 0.186 0.083 0.186 0.186v0.063c0 0.103-0.083 0.186-0.186 0.186h-11.371c-0.103 0-0.186-0.083-0.186-0.186v-0.063c0-0.103 0.083-0.186 0.186-0.186z"></path>
<path fill="#e0e0e0" style="fill: var(--color6, #e0e0e0)" d="M21.323 15.711h11.371c0.103 0 0.186 0.083 0.186 0.186v0.063c0 0.103-0.083 0.186-0.186 0.186h-11.371c-0.103 0-0.186-0.083-0.186-0.186v-0.063c0-0.103 0.083-0.186 0.186-0.186z"></path>
<path fill="#e0e0e0" style="fill: var(--color6, #e0e0e0)" d="M15.234 20.447h17.46c0.103 0 0.186 0.083 0.186 0.186v0.063c0 0.103-0.083 0.186-0.186 0.186h-17.459c-0.103 0-0.186-0.083-0.186-0.186v-0.063c0-0.103 0.083-0.186 0.186-0.186z"></path>
<path fill="#e0e0e0" style="fill: var(--color6, #e0e0e0)" d="M15.234 21.752h17.46c0.103 0 0.186 0.083 0.186 0.186v0.063c0 0.103-0.083 0.186-0.186 0.186h-17.459c-0.103 0-0.186-0.083-0.186-0.186v-0.063c0-0.103 0.083-0.186 0.186-0.186z"></path>
<path fill="#e0e0e0" style="fill: var(--color6, #e0e0e0)" d="M15.234 23.491h17.46c0.103 0 0.186 0.083 0.186 0.186v0.063c0 0.103-0.083 0.186-0.186 0.186h-17.459c-0.103 0-0.186-0.083-0.186-0.186v-0.063c0-0.103 0.083-0.186 0.186-0.186z"></path>
<path fill="#e0e0e0" style="fill: var(--color6, #e0e0e0)" d="M15.234 24.796h13.11c0.103 0 0.186 0.083 0.186 0.186v0.063c0 0.103-0.083 0.186-0.186 0.186h-13.11c-0.103 0-0.186-0.083-0.186-0.186v-0.063c0-0.103 0.083-0.186 0.186-0.186z"></path>
</symbol>
<symbol id="icon-user11" viewBox="0 0 32 32">
<title>user11</title>
<path d="M8 8c0-4.418 3.582-8 8-8s8 3.582 8 8v0 3.2c0 4.418-3.582 8-8 8s-8-3.582-8-8v0-3.2zM0 26.688c4.576-2.696 10.082-4.288 15.958-4.288 0.014 0 0.029 0 0.043 0h-0.002c5.824 0 11.296 1.552 16 4.288v5.312h-32v-5.312z"></path>
</symbol>
<symbol id="icon-user-add" viewBox="0 0 32 32">
<title>user-add</title>
<path d="M12 18.667c1.841 0 3.508-0.747 4.715-1.953 1.205-1.205 1.952-2.872 1.952-4.713s-0.747-3.508-1.952-4.713c-1.207-1.207-2.873-1.953-4.715-1.953s-3.508 0.747-4.715 1.953c-1.205 1.205-1.952 2.872-1.952 4.713s0.747 3.508 1.952 4.713c1.207 1.207 2.873 1.953 4.715 1.953z"></path>
<path d="M12 28c4.691 0 8-1.333 8-2.667 0-2.667-3.139-5.333-8-5.333-5 0-8 2.667-8 5.333 0 1.333 3 2.667 8 2.667z"></path>
<path d="M28 16h-2.667v-2.667c0-0.737-0.596-1.333-1.333-1.333s-1.333 0.596-1.333 1.333v2.667h-2.667c-0.737 0-1.333 0.596-1.333 1.333s0.596 1.333 1.333 1.333h2.667v2.667c0 0.737 0.596 1.333 1.333 1.333s1.333-0.596 1.333-1.333v-2.667h2.667c0.737 0 1.333-0.596 1.333-1.333s-0.596-1.333-1.333-1.333z"></path>
</symbol>
<symbol id="icon-user-circle-o" viewBox="0 0 32 32">
<title>user-circle-o</title>
<path d="M16 0c8.839 0 16 7.161 16 16 0 8.786-7.125 16-16 16-8.857 0-16-7.197-16-16 0-8.839 7.161-16 16-16zM27.054 24.125c1.661-2.286 2.661-5.089 2.661-8.125 0-7.553-6.161-13.714-13.714-13.714s-13.714 6.161-13.714 13.714c0 3.035 1 5.839 2.661 8.125 0.642-3.197 2.197-5.839 5.464-5.839 1.447 1.41 3.41 2.286 5.59 2.286s4.143-0.875 5.59-2.286c3.267 0 4.822 2.642 5.464 5.839zM22.857 12.571c0-3.786-3.072-6.857-6.857-6.857s-6.857 3.072-6.857 6.857 3.072 6.857 6.857 6.857 6.857-3.072 6.857-6.857z"></path>
</symbol>
<symbol id="icon-v-card" viewBox="0 0 32 32">
<title>v-card</title>
<path d="M30.4 4.8h-28.8c-0.885 0-1.6 0.715-1.6 1.6v19.2c0 0.883 0.715 1.6 1.6 1.6h28.8c0.885 0 1.6-0.717 1.6-1.6v-19.2c0-0.883-0.715-1.6-1.6-1.6zM20.8 11.2h6.4v1.6h-6.4v-1.6zM17.6 23.685c-0.206-0.163-0.469-0.322-0.846-0.485-1.888-0.813-4.738-2.016-4.738-3.482 0-0.882 0.574-0.594 0.829-2.206 0.106-0.669 0.616-0.011 0.712-1.538 0-0.608-0.278-0.76-0.278-0.76s0.141-0.899 0.197-1.594c0.058-0.725-0.354-2.88-2.043-3.355-0.298-0.301-0.498-0.178 0.413-0.659-1.99-0.094-2.454 0.947-3.514 1.714-0.902 0.672-1.147 1.736-1.102 2.302 0.059 0.693 0.2 1.594 0.2 1.594s-0.28 0.15-0.28 0.758c0.098 1.526 0.608 0.869 0.712 1.538 0.253 1.613 0.83 1.325 0.83 2.206 0 1.466-2.85 2.669-4.738 3.482-0.325 0.141-0.558 0.277-0.754 0.416v-15.616h14.4v15.685zM28.8 17.6h-8v-1.6h8v1.6z"></path>
</symbol>
<symbol id="icon-view-hide" viewBox="0 0 32 32">
<title>view-hide</title>
<path d="M20.496 6.976l-2.832 2.848c-0.498-0.139-1.069-0.219-1.659-0.219-3.534 0-6.4 2.866-6.4 6.4 0 0.59 0.080 1.162 0.229 1.704l-0.011-0.045-4.416 4.4c-2.112-1.6-3.872-3.68-5.088-6.064 2.976-5.746 8.877-9.605 15.678-9.605 1.594 0 3.136 0.211 4.605 0.608l-0.123-0.029zM26.576 9.936c2.128 1.6 3.888 3.68 5.12 6.064-2.974 5.75-8.878 9.611-15.683 9.611-1.603 0-3.157-0.214-4.632-0.616l0.123 0.029 2.832-2.848c0.498 0.139 1.069 0.219 1.659 0.219 3.534 0 6.4-2.866 6.4-6.4 0-0.59-0.080-1.162-0.229-1.704l0.011 0.045 4.416-4.4zM26.176 3.552l2.272 2.272-22.624 22.624-2.272-2.272 22.624-22.624z"></path>
</symbol>
<symbol id="icon-view-show" viewBox="0 0 32 32">
<title>view-show</title>
<path d="M0.32 16c2.976-5.747 8.877-9.606 15.68-9.606s12.704 3.859 15.634 9.509l0.046 0.098c-2.976 5.747-8.877 9.606-15.68 9.606s-12.704-3.859-15.634-9.509l-0.046-0.098zM16 22.4c3.534 0 6.4-2.866 6.4-6.4s-2.866-6.4-6.4-6.4v0c-3.534 0-6.4 2.866-6.4 6.4s2.866 6.4 6.4 6.4v0zM16 19.2c-1.768 0-3.2-1.432-3.2-3.2s1.432-3.2 3.2-3.2v0c1.768 0 3.2 1.432 3.2 3.2s-1.432 3.2-3.2 3.2v0z"></path>
</symbol>
<symbol id="icon-wallet" viewBox="0 0 38 32">
<title>wallet</title>
<path d="M32.509 7.5c0.276 0 0.5-0.224 0.5-0.5v-1.665c0-0.903-0.735-1.638-1.638-1.638h-2.687l-0.613-1.809c-0.086-0.255-0.36-0.397-0.619-0.318l-14.553 4.424c-0.264 0.081-0.413 0.36-0.333 0.624 0.066 0.216 0.264 0.354 0.479 0.354 0.048 0 0.097-0.007 0.146-0.021l14.089-4.284 1.343 3.965c0.089 0.262 0.375 0.404 0.634 0.313 0.262-0.088 0.402-0.373 0.313-0.634l-0.547-1.615h2.349c0.352 0 0.638 0.286 0.638 0.638v1.666c-0.001 0.276 0.223 0.5 0.499 0.5zM36.5 15c-0.276 0-0.5 0.224-0.5 0.5s0.224 0.5 0.5 0.5c0.351 0 0.5 0.149 0.5 0.5v6c0 0.351-0.149 0.5-0.5 0.5h-8c-0.351 0-0.5-0.149-0.5-0.5v-5c0-0.351 0.149-0.5 0.5-0.5h6c0.276 0 0.5-0.224 0.5-0.5v-6c0-0.911-0.589-1.5-1.5-1.5h-30.5c-1.233 0-2-0.767-2-2s0.767-2 2-2h5.076l-3.026 0.998c-0.262 0.086-0.405 0.369-0.319 0.631 0.069 0.21 0.265 0.343 0.475 0.343 0.052 0 0.104-0.008 0.157-0.025l18.119-5.973c0.262-0.087 0.405-0.369 0.318-0.632-0.086-0.262-0.369-0.405-0.632-0.318l-12.1 3.99c-0.023-0.004-0.044-0.014-0.068-0.014h-8c-1.794 0-3 1.206-3 3v22c0 1.794 1.206 3 3 3h30.5c0.911 0 1.5-0.589 1.5-1.5v-5c0-0.276-0.224-0.5-0.5-0.5s-0.5 0.224-0.5 0.5v5c0 0.351-0.149 0.5-0.5 0.5h-30.5c-1.233 0-2-0.767-2-2v-19.688c0.513 0.433 1.192 0.688 2 0.688h30.5c0.351 0 0.5 0.149 0.5 0.5v5.5h-5.5c-0.911 0-1.5 0.589-1.5 1.5v5c0 0.911 0.589 1.5 1.5 1.5h8c0.911 0 1.5-0.589 1.5-1.5v-6c0-0.911-0.589-1.5-1.5-1.5zM31 20c0 0.552 0.448 1 1 1s1-0.448 1-1c0-0.552-0.448-1-1-1s-1 0.448-1 1z"></path>
</symbol>
<symbol id="icon-wallet1" viewBox="0 0 32 32">
<title>wallet1</title>
<path d="M25.6 9.6h-20v-0.8l17.6-1.408v1.408h2.4v-2.4c0-1.76-1.426-2.995-3.166-2.747l-16.066 2.294c-1.742 0.25-3.168 1.893-3.168 3.653v16c0 1.766 1.432 3.2 3.2 3.2h19.2c1.766 0 3.2-1.434 3.2-3.2v-12.8c0-1.766-1.434-3.2-3.2-3.2zM23.2 20.81c-1.325 0-2.4-1.075-2.4-2.4s1.075-2.4 2.4-2.4 2.4 1.075 2.4 2.4-1.075 2.4-2.4 2.4z"></path>
</symbol>
<symbol id="icon-warning" viewBox="0 0 32 32">
<title>warning</title>
<path d="M16 2.899l13.409 26.726h-26.819l13.409-26.726zM16 0c-0.69 0-1.379 0.465-1.903 1.395l-13.659 27.222c-1.046 1.86-0.156 3.383 1.978 3.383h27.166c2.134 0 3.025-1.522 1.978-3.383v0l-13.659-27.222c-0.523-0.93-1.213-1.395-1.903-1.395v0z"></path>
<path d="M18 26c0 1.105-0.895 2-2 2s-2-0.895-2-2c0-1.105 0.895-2 2-2s2 0.895 2 2z"></path>
<path d="M16 22c-1.105 0-2-0.895-2-2v-6c0-1.105 0.895-2 2-2s2 0.895 2 2v6c0 1.105-0.895 2-2 2z"></path>
</symbol>
<symbol id="icon-warning1" viewBox="0 0 32 32">
<title>warning1</title>
<path d="M31.218 28.768l-14.251-26.611c-0.198-0.344-0.566-0.557-0.966-0.557s-0.77 0.213-0.966 0.557l-14.25 26.611c-0.194 0.338-0.19 0.754 0.008 1.088 0.2 0.338 0.563 0.544 0.957 0.544h28.502c0.392 0 0.758-0.206 0.957-0.544 0.198-0.334 0.202-0.75 0.010-1.088zM17.6 27.2h-3.2v-3.2h3.2v3.2zM17.6 21.6h-3.2v-10.4h3.2v10.4z"></path>
</symbol>
<symbol id="icon-zap" viewBox="0 0 32 32">
<title>zap</title>
<path d="M15.447 7.013l-0.769 6.155c-0.007 0.049-0.011 0.107-0.011 0.165 0 0.736 0.597 1.333 1.333 1.333h9.153l-8.6 10.32 0.769-6.155c0.007-0.049 0.011-0.107 0.011-0.165 0-0.736-0.597-1.333-1.333-1.333h-9.153zM16.309 1.813l-13.333 16c-0.472 0.565-0.395 1.407 0.171 1.877 0.249 0.209 0.553 0.311 0.853 0.309h10.489l-1.145 9.168c-0.092 0.731 0.427 1.397 1.157 1.488 0.465 0.059 0.904-0.131 1.189-0.469l13.333-16c0.472-0.565 0.395-1.407-0.171-1.877-0.249-0.209-0.553-0.311-0.853-0.309h-10.489l1.145-9.168c0.092-0.731-0.427-1.397-1.157-1.488-0.465-0.059-0.904 0.131-1.189 0.469z"></path>
</symbol>
</defs>
</svg>
