<svg aria-hidden="true" style="position: absolute; width: 0; height: 0; overflow: hidden;" version="1.1" xmlns="http://www.w3.org/2000/svg" xmlns:xlink="http://www.w3.org/1999/xlink">
<defs>
<symbol id="icon-arrow-down" viewBox="0 0 32 32">
<title>arrow-down</title>
<path d="M16 18.381l7.938-7.944c0.587-0.588 1.538-0.588 2.119 0s0.581 1.537 0 2.125l-8.994 9c-0.569 0.569-1.481 0.581-2.069 0.044l-9.056-9.037c-0.294-0.294-0.438-0.681-0.438-1.063s0.144-0.769 0.438-1.063c0.588-0.588 1.537-0.588 2.119 0l7.944 7.938z"></path>
</symbol>
<symbol id="icon-card" viewBox="0 0 32 32">
<title>card</title>
<path d="M30 8c0-1.1-0.9-2-2-2h-24c-1.1 0-2 0.9-2 2v3h28v-3zM2 24c0 1.1 0.9 2 2 2h24c1.1 0 2-0.9 2-2v-10h-28v10zM10.875 21h10.25c0.481 0 0.875 0.394 0.875 0.875s-0.394 0.875-0.875 0.875h-10.25c-0.481 0-0.875-0.394-0.875-0.875s0.394-0.875 0.875-0.875zM6.375 21h0.75c0.481 0 0.875 0.394 0.875 0.875s-0.394 0.875-0.875 0.875h-0.75c-0.481 0-0.875-0.394-0.875-0.875s0.394-0.875 0.875-0.875z"></path>
</symbol>
<symbol id="icon-checkmark" viewBox="0 0 32 32">
<title>checkmark</title>
<path d="M22.663 12.056l-1.1-1.131c-0.044-0.050-0.113-0.075-0.175-0.075-0.069 0-0.131 0.025-0.175 0.075l-7.625 7.681-2.775-2.775c-0.050-0.050-0.113-0.075-0.175-0.075s-0.125 0.025-0.175 0.075l-1.113 1.112c-0.1 0.1-0.1 0.256 0 0.356l3.5 3.5c0.225 0.225 0.5 0.356 0.731 0.356 0.331 0 0.619-0.244 0.725-0.344h0.006l8.356-8.4c0.087-0.106 0.087-0.262-0.006-0.356z"></path>
</symbol>
<symbol id="icon-close" viewBox="0 0 32 32">
<title>close</title>
<path d="M17.413 16l4.262-4.262c0.387-0.387 0.387-1.025 0-1.412s-1.025-0.387-1.413 0l-4.262 4.263-4.262-4.262c-0.387-0.387-1.025-0.387-1.412 0-0.194 0.194-0.294 0.45-0.294 0.706s0.1 0.512 0.294 0.706l4.263 4.262-4.262 4.262c-0.194 0.194-0.294 0.45-0.294 0.706s0.1 0.512 0.294 0.706c0.387 0.387 1.025 0.387 1.412 0l4.263-4.262 4.262 4.262c0.387 0.387 1.025 0.387 1.413 0s0.387-1.025 0-1.413l-4.262-4.262z"></path>
</symbol>
<symbol id="icon-closed-lock" viewBox="0 0 32 32">
<title>closed-lock</title>
<path d="M23.173 13.312v-6.859c0-3.558-2.7-6.452-6.018-6.452h-2.31c-3.319 0-6.018 2.894-6.018 6.452v6.859c-2.031 1.974-3.301 4.773-3.301 7.873 0 5.964 4.699 10.815 10.474 10.815s10.474-4.852 10.474-10.815c0-3.1-1.27-5.899-3.301-7.873zM10.827 11.78v-5.328c0-2.455 1.803-4.452 4.018-4.452h2.31c2.216 0 4.018 1.997 4.018 4.452v5.328c-0.273-0.16-0.553-0.306-0.838-0.44-0.010-0.005-0.020-0.010-0.030-0.015-0.040-0.019-0.080-0.036-0.12-0.054-0.060-0.027-0.119-0.053-0.18-0.079-0.028-0.012-0.056-0.024-0.085-0.036-0.089-0.037-0.179-0.073-0.269-0.108-0.002-0.001-0.004-0.002-0.006-0.002-0.923-0.355-1.907-0.579-2.931-0.65-0.024-0.002-0.047-0.003-0.071-0.005-0.082-0.005-0.164-0.009-0.247-0.012-0.027-0.001-0.054-0.002-0.081-0.003-0.105-0.003-0.209-0.005-0.315-0.005s-0.21 0.002-0.315 0.005c-0.027 0.001-0.054 0.002-0.081 0.003-0.082 0.003-0.165 0.007-0.247 0.012-0.024 0.002-0.047 0.003-0.071 0.005-1.024 0.072-2.008 0.295-2.931 0.65-0.002 0.001-0.004 0.002-0.006 0.002-0.090 0.035-0.18 0.071-0.269 0.108-0.028 0.012-0.056 0.024-0.085 0.036-0.060 0.026-0.12 0.052-0.18 0.079-0.040 0.018-0.080 0.036-0.12 0.054-0.010 0.005-0.020 0.010-0.030 0.015-0.285 0.134-0.565 0.28-0.838 0.44zM16 30c-4.673 0-8.474-3.954-8.474-8.815 0-3.295 1.748-6.174 4.329-7.686 0.040-0.023 0.080-0.047 0.121-0.070 0.044-0.025 0.089-0.049 0.133-0.073 0.078-0.042 0.157-0.084 0.237-0.123 0.025-0.013 0.051-0.025 0.076-0.037 0.883-0.428 1.834-0.697 2.812-0.789 0.008-0.001 0.017-0.002 0.026-0.002 0.116-0.011 0.232-0.019 0.348-0.024 0.014-0.001 0.027-0.001 0.041-0.002 0.117-0.005 0.234-0.008 0.351-0.008s0.235 0.003 0.352 0.008c0.014 0.001 0.027 0.001 0.041 0.002 0.116 0.006 0.233 0.014 0.348 0.024 0.009 0.001 0.017 0.002 0.026 0.002 0.978 0.092 1.929 0.361 2.812 0.789 0.025 0.012 0.051 0.024 0.076 0.037 0.080 0.040 0.158 0.081 0.237 0.123 0.045 0.024 0.089 0.048 0.134 0.073 0.041 0.023 0.081 0.046 0.121 0.070 2.581 1.512 4.329 4.391 4.329 7.686-0 4.861-3.802 8.815-8.474 8.815z"></path>
<path d="M18.95 19.556c0-1.627-1.323-2.951-2.95-2.951s-2.95 1.324-2.95 2.951c0 0.832 0.345 1.606 0.934 2.156l-0.707 3.173c-0.016 0.072-0.024 0.144-0.024 0.218 0 0.867 0.849 1.52 1.974 1.52h1.547c1.125 0 1.974-0.654 1.974-1.52 0-0.073-0.008-0.146-0.024-0.218l-0.708-3.173c0.589-0.55 0.934-1.324 0.934-2.156zM15.384 24.623l0.616-2.762 0.616 2.762h-1.232zM16.436 20.401c-0.194 0.101-0.344 0.259-0.436 0.445-0.092-0.186-0.242-0.345-0.436-0.445-0.317-0.165-0.514-0.489-0.514-0.845 0-0.524 0.426-0.951 0.95-0.951s0.951 0.427 0.951 0.951c0 0.356-0.197 0.68-0.514 0.845z"></path>
</symbol>
<symbol id="icon-globe" viewBox="0 0 32 32">
<title>globe</title>
<path d="M16 3h-0.044c-3.463 0.013-6.713 1.369-9.162 3.819-2.444 2.456-3.794 5.713-3.794 9.181s1.35 6.725 3.8 9.181c2.444 2.45 5.7 3.806 9.162 3.819h0.044c7.169 0 13-5.831 13-13s-5.837-13-13.006-13zM27.262 15.125h-4.85c-0.056-1.669-0.262-3.262-0.613-4.762 1.069-0.344 2.106-0.781 3.106-1.313 1.375 1.762 2.188 3.85 2.356 6.075zM15.125 15.125h-3.863c0.050-1.531 0.238-2.981 0.55-4.319 1.088 0.244 2.194 0.394 3.313 0.444v3.875zM15.125 16.875v3.869c-1.113 0.050-2.225 0.2-3.313 0.444-0.313-1.337-0.5-2.788-0.55-4.313h3.863zM16.875 16.875h3.831c-0.050 1.525-0.238 2.975-0.55 4.306-1.075-0.244-2.175-0.387-3.281-0.438v-3.869zM16.875 15.125v-3.875c1.113-0.050 2.212-0.2 3.281-0.438 0.313 1.338 0.5 2.781 0.55 4.313h-3.831zM23.712 7.756c-0.769 0.381-1.563 0.706-2.375 0.969-0.444-1.338-1.006-2.494-1.656-3.406 1.5 0.519 2.869 1.35 4.031 2.438zM19.688 9.175c-0.919 0.2-1.863 0.325-2.813 0.375v-4.588c1.063 0.575 2.1 2.119 2.813 4.213zM15.125 4.938v4.606c-0.963-0.050-1.912-0.175-2.844-0.381 0.725-2.112 1.775-3.656 2.844-4.225zM12.275 5.338c-0.644 0.906-1.2 2.056-1.644 3.381-0.8-0.262-1.588-0.588-2.344-0.963 1.15-1.081 2.506-1.906 3.987-2.419zM7.094 9.056c0.988 0.525 2.019 0.963 3.075 1.3-0.356 1.494-0.563 3.094-0.613 4.763h-4.813c0.162-2.213 0.975-4.3 2.35-6.063zM4.737 16.875h4.813c0.056 1.669 0.262 3.269 0.613 4.762-1.056 0.344-2.088 0.781-3.075 1.3-1.369-1.756-2.181-3.844-2.35-6.063zM8.281 24.244c0.756-0.375 1.544-0.7 2.35-0.962 0.444 1.331 1 2.475 1.644 3.387-1.481-0.525-2.838-1.344-3.994-2.425zM12.281 22.831c0.931-0.206 1.887-0.331 2.844-0.381v4.613c-1.075-0.569-2.119-2.119-2.844-4.231zM16.875 27.038v-4.594c0.95 0.050 1.894 0.175 2.813 0.375-0.712 2.1-1.75 3.644-2.813 4.219zM19.688 26.681c0.65-0.913 1.212-2.069 1.656-3.406 0.813 0.262 1.613 0.594 2.375 0.975-1.163 1.081-2.538 1.913-4.031 2.431zM24.906 22.944c-1-0.531-2.038-0.969-3.106-1.313 0.35-1.494 0.556-3.087 0.613-4.756h4.85c-0.169 2.219-0.975 4.306-2.356 6.069z"></path>
</symbol>
<symbol id="icon-ios-wallet" viewBox="0 0 32 32">
<title>ios-wallet</title>
<path d="M25.25 10h-18.5c-2.069 0-3.75 1.681-3.75 3.75v10.5c0 2.069 1.681 3.75 3.75 3.75h18.5c2.069 0 3.75-1.681 3.75-3.75v-10.5c0-2.069-1.681-3.75-3.75-3.75zM21.431 4.063l-14.681 2.869c-1.125 0.25-2.75 1.381-2.75 2.756 0 0 0.938-1.188 3.063-1.188h17.938v-1.281c0-0.787-0.313-1.794-0.869-2.35-0.706-0.706-1.719-1.013-2.7-0.806z"></path>
</symbol>
<symbol id="icon-logo-facebook" viewBox="0 0 32 32">
<title>logo-facebook</title>
<path d="M26.675 4h-21.35c-0.731 0-1.325 0.594-1.325 1.325v21.35c0 0.731 0.594 1.325 1.325 1.325h10.675v-9.5h-2.869v-3.5h2.869v-2.588c0-3.1 2.15-4.787 4.919-4.787 1.325 0 2.75 0.1 3.081 0.144v3.237h-2.206c-1.506 0-1.794 0.713-1.794 1.762v2.231h3.587l-0.469 3.5h-3.119v9.5h6.675c0.731 0 1.325-0.594 1.325-1.325v-21.35c0-0.731-0.594-1.325-1.325-1.325z"></path>
</symbol>
<symbol id="icon-logo-google" viewBox="0 0 32 32">
<title>logo-google</title>
<path d="M28.6 14l-0.131-0.556h-12.094v5.119h7.225c-0.75 3.563-4.231 5.438-7.075 5.438-2.069 0-4.25-0.869-5.694-2.269-1.481-1.438-2.425-3.556-2.425-5.738 0-2.156 0.969-4.313 2.381-5.731 1.406-1.412 3.537-2.213 5.656-2.213 2.425 0 4.163 1.287 4.813 1.875l3.637-3.619c-1.069-0.938-4-3.3-8.569-3.3-3.525 0-6.906 1.35-9.375 3.813-2.438 2.425-3.7 5.931-3.7 9.181s1.194 6.587 3.556 9.031c2.525 2.606 6.1 3.969 9.781 3.969 3.35 0 6.525-1.313 8.787-3.694 2.225-2.344 3.375-5.587 3.375-8.988 0-1.431-0.144-2.281-0.15-2.319z"></path>
</symbol>
<symbol id="icon-logo-twitter" viewBox="0 0 32 32">
<title>logo-twitter</title>
<path d="M30.75 6.844c-1.087 0.481-2.25 0.806-3.475 0.956 1.25-0.75 2.212-1.938 2.663-3.35-1.169 0.694-2.462 1.2-3.844 1.469-1.106-1.181-2.681-1.919-4.419-1.919-3.344 0-6.050 2.712-6.050 6.056 0 0.475 0.050 0.938 0.156 1.381-5.031-0.25-9.494-2.662-12.475-6.331-0.519 0.894-0.819 1.938-0.819 3.044 0 2.1 1.075 3.956 2.7 5.044-1-0.025-1.938-0.3-2.75-0.756v0.075c0 2.938 2.088 5.381 4.856 5.937-0.506 0.137-1.044 0.212-1.594 0.212-0.388 0-0.769-0.038-1.138-0.113 0.769 2.406 3.006 4.156 5.656 4.206-2.069 1.625-4.681 2.594-7.519 2.594-0.487 0-0.969-0.031-1.444-0.087 2.669 1.738 5.85 2.738 9.262 2.738 11.144 0 17.231-9.231 17.231-17.238 0-0.262-0.006-0.525-0.019-0.781 1.181-0.856 2.206-1.919 3.019-3.138z"></path>
</symbol>
<symbol id="icon-logo-whatsapp" viewBox="0 0 32 32">
<title>logo-whatsapp</title>
<path d="M16.254 2c-7.591 0-13.745 6.106-13.745 13.639 0 2.577 0.721 4.987 1.972 7.043l-2.481 7.318 7.61-2.418c1.969 1.080 4.234 1.697 6.644 1.697 7.592 0 13.746-6.107 13.746-13.639s-6.154-13.639-13.746-13.639zM23.089 20.819c-0.323 0.802-1.786 1.533-2.431 1.567s-0.663 0.5-4.178-1.027c-3.514-1.527-5.628-5.24-5.795-5.479s-1.361-1.94-1.297-3.653c0.065-1.713 1.003-2.522 1.338-2.858s0.718-0.397 0.952-0.401c0.277-0.005 0.456-0.008 0.661-0.001s0.512-0.043 0.778 0.665c0.266 0.708 0.903 2.447 0.984 2.624s0.132 0.383 0.006 0.611c-0.126 0.228-0.19 0.371-0.373 0.568s-0.386 0.44-0.55 0.591c-0.182 0.167-0.373 0.348-0.181 0.704s0.853 1.522 1.861 2.484c1.295 1.236 2.412 1.646 2.756 1.832 0.345 0.188 0.55 0.167 0.764-0.058 0.213-0.225 0.915-0.984 1.162-1.323s0.479-0.273 0.796-0.146c0.317 0.128 2.010 1.035 2.355 1.222s0.575 0.283 0.657 0.431c0.082 0.149 0.056 0.846-0.267 1.647z"></path>
</symbol>
<symbol id="icon-md-person" viewBox="0 0 32 32">
<title>md-person</title>
<path d="M16 16c3.3 0 6-2.7 6-6s-2.7-6-6-6-6 2.7-6 6 2.7 6 6 6zM16 19c-3.975 0-12 2.025-12 6v3h24v-3c0-3.975-8.025-6-12-6z"></path>
</symbol>
<symbol id="icon-md-planet" viewBox="0 0 32 32">
<title>md-planet</title>
<path d="M8.481 9.438c-0.156 0.188-0.306 0.375-0.45 0.575 2.012 2.269 4.756 4.781 7.762 7.106 2.363 1.825 4.769 3.45 6.963 4.694 0.369 0.206 0.731 0.406 1.081 0.587 0.156-0.188 0.306-0.375 0.45-0.575 0.731-1.006 1.131-2.075 1.456-3.35 0.050-0.2 0.094-0.4 0.131-0.594 0.988-5.188-2.225-10.306-7.406-11.619-2.313-0.588-4.631-0.319-6.644 0.606-1.338 0.619-2.387 1.431-3.344 2.569z"></path>
<path d="M26.137 20.425c-0.256 0.688-0.462 1.094-0.462 1.094 1.137 1.319 1.538 2.119 1.994 2.9 0.15 0.256 0.462 0.819 0.056 0.775-0.106-0.019-0.219-0.044-0.344-0.081-1.331-0.337-3.2-1.169-5.269-2.337-2.238-1.269-4.681-2.919-7.081-4.769-3.194-2.469-6.094-5.144-8.162-7.531-0.956-1.1-1.725-2.137-2.231-2.994-0.15-0.256-0.244-0.394-0.35-0.65-0.156-0.388 0.313-0.319 0.438-0.287 0.931 0.237 2.188 0.619 3.638 1.488 0 0 0.269-0.3 0.869-0.713-1.425-0.963-2.787-1.731-4.075-2.219-1.444-0.55-2.569-0.425-2.969 0.231-0.762 1.244 0.875 4.519 4.081 8.25-1.344 5.375 1.912 10.831 7.281 12.188 2.569 0.65 5.15 0.244 7.3-0.938 2.381 1.1 4.506 1.788 6.056 2.181 1.494 0.381 2.525 0.344 2.925-0.306 0.694-1.137-0.756-3.238-3.694-6.281z"></path>
</symbol>
<symbol id="icon-svg_logo-google" viewBox="0 0 32 32">
<title>svg_logo-google</title>
<path d="M28.6 14l-0.131-0.556h-12.094v5.119h7.225c-0.75 3.563-4.231 5.438-7.075 5.438-2.069 0-4.25-0.869-5.694-2.269-1.481-1.438-2.425-3.556-2.425-5.738 0-2.156 0.969-4.313 2.381-5.731 1.406-1.412 3.537-2.213 5.656-2.213 2.425 0 4.163 1.287 4.813 1.875l3.637-3.619c-1.069-0.938-4-3.3-8.569-3.3-3.525 0-6.906 1.35-9.375 3.813-2.438 2.425-3.7 5.931-3.7 9.181s1.194 6.587 3.556 9.031c2.525 2.606 6.1 3.969 9.781 3.969 3.35 0 6.525-1.313 8.787-3.694 2.225-2.344 3.375-5.587 3.375-8.988 0-1.431-0.144-2.281-0.15-2.319z"></path>
</symbol>
<symbol id="icon-undraw_no_data_qbuo-2" viewBox="0 0 34 32">
<title>undraw_no_data_qbuo-2</title>
<path fill="#e0e0e0" style="fill: var(--color1, #e0e0e0)" d="M2.833 5.553l17.512-3.757 5.192 24.196-17.512 3.757-5.192-24.196z"></path>
<path fill="#073322" style="fill: var(--color2, #073322)" opacity="0.5" d="M3.217 5.898l16.92-3.63 5.016 23.378-16.92 3.63-5.016-23.378z"></path>
<path fill="#fafafa" style="fill: var(--color3, #fafafa)" d="M3.469 6.024l16.489-3.538 4.905 22.861-16.489 3.538-4.905-22.861z"></path>
<path fill="#0ee1ab" style="fill: var(--color4, #0ee1ab)" d="M7.432 4.137l8.18-1.755 0.425 1.982-8.18 1.755-0.425-1.981z"></path>
<path fill="#abca97" style="fill: var(--color5, #abca97)" d="M11.107 1.324c-0.632 0.136-1.031 0.77-0.892 1.416s0.763 1.061 1.393 0.925 1.031-0.77 0.892-1.416-0.762-1.061-1.393-0.925zM11.503 3.172c-0.048 0.012-0.103 0.019-0.16 0.019-0.382 0-0.691-0.309-0.691-0.691s0.309-0.691 0.691-0.691c0.329 0 0.605 0.23 0.674 0.539l0.001 0.005c0.011 0.046 0.018 0.099 0.018 0.154 0 0.324-0.225 0.595-0.528 0.665l-0.005 0.001z"></path>
<path fill="#009b99" style="fill: var(--color6, #009b99)" d="M7.5 4.034l8.008-1.718 0.406 1.894-8.008 1.718-0.406-1.894z"></path>
<path fill="#009b99" style="fill: var(--color6, #009b99)" d="M11.107 1.324c-0.521 0.115-0.904 0.572-0.904 1.119 0 0.632 0.512 1.145 1.145 1.145s1.145-0.512 1.145-1.145c0-0.085-0.009-0.168-0.027-0.248l0.001 0.008c-0.115-0.521-0.572-0.905-1.119-0.905-0.085 0-0.168 0.009-0.248 0.027l0.008-0.001zM11.486 3.091c-0.042 0.009-0.089 0.015-0.139 0.015-0.365 0-0.661-0.296-0.661-0.661s0.296-0.661 0.661-0.661c0.316 0 0.58 0.222 0.645 0.518l0.001 0.004c0.009 0.042 0.015 0.089 0.015 0.138 0 0.316-0.222 0.58-0.518 0.645l-0.004 0.001z"></path>
<path fill="#e0e0e0" style="fill: var(--color1, #e0e0e0)" d="M10.569 4.791h17.91v24.746h-17.91v-24.746z"></path>
<path fill="#2632d4" style="fill: var(--color7, #2632d4)" opacity="0.5" d="M10.872 5.21h17.305v23.91h-17.305v-23.91z"></path>
<path fill="#fff" style="fill: var(--color8, #fff)" d="M11.092 5.386h16.865v23.382h-16.865v-23.382z"></path>
<path fill="#97571e" style="fill: var(--color9, #97571e)" d="M15.363 4.372h8.366v2.027h-8.366v-2.027z"></path>
<path fill="#7d32e1" style="fill: var(--color10, #7d32e1)" d="M19.546 2.394c-0.646 0-1.17 0.536-1.17 1.198s0.524 1.198 1.17 1.198 1.17-0.536 1.17-1.198-0.524-1.198-1.17-1.198zM19.546 4.282c-0.005 0-0.011 0-0.016 0-0.382 0-0.691-0.309-0.691-0.691s0.309-0.691 0.691-0.691c0.382 0 0.691 0.309 0.691 0.691v0c0 0.001 0 0.003 0 0.005 0 0.374-0.301 0.678-0.674 0.683h-0z"></path>
<path fill="#009b99" style="fill: var(--color6, #009b99)" d="M15.451 4.285h8.19v1.937h-8.19v-1.937z"></path>
<path fill="#009b99" style="fill: var(--color6, #009b99)" d="M19.546 2.394c-0.632 0-1.145 0.512-1.145 1.145s0.512 1.145 1.145 1.145c0.632 0 1.145-0.512 1.145-1.145v0c0-0.632-0.512-1.145-1.145-1.145v0zM19.546 4.199c-0.364-0-0.66-0.296-0.66-0.661s0.296-0.661 0.661-0.661c0.364 0 0.66 0.295 0.661 0.659v0c-0 0.365-0.296 0.66-0.661 0.66-0 0-0.001 0-0.001 0h0z"></path>
<path fill="#47e6b1" style="fill: var(--color11, #47e6b1)" opacity="0.5" d="M0.626 30.207h0.154v0.874h-0.154v-0.874z"></path>
<path fill="#47e6b1" style="fill: var(--color11, #47e6b1)" opacity="0.5" d="M1.14 30.567v0.154h-0.874v-0.154h0.874z"></path>
<path fill="#47e6b1" style="fill: var(--color11, #47e6b1)" opacity="0.5" d="M18.503 0h0.154v0.874h-0.154v-0.874z"></path>
<path fill="#47e6b1" style="fill: var(--color11, #47e6b1)" opacity="0.5" d="M19.018 0.36v0.154h-0.874v-0.154h0.874z"></path>
<path fill="#4d8af0" style="fill: var(--color12, #4d8af0)" opacity="0.5" d="M31.601 31.662c-0.067-0.030-0.114-0.096-0.114-0.173 0-0.020 0.003-0.039 0.009-0.056l-0 0.001c0.002-0.006 0.003-0.013 0.004-0.021l0-0c0-0.002 0-0.004 0-0.006 0-0.052-0.042-0.095-0.095-0.095-0.031 0-0.058 0.015-0.075 0.037l-0 0c-0.004 0.005-0.008 0.011-0.010 0.018l-0 0.001c-0.030 0.067-0.096 0.114-0.173 0.114-0.020 0-0.039-0.003-0.056-0.009l0.001 0c-0.006-0.002-0.013-0.003-0.021-0.004l-0-0c-0.002-0-0.004-0-0.006-0-0.052 0-0.095 0.042-0.095 0.095 0 0.031 0.015 0.058 0.037 0.075l0 0c0.005 0.004 0.011 0.008 0.018 0.010l0.001 0c0.067 0.030 0.114 0.096 0.114 0.173 0 0.020-0.003 0.039-0.009 0.056l0-0.001c-0.002 0.006-0.003 0.013-0.004 0.021l-0 0c-0 0.002-0 0.004-0 0.006 0 0.052 0.042 0.095 0.095 0.095 0.031 0 0.058-0.015 0.075-0.037l0-0c0.004-0.005 0.008-0.011 0.010-0.018l0-0.001c0.030-0.067 0.096-0.114 0.173-0.114 0.020 0 0.039 0.003 0.056 0.009l-0.001-0c0.006 0.002 0.013 0.003 0.021 0.004l0 0c0.002 0 0.004 0 0.006 0 0.052 0 0.095-0.042 0.095-0.095 0-0.031-0.015-0.058-0.037-0.075l-0-0c-0.005-0.004-0.011-0.008-0.018-0.010l-0.001-0z"></path>
<path fill="#fdd835" style="fill: var(--color13, #fdd835)" opacity="0.5" d="M5.601 23.258c-0.067-0.030-0.114-0.096-0.114-0.173 0-0.020 0.003-0.039 0.009-0.056l-0 0.001c0.002-0.006 0.003-0.013 0.004-0.021l0-0c0-0.002 0-0.004 0-0.006 0-0.052-0.042-0.095-0.095-0.095-0.031 0-0.058 0.015-0.075 0.037l-0 0c-0.004 0.005-0.008 0.011-0.010 0.018l-0 0.001c-0.030 0.067-0.096 0.114-0.173 0.114-0.020 0-0.039-0.003-0.056-0.009l0.001 0c-0.006-0.002-0.013-0.003-0.021-0.004l-0-0c-0.002-0-0.004-0-0.006-0-0.052 0-0.095 0.042-0.095 0.095 0 0.031 0.015 0.058 0.037 0.075l0 0c0.005 0.004 0.011 0.008 0.018 0.010l0.001 0c0.067 0.030 0.114 0.096 0.114 0.173 0 0.020-0.003 0.039-0.009 0.056l0-0.001c-0.002 0.006-0.003 0.013-0.004 0.021l-0 0c-0 0.002-0 0.004-0 0.006 0 0.052 0.042 0.095 0.095 0.095 0.031 0 0.058-0.015 0.075-0.037l0-0c0.004-0.005 0.008-0.011 0.010-0.018l0-0.001c0.030-0.067 0.096-0.114 0.173-0.114 0.020 0 0.039 0.003 0.056 0.009l-0.001-0c0.006 0.002 0.013 0.003 0.021 0.004l0 0c0.002 0 0.004 0 0.006 0 0.052 0 0.095-0.042 0.095-0.095 0-0.031-0.015-0.058-0.037-0.075l-0-0c-0.005-0.004-0.011-0.008-0.018-0.010l-0.001-0z"></path>
<path fill="#fdd835" style="fill: var(--color13, #fdd835)" opacity="0.5" d="M27.257 2.794c-0.067-0.030-0.114-0.096-0.114-0.173 0-0.020 0.003-0.039 0.009-0.056l-0 0.001c0.002-0.006 0.003-0.013 0.004-0.021l0-0c0-0.002 0-0.004 0-0.006 0-0.052-0.042-0.095-0.095-0.095-0.031 0-0.058 0.015-0.075 0.037l-0 0c-0.004 0.005-0.008 0.011-0.010 0.018l-0 0.001c-0.030 0.067-0.096 0.114-0.173 0.114-0.020 0-0.039-0.003-0.056-0.009l0.001 0c-0.006-0.002-0.013-0.003-0.021-0.004l-0-0c-0.002-0-0.004-0-0.006-0-0.052 0-0.095 0.042-0.095 0.095 0 0.031 0.015 0.058 0.037 0.075l0 0c0.005 0.004 0.011 0.008 0.018 0.010l0.001 0c0.067 0.030 0.114 0.096 0.114 0.173 0 0.020-0.003 0.039-0.009 0.056l0-0.001c-0.002 0.006-0.003 0.013-0.004 0.021l-0 0c-0 0.002-0 0.004-0 0.006 0 0.052 0.042 0.095 0.095 0.095 0.031 0 0.058-0.015 0.075-0.037l0-0c0.004-0.005 0.008-0.011 0.010-0.018l0-0.001c0.030-0.067 0.096-0.114 0.173-0.114 0.020 0 0.039 0.003 0.056 0.009l-0.001-0c0.006 0.002 0.013 0.003 0.021 0.004l0 0c0.002 0 0.004 0 0.006 0 0.052 0 0.095-0.042 0.095-0.095 0-0.031-0.015-0.058-0.037-0.075l-0-0c-0.005-0.004-0.011-0.008-0.018-0.010l-0.001-0z"></path>
<path fill="#f55f44" style="fill: var(--color14, #f55f44)" opacity="0.5" d="M33.613 12.888c0 0.17-0.138 0.309-0.309 0.309s-0.309-0.138-0.309-0.309c0-0.17 0.138-0.309 0.309-0.309s0.309 0.138 0.309 0.309z"></path>
<path fill="#f55f44" style="fill: var(--color14, #f55f44)" opacity="0.5" d="M9.765 30.6c0 0.17-0.138 0.309-0.309 0.309s-0.309-0.138-0.309-0.309c0-0.17 0.138-0.309 0.309-0.309s0.309 0.138 0.309 0.309z"></path>
<path fill="#f55f44" style="fill: var(--color14, #f55f44)" opacity="0.5" d="M30.444 19.558c0 0.17-0.138 0.309-0.309 0.309s-0.309-0.138-0.309-0.309c0-0.17 0.138-0.309 0.309-0.309s0.309 0.138 0.309 0.309z"></path>
<path fill="#4d8af0" style="fill: var(--color12, #4d8af0)" opacity="0.5" d="M3.88 3.949c0 0.17-0.138 0.309-0.309 0.309s-0.309-0.138-0.309-0.309c0-0.17 0.138-0.309 0.309-0.309s0.309 0.138 0.309 0.309z"></path>
<path fill="#47e6b1" style="fill: var(--color11, #47e6b1)" opacity="0.5" d="M0.617 12.367c0 0.17-0.138 0.309-0.309 0.309s-0.309-0.138-0.309-0.309c0-0.17 0.138-0.309 0.309-0.309s0.309 0.138 0.309 0.309z"></path>
</symbol>
<symbol id="icon-undraw_post2_19cj" viewBox="0 0 34 32">
<title>undraw_post2_19cj</title>
<path fill="#12db07" style="fill: var(--color15, #12db07)" opacity="0.5" d="M0.186 0h20.797c0.103 0 0.186 0.083 0.186 0.186v31.627c0 0.103-0.083 0.186-0.186 0.186h-20.797c-0.103 0-0.186-0.083-0.186-0.186v-31.627c0-0.103 0.083-0.186 0.186-0.186z"></path>
<path fill="#fff" style="fill: var(--color8, #fff)" d="M0.458 0.235h20.254c0.103 0 0.186 0.083 0.186 0.186v30.98c0 0.103-0.083 0.186-0.186 0.186h-20.254c-0.103 0-0.186-0.083-0.186-0.186v-30.98c0-0.103 0.083-0.186 0.186-0.186z"></path>
<path fill="#009b99" style="fill: var(--color6, #009b99)" d="M2.52 6.011h3.753c0.103 0 0.186 0.083 0.186 0.186v3.34c0 0.103-0.083 0.186-0.186 0.186h-3.753c-0.103 0-0.186-0.083-0.186-0.186v-3.34c0-0.103 0.083-0.186 0.186-0.186z"></path>
<path fill="#e0e0e0" style="fill: var(--color1, #e0e0e0)" d="M7.882 6.011h10.768c0.102 0 0.185 0.083 0.185 0.185v0.042c0 0.102-0.083 0.185-0.185 0.185h-10.768c-0.102 0-0.185-0.083-0.185-0.185v-0.042c0-0.102 0.083-0.185 0.185-0.185z"></path>
<path fill="#e0e0e0" style="fill: var(--color1, #e0e0e0)" d="M7.882 7.248h8.888c0.102 0 0.185 0.083 0.185 0.185v0.042c0 0.102-0.083 0.185-0.185 0.185h-8.888c-0.102 0-0.185-0.083-0.185-0.185v-0.042c0-0.102 0.083-0.185 0.185-0.185z"></path>
<path fill="#009b99" style="fill: var(--color6, #009b99)" d="M2.52 11.786h3.753c0.103 0 0.186 0.083 0.186 0.186v3.34c0 0.103-0.083 0.186-0.186 0.186h-3.753c-0.103 0-0.186-0.083-0.186-0.186v-3.34c0-0.103 0.083-0.186 0.186-0.186z"></path>
<path fill="#e0e0e0" style="fill: var(--color1, #e0e0e0)" d="M7.882 11.786h10.768c0.102 0 0.185 0.083 0.185 0.185v0.042c0 0.102-0.083 0.185-0.185 0.185h-10.768c-0.102 0-0.185-0.083-0.185-0.185v-0.042c0-0.102 0.083-0.185 0.185-0.185z"></path>
<path fill="#e0e0e0" style="fill: var(--color1, #e0e0e0)" d="M7.882 13.023h10.768c0.102 0 0.185 0.083 0.185 0.185v0.042c0 0.102-0.083 0.185-0.185 0.185h-10.768c-0.102 0-0.185-0.083-0.185-0.185v-0.042c0-0.102 0.083-0.185 0.185-0.185z"></path>
<path fill="#009b99" style="fill: var(--color6, #009b99)" d="M2.52 17.561h3.753c0.103 0 0.186 0.083 0.186 0.186v3.34c0 0.103-0.083 0.186-0.186 0.186h-3.753c-0.103 0-0.186-0.083-0.186-0.186v-3.34c0-0.103 0.083-0.186 0.186-0.186z"></path>
<path fill="#e0e0e0" style="fill: var(--color1, #e0e0e0)" d="M7.882 17.561h10.768c0.102 0 0.185 0.083 0.185 0.185v0.042c0 0.102-0.083 0.185-0.185 0.185h-10.768c-0.102 0-0.185-0.083-0.185-0.185v-0.042c0-0.102 0.083-0.185 0.185-0.185z"></path>
<path fill="#e0e0e0" style="fill: var(--color1, #e0e0e0)" d="M7.882 18.799h0.867c0.102 0 0.185 0.083 0.185 0.185v0.042c0 0.102-0.083 0.185-0.185 0.185h-0.867c-0.102 0-0.185-0.083-0.185-0.185v-0.042c0-0.102 0.083-0.185 0.185-0.185z"></path>
<path fill="#9c3606" style="fill: var(--color16, #9c3606)" opacity="0.5" d="M13.36 10.303h20.479c0.103 0 0.186 0.083 0.186 0.186v18.437c0 0.103-0.083 0.186-0.186 0.186h-20.479c-0.103 0-0.186-0.083-0.186-0.186v-18.437c0-0.103 0.083-0.186 0.186-0.186z"></path>
<path fill="#fff" style="fill: var(--color8, #fff)" d="M13.682 10.492h19.87c0.103 0 0.186 0.083 0.186 0.186v17.846c0 0.103-0.083 0.186-0.186 0.186h-19.87c-0.103 0-0.186-0.083-0.186-0.186v-17.846c0-0.103 0.083-0.186 0.186-0.186z"></path>
<path fill="#009b99" style="fill: var(--color6, #009b99)" d="M15.669 14.406h3.977c0.103 0 0.186 0.083 0.186 0.186v3.542c0 0.103-0.083 0.186-0.186 0.186h-3.977c-0.103 0-0.186-0.083-0.186-0.186v-3.542c0-0.103 0.083-0.186 0.186-0.186z"></path>
<path fill="#e0e0e0" style="fill: var(--color1, #e0e0e0)" d="M21.323 14.406h11.371c0.103 0 0.186 0.083 0.186 0.186v0.063c0 0.103-0.083 0.186-0.186 0.186h-11.371c-0.103 0-0.186-0.083-0.186-0.186v-0.063c0-0.103 0.083-0.186 0.186-0.186z"></path>
<path fill="#e0e0e0" style="fill: var(--color1, #e0e0e0)" d="M21.323 15.711h11.371c0.103 0 0.186 0.083 0.186 0.186v0.063c0 0.103-0.083 0.186-0.186 0.186h-11.371c-0.103 0-0.186-0.083-0.186-0.186v-0.063c0-0.103 0.083-0.186 0.186-0.186z"></path>
<path fill="#e0e0e0" style="fill: var(--color1, #e0e0e0)" d="M15.234 20.447h17.46c0.103 0 0.186 0.083 0.186 0.186v0.063c0 0.103-0.083 0.186-0.186 0.186h-17.459c-0.103 0-0.186-0.083-0.186-0.186v-0.063c0-0.103 0.083-0.186 0.186-0.186z"></path>
<path fill="#e0e0e0" style="fill: var(--color1, #e0e0e0)" d="M15.234 21.752h17.46c0.103 0 0.186 0.083 0.186 0.186v0.063c0 0.103-0.083 0.186-0.186 0.186h-17.459c-0.103 0-0.186-0.083-0.186-0.186v-0.063c0-0.103 0.083-0.186 0.186-0.186z"></path>
<path fill="#e0e0e0" style="fill: var(--color1, #e0e0e0)" d="M15.234 23.491h17.46c0.103 0 0.186 0.083 0.186 0.186v0.063c0 0.103-0.083 0.186-0.186 0.186h-17.459c-0.103 0-0.186-0.083-0.186-0.186v-0.063c0-0.103 0.083-0.186 0.186-0.186z"></path>
<path fill="#e0e0e0" style="fill: var(--color1, #e0e0e0)" d="M15.234 24.796h13.11c0.103 0 0.186 0.083 0.186 0.186v0.063c0 0.103-0.083 0.186-0.186 0.186h-13.11c-0.103 0-0.186-0.083-0.186-0.186v-0.063c0-0.103 0.083-0.186 0.186-0.186z"></path>
</symbol>
<symbol id="icon-mobile_recharge" viewBox="0 0 32 32">
<title>mobile_recharge</title>
<path fill="#009b99" style="fill: var(--color6, #009b99); stroke: var(--color17, #483896)" stroke="#483896" stroke-linejoin="miter" stroke-linecap="butt" stroke-miterlimit="10" stroke-width="0.6787" d="M9.611 0.608h12.903c1.125 0 2.037 0.912 2.037 2.037v26.709c0 1.125-0.912 2.037-2.037 2.037h-12.902c-1.125 0-2.037-0.912-2.037-2.037v-26.709c0-1.125 0.912-2.037 2.037-2.037z"></path>
<path fill="#483896" style="fill: var(--color17, #483896)" d="M13.654 2.316c-0.406-0-0.735-0.329-0.736-0.736v-0.82h6.289v0.82c-0 0.406-0.329 0.735-0.736 0.736h-0z"></path>
<path fill="#483896" style="fill: var(--color17, #483896)" d="M19.038 0.929v0.651c0 0.313-0.254 0.566-0.566 0.566h-4.817c-0.313 0-0.566-0.254-0.566-0.566v-0.651h5.95zM19.375 0.59h-6.625v0.99c0 0.5 0.405 0.906 0.906 0.906v0h4.817c0.499-0.002 0.902-0.407 0.902-0.906 0 0 0 0 0 0v0-0.99z"></path>
<path fill="#fff" style="fill: var(--color8, #fff)" d="M16.468 1.538c0 0.224-0.181 0.406-0.405 0.406s-0.405-0.182-0.405-0.406c0-0.224 0.181-0.406 0.405-0.406s0.405 0.182 0.405 0.406z"></path>
<path fill="#fff" style="fill: var(--color8, #fff)" d="M17.933 1.571c-0 0.16-0.13 0.289-0.289 0.289s-0.289-0.13-0.289-0.289 0.13-0.289 0.289-0.289v0c0 0 0 0 0 0 0.16 0 0.289 0.13 0.289 0.289 0 0 0 0 0 0.001v-0z"></path>
<path fill="#483896" style="fill: var(--color17, #483896)" d="M16.063 10.681c2.938 0 5.319 2.382 5.319 5.319s-2.382 5.319-5.319 5.319c-2.938 0-5.319-2.382-5.319-5.319v0c0.004-2.936 2.383-5.316 5.319-5.319h0zM16.063 10.228c-3.188 0-5.772 2.584-5.772 5.772s2.584 5.772 5.772 5.772c3.188 0 5.772-2.584 5.772-5.772v0c0-3.188-2.584-5.772-5.772-5.772v0z"></path>
<path fill="#fff" style="fill: var(--color8, #fff)" d="M18.529 14.967l-2.736 4.331c-0.034 0.068-0.102 0.114-0.182 0.114-0 0-0 0-0.001 0h0c-0.003 0-0.007 0.001-0.010 0.001-0.023 0-0.043-0.009-0.058-0.023l0 0c-0.083-0.036-0.14-0.117-0.14-0.212 0-0.014 0.001-0.027 0.003-0.040l-0 0.001 0.387-2.918h-2.006c-0 0-0.001 0-0.001 0-0.086 0-0.161-0.045-0.204-0.113l-0.001-0.001c-0.015-0.028-0.023-0.061-0.023-0.096 0-0.050 0.018-0.096 0.047-0.132l-0 0 2.279-3.192c0.041-0.061 0.11-0.1 0.188-0.1 0.022 0 0.043 0.003 0.064 0.009l-0.002-0c0.091 0.026 0.157 0.107 0.16 0.205v1.824h2.051c0 0 0.001 0 0.001 0 0.086 0 0.161 0.045 0.204 0.113l0.001 0.001c0.010 0.027 0.015 0.057 0.015 0.089 0 0.051-0.014 0.099-0.039 0.14l0.001-0.001z"></path>
<path fill="#483896" style="fill: var(--color17, #483896)" d="M17.001 28.781c0 0.518-0.42 0.939-0.939 0.939s-0.939-0.42-0.939-0.939c0-0.518 0.42-0.939 0.939-0.939s0.939 0.42 0.939 0.939z"></path>
</symbol>
<symbol id="icon-postpaid_bill" viewBox="0 0 32 32">
<title>postpaid_bill</title>
<path fill="#009b99" style="fill: var(--color6, #009b99); stroke: var(--color17, #483896)" stroke="#483896" stroke-linejoin="miter" stroke-linecap="butt" stroke-miterlimit="10" stroke-width="0.6787" d="M7.486 0.636h12.902c1.125 0 2.037 0.912 2.037 2.037v26.709c0 1.125-0.912 2.037-2.037 2.037h-12.902c-1.125 0-2.037-0.912-2.037-2.037v-26.709c0-1.125 0.912-2.037 2.037-2.037z"></path>
<path fill="#009b99" style="fill: var(--color6, #009b99); stroke: var(--color17, #483896)" stroke="#483896" stroke-linejoin="miter" stroke-linecap="butt" stroke-miterlimit="10" stroke-width="0.6787" d="M25.221 6.537l-1.561-0.898-1.561 0.898-1.561-0.898-1.561 0.898-1.589-0.914h-0.070l-1.589 0.914-1.588-0.914h-0.061v19.013h0.061l1.588-0.914 1.589 0.914h0.070l1.589-0.914 1.561 0.898 1.561-0.898 1.561 0.898 1.561-0.898 1.473 0.848v-18.881l-1.473 0.848z"></path>
<path fill="#fff" style="fill: var(--color8, #fff)" d="M23.895 11.172h-7.016v0.641h3.801c0.217 0.365 0.346 0.804 0.346 1.274 0 0.001 0 0.001 0 0.002v-0c-0.001 0.113-0.009 0.224-0.024 0.332l0.002-0.013h-3.486v0.638h3.321c-0.389 0.942-1.3 1.593-2.364 1.594h-0v0.005l-0.446 0.446 3.375 3.375h0.902l-3.241-3.247c1.165-0.227 2.092-1.062 2.447-2.154l0.006-0.023h1.745v-0.638h-1.615c0.011-0.098 0.017-0.213 0.017-0.328 0-0.458-0.098-0.894-0.275-1.286l0.008 0.020h2.5z"></path>
<path fill="#483896" style="fill: var(--color17, #483896)" d="M11.528 2.344c-0.406-0-0.735-0.329-0.736-0.736v-0.821h6.289v0.821c-0 0.406-0.329 0.735-0.736 0.736h-0z"></path>
<path fill="#483896" style="fill: var(--color17, #483896)" d="M16.912 0.958v0.651c-0 0.311-0.252 0.564-0.562 0.566h-4.821c-0.311-0-0.564-0.252-0.566-0.562v-0.654h5.95zM17.25 0.618h-6.625v0.99c0 0.5 0.405 0.906 0.906 0.906v0h4.818c0.498-0.002 0.901-0.406 0.901-0.905 0-0 0-0 0-0.001v0-0.99z"></path>
<path fill="#fff" style="fill: var(--color8, #fff)" d="M14.342 1.566c0 0.224-0.182 0.406-0.406 0.406s-0.406-0.182-0.406-0.406c0-0.224 0.182-0.406 0.406-0.406 0 0 0 0 0.001 0h-0c0.224 0.001 0.405 0.182 0.405 0.406v0z"></path>
<path fill="#fff" style="fill: var(--color8, #fff)" d="M15.807 1.599c0 0.001 0 0.002 0 0.002 0 0.16-0.13 0.289-0.289 0.289s-0.289-0.13-0.289-0.289c0-0.16 0.13-0.289 0.289-0.289v0c0 0 0 0 0 0 0.159 0 0.288 0.128 0.289 0.287v0z"></path>
<path fill="#483896" style="fill: var(--color17, #483896)" d="M14.876 28.809c0 0.518-0.42 0.939-0.939 0.939s-0.939-0.42-0.939-0.939c0-0.518 0.42-0.939 0.939-0.939s0.939 0.42 0.939 0.939z"></path>
</symbol>
<symbol id="icon-dth" viewBox="0 0 32 32">
<title>dth</title>
<path fill="#483896" style="fill: var(--color17, #483896)" d="M10.693 30.224v-10.774h-3.045v10.774h-2.459v1.406h7.964v-1.406h-2.459z"></path>
<path fill="#009b99" style="fill: var(--color6, #009b99); stroke: var(--color17, #483896)" stroke="#483896" stroke-linejoin="miter" stroke-linecap="butt" stroke-miterlimit="10" stroke-width="0.6663" d="M7.758 0.495c-0.026 0.025-0.052 0.048-0.077 0.074-5.813 5.813-5.813 15.237 0 21.049s15.237 5.813 21.049 0c0.026-0.026 0.049-0.052 0.074-0.078z"></path>
<path fill="#483896" style="fill: var(--color17, #483896)" d="M26.183 4.708c0.343-0.343 0.313-0.93-0.066-1.309s-0.967-0.409-1.313-0.066c-0.281 0.281-0.308 0.724-0.101 1.084l-6.511 6.513 0.393 0.393 6.513-6.51c0.36 0.203 0.804 0.176 1.084-0.104z"></path>
<path fill="#483896" style="fill: var(--color17, #483896)" d="M23.982 2.692c0.348-0.291 0.8-0.467 1.293-0.467 1.117 0 2.023 0.905 2.023 2.022 0 0.493-0.176 0.945-0.47 1.296l0.003-0.003 0.26 0.261c0.358-0.415 0.576-0.96 0.576-1.556 0-1.319-1.069-2.389-2.389-2.389-0.596 0-1.14 0.218-1.559 0.579l0.003-0.003z"></path>
</symbol>
<symbol id="icon-telephone" viewBox="0 0 32 32">
<title>telephone</title>
<path fill="#009b99" style="fill: var(--color6, #009b99)" d="M2.417 6.667h27.292c0.44 0 0.797 0.357 0.797 0.797v23.244c0 0.44-0.357 0.797-0.797 0.797h-27.292c-0.44 0-0.797-0.357-0.797-0.797v-23.244c0-0.44 0.357-0.797 0.797-0.797z"></path>
<path fill="#483896" style="fill: var(--color17, #483896)" d="M29.708 6.943c0.288 0 0.521 0.233 0.521 0.521v23.244c-0.001 0.287-0.234 0.52-0.521 0.521h-27.291c-0.288-0-0.521-0.233-0.521-0.521v-23.244c0.001-0.287 0.234-0.52 0.521-0.521h27.291zM29.708 6.391h-27.291c-0 0-0 0-0.001 0-0.592 0-1.073 0.48-1.073 1.072v0 23.244c0 0.592 0.48 1.073 1.073 1.073 0 0 0 0 0.001 0h27.291c0 0 0 0 0.001 0 0.592 0 1.073-0.48 1.073-1.073v0-23.244c0-0.592-0.48-1.072-1.073-1.072-0 0-0 0-0.001 0h0z"></path>
<path fill="#fff" style="fill: var(--color8, #fff)" d="M15.898 9.242h11.001c0.671 0 1.215 0.544 1.215 1.215v2.906c0 0.671-0.544 1.215-1.215 1.215h-11.001c-0.671 0-1.215-0.544-1.215-1.215v-2.906c0-0.671 0.544-1.215 1.215-1.215z"></path>
<path fill="#483896" style="fill: var(--color17, #483896)" d="M26.899 9.335c0.621 0 1.125 0.504 1.125 1.125v0 2.906c0 0.621-0.504 1.125-1.125 1.125v0h-11c-0.621 0-1.125-0.504-1.125-1.125v0-2.906c0-0.621 0.504-1.125 1.125-1.125v0h11zM26.899 9.148h-11c-0.722 0-1.307 0.585-1.307 1.307v0 2.906c0 0.722 0.585 1.307 1.307 1.307h11c0.722 0 1.307-0.585 1.307-1.307v0-2.906c0-0.722-0.585-1.307-1.307-1.307v0z"></path>
<path fill="none" stroke="#483896" style="stroke: var(--color17, #483896)" stroke-linejoin="miter" stroke-linecap="round" stroke-miterlimit="10" stroke-width="0.7362" d="M25.538 6.483v-5.796"></path>
<path fill="#483896" style="fill: var(--color17, #483896)" d="M7.968 9.901c2.134 0 3.864 1.73 3.864 3.864v11.239c0 2.134-1.73 3.864-3.864 3.864s-3.864-1.73-3.864-3.864v-11.239c0-2.134 1.73-3.864 3.864-3.864z"></path>
<path fill="#483896" style="fill: var(--color17, #483896)" d="M24.558 21.656h2.071c0.104 0 0.189 0.084 0.189 0.189v2.071c0 0.104-0.084 0.189-0.189 0.189h-2.071c-0.104 0-0.189-0.084-0.189-0.189v-2.071c0-0.104 0.084-0.189 0.189-0.189z"></path>
<path fill="#483896" style="fill: var(--color17, #483896)" d="M20.477 21.656h2.071c0.104 0 0.189 0.084 0.189 0.189v2.071c0 0.104-0.084 0.189-0.189 0.189h-2.071c-0.104 0-0.189-0.084-0.189-0.189v-2.071c0-0.104 0.084-0.189 0.189-0.189z"></path>
<path fill="#483896" style="fill: var(--color17, #483896)" d="M16.397 21.656h2.071c0.104 0 0.189 0.084 0.189 0.189v2.071c0 0.104-0.084 0.189-0.189 0.189h-2.071c-0.104 0-0.189-0.084-0.189-0.189v-2.071c0-0.104 0.084-0.189 0.189-0.189z"></path>
<path fill="#483896" style="fill: var(--color17, #483896)" d="M24.558 17.576h2.071c0.104 0 0.189 0.084 0.189 0.189v2.071c0 0.104-0.084 0.189-0.189 0.189h-2.071c-0.104 0-0.189-0.084-0.189-0.189v-2.071c0-0.104 0.084-0.189 0.189-0.189z"></path>
<path fill="#483896" style="fill: var(--color17, #483896)" d="M20.477 17.576h2.071c0.104 0 0.189 0.084 0.189 0.189v2.071c0 0.104-0.084 0.189-0.189 0.189h-2.071c-0.104 0-0.189-0.084-0.189-0.189v-2.071c0-0.104 0.084-0.189 0.189-0.189z"></path>
<path fill="#483896" style="fill: var(--color17, #483896)" d="M16.397 17.576h2.071c0.104 0 0.189 0.084 0.189 0.189v2.071c0 0.104-0.084 0.189-0.189 0.189h-2.071c-0.104 0-0.189-0.084-0.189-0.189v-2.071c0-0.104 0.084-0.189 0.189-0.189z"></path>
<path fill="#483896" style="fill: var(--color17, #483896)" d="M24.558 25.737h2.071c0.104 0 0.189 0.084 0.189 0.189v2.071c0 0.104-0.084 0.189-0.189 0.189h-2.071c-0.104 0-0.189-0.084-0.189-0.189v-2.071c0-0.104 0.084-0.189 0.189-0.189z"></path>
<path fill="#483896" style="fill: var(--color17, #483896)" d="M20.477 25.737h2.071c0.104 0 0.189 0.084 0.189 0.189v2.071c0 0.104-0.084 0.189-0.189 0.189h-2.071c-0.104 0-0.189-0.084-0.189-0.189v-2.071c0-0.104 0.084-0.189 0.189-0.189z"></path>
<path fill="#483896" style="fill: var(--color17, #483896)" d="M16.397 25.737h2.071c0.104 0 0.189 0.084 0.189 0.189v2.071c0 0.104-0.084 0.189-0.189 0.189h-2.071c-0.104 0-0.189-0.084-0.189-0.189v-2.071c0-0.104 0.084-0.189 0.189-0.189z"></path>
</symbol>
<symbol id="icon-broadband" viewBox="0 0 32 32">
<title>broadband</title>
<path fill="none" stroke="#483896" style="stroke: var(--color17, #483896)" stroke-linejoin="miter" stroke-linecap="butt" stroke-miterlimit="10" stroke-width="0.6669" d="M2.149 18.431h27.794c0.86 0 1.556 0.697 1.556 1.556v8.224c0 0.86-0.697 1.556-1.556 1.556h-27.794c-0.86 0-1.556-0.697-1.556-1.556v-8.224c0-0.86 0.697-1.556 1.556-1.556z"></path>
<path fill="#009b99" style="fill: var(--color6, #009b99)" d="M2.831 19.376h26.414c0.688 0 1.246 0.558 1.246 1.246v7.052c0 0.688-0.558 1.246-1.246 1.246h-26.414c-0.688 0-1.246-0.558-1.246-1.246v-7.053c0-0.688 0.558-1.246 1.246-1.246z"></path>
<path fill="#fff" style="fill: var(--color8, #fff)" d="M7.064 21.838c1.212 0.197 2.035 1.339 1.838 2.551s-1.339 2.035-2.551 1.838c-1.212-0.197-2.035-1.339-1.838-2.551s1.339-2.035 2.551-1.838z"></path>
<path fill="#fff" style="fill: var(--color8, #fff)" d="M13.411 22.897c0.627 0.387 0.821 1.209 0.433 1.836s-1.209 0.821-1.836 0.433c-0.627-0.387-0.821-1.209-0.433-1.836s1.209-0.821 1.836-0.433z"></path>
<path fill="#fff" style="fill: var(--color8, #fff)" d="M17.473 23.011c0.626 0.39 0.817 1.214 0.427 1.841s-1.214 0.817-1.841 0.427c-0.626-0.39-0.817-1.214-0.427-1.841s1.214-0.817 1.841-0.427z"></path>
<path fill="#fff" style="fill: var(--color8, #fff)" d="M23.157 22.808h3.334c0.614 0 1.111 0.498 1.111 1.111v0.223c0 0.614-0.498 1.111-1.111 1.111h-3.334c-0.614 0-1.111-0.498-1.111-1.111v-0.223c0-0.614 0.498-1.111 1.111-1.111z"></path>
<path fill="#483896" style="fill: var(--color17, #483896)" d="M24.974 6.635c0-0.002 0-0.004 0-0.006 0-0.576-0.467-1.044-1.044-1.044s-1.044 0.467-1.044 1.044c0 0.47 0.311 0.868 0.739 0.998l0.007 0.002v10.933h0.596v-10.933c0.433-0.131 0.744-0.526 0.745-0.994v-0z"></path>
<path fill="#483896" style="fill: var(--color17, #483896)" d="M21.916 5.817c0.295-0.845 1.085-1.439 2.014-1.439s1.719 0.595 2.009 1.425l0.005 0.015h0.403c-0.311-1.061-1.275-1.823-2.417-1.823s-2.106 0.762-2.412 1.805l-0.004 0.018z"></path>
<path fill="#483896" style="fill: var(--color17, #483896)" d="M20.735 5.15c0.411-1.402 1.686-2.408 3.195-2.408s2.784 1.006 3.189 2.384l0.006 0.024h0.396c-0.421-1.618-1.869-2.793-3.592-2.793s-3.17 1.175-3.586 2.768l-0.006 0.026z"></path>
</symbol>
<symbol id="icon-electricity" viewBox="0 0 32 32">
<title>electricity</title>
<path fill="#009b99" style="fill: var(--color6, #009b99); stroke: var(--color17, #483896)" stroke="#483896" stroke-linejoin="miter" stroke-linecap="butt" stroke-miterlimit="10" stroke-width="0.785" d="M24.829 13.266c0 1.217-0.301 2.384-0.75 3.521-0.4 1.026-1.266 1.819-1.927 2.703-0.684 0.913-1.168 1.938-1.579 2.972-0.432 1.087-0.84 2.171-1.107 3.305-0.177 0.756-0.282 1.481-0.282 2.144h-6.585c-0.007-0.653-0.078-1.285-0.207-1.896l0.011 0.063c-0.367-1.866-1.043-3.799-1.98-5.491-0.263-0.474-0.532-0.878-0.829-1.261l0.016 0.022c-0.671-0.866-1.431-1.616-1.827-2.631-0.438-1.125-0.744-2.241-0.744-3.449 0.001-4.772 3.982-8.641 8.896-8.641s8.896 3.869 8.896 8.641z"></path>
<path fill="#483896" style="fill: var(--color17, #483896); stroke: var(--color17, #483896)" stroke="#483896" stroke-linejoin="miter" stroke-linecap="butt" stroke-miterlimit="10" stroke-width="0.7625" d="M18.237 28.135v3.166c0 0.047-0.038 0.085-0.085 0.085v0h-4.417c0 0 0 0 0 0-0.047 0-0.084-0.038-0.084-0.084 0-0 0-0 0-0.001v0-3.25h4.5c0 0 0.001 0 0.001 0 0.047 0 0.084 0.037 0.085 0.084v0z"></path>
<path fill="#009b99" style="fill: var(--color6, #009b99); stroke: var(--color17, #483896)" stroke="#483896" stroke-linejoin="miter" stroke-linecap="round" stroke-miterlimit="10" stroke-width="0.5231" d="M13.527 30.294h-0.785"></path>
<path fill="#009b99" style="fill: var(--color6, #009b99); stroke: var(--color17, #483896)" stroke="#483896" stroke-linejoin="miter" stroke-linecap="round" stroke-miterlimit="10" stroke-width="0.5231" d="M19.124 30.189h-0.785"></path>
<path fill="none" stroke="#483896" style="stroke: var(--color17, #483896)" stroke-linejoin="miter" stroke-linecap="round" stroke-miterlimit="10" stroke-width="0.5231" d="M15.969 27.909v-8.634"></path>
<path fill="none" stroke="#483896" style="stroke: var(--color17, #483896)" stroke-linejoin="miter" stroke-linecap="round" stroke-miterlimit="10" stroke-width="0.5231" d="M13.699 17.183l2.27 2.093 2.27-2.093"></path>
<path fill="none" stroke="#483896" style="stroke: var(--color17, #483896)" stroke-linejoin="miter" stroke-linecap="round" stroke-miterlimit="10" stroke-width="0.5231" d="M2.983 10.318l-1.42-0.669"></path>
<path fill="none" stroke="#483896" style="stroke: var(--color17, #483896)" stroke-linejoin="miter" stroke-linecap="round" stroke-miterlimit="10" stroke-width="0.5231" d="M7.89 4.527l-0.893-1.291"></path>
<path fill="none" stroke="#483896" style="stroke: var(--color17, #483896)" stroke-linejoin="miter" stroke-linecap="round" stroke-miterlimit="10" stroke-width="0.5231" d="M28.961 10.092l1.414-0.682"></path>
<path fill="none" stroke="#483896" style="stroke: var(--color17, #483896)" stroke-linejoin="miter" stroke-linecap="round" stroke-miterlimit="10" stroke-width="0.5231" d="M24.454 4.734l0.914-1.277"></path>
<path fill="none" stroke="#483896" style="stroke: var(--color17, #483896)" stroke-linejoin="miter" stroke-linecap="round" stroke-miterlimit="10" stroke-width="0.5231" d="M15.964 2.007v-1.57"></path>
</symbol>
<symbol id="icon-fastag" viewBox="0 0 32 32">
<title>fastag</title>
<path fill="#009b99" style="fill: var(--color6, #009b99); stroke: var(--color17, #483896)" stroke="#483896" stroke-linejoin="miter" stroke-linecap="butt" stroke-miterlimit="10" stroke-width="0.7037" d="M3.628 29.013h-2.816v2.346h18.066v-2.346h-2.581"></path>
<path fill="#009b99" style="fill: var(--color6, #009b99); stroke: var(--color17, #483896)" stroke="#483896" stroke-linejoin="miter" stroke-linecap="butt" stroke-miterlimit="10" stroke-width="0.7037" d="M3.589 5.552h12.708v23.461h-12.708v-23.461z"></path>
<path fill="#fff" style="fill: var(--color8, #fff)" d="M7.213 8.836h5.5c0.166 0 0.3 0.134 0.3 0.3v5.5c0 0.166-0.134 0.3-0.3 0.3h-5.5c-0.166 0-0.3-0.134-0.3-0.3v-5.5c0-0.166 0.134-0.3 0.3-0.3z"></path>
<path fill="#009b99" style="fill: var(--color6, #009b99); stroke: var(--color17, #483896)" stroke="#483896" stroke-linejoin="miter" stroke-linecap="round" stroke-miterlimit="10" stroke-width="0.7169" d="M3.393 5.552l6.569-4.927 6.569 4.927"></path>
<path fill="none" stroke="#483896" style="stroke: var(--color17, #483896)" stroke-linejoin="miter" stroke-linecap="butt" stroke-miterlimit="10" stroke-width="0.4694" d="M16.297 19.081l13.608-9.072 1.407 1.877-15.016 9.893v-2.698z"></path>
<path fill="#483896" style="fill: var(--color17, #483896)" d="M18.607 17.541l-0.584 3.101 1.2-0.791 0.698-3.186-1.313 0.875z"></path>
<path fill="#483896" style="fill: var(--color17, #483896)" d="M21.892 15.43l-0.585 3.101 1.2-0.791 0.698-3.186-1.313 0.876z"></path>
<path fill="#483896" style="fill: var(--color17, #483896)" d="M25.176 13.318l-0.584 3.101 1.2-0.79 0.698-3.186-1.313 0.875z"></path>
<path fill="#483896" style="fill: var(--color17, #483896)" d="M28.461 10.972l-0.585 3.102 1.2-0.791 0.698-3.186-1.313 0.875z"></path>
</symbol>
<symbol id="icon-agent" viewBox="0 0 32 32">
<title>agent</title>
<path fill="#009b99" style="fill: var(--color6, #009b99)" d="M16.261 20.791c0.23 0.169 0.377 0.438 0.377 0.742 0 0.206-0.068 0.396-0.182 0.549l0.002-0.002-1.056 1.429c-0.281 0.384-0.893 0.489-1.29 0.198-0.23-0.17-0.378-0.44-0.378-0.745 0-0.205 0.067-0.395 0.18-0.548l-0.002 0.003 1.059-1.429c0.17-0.228 0.44-0.375 0.743-0.375 0.206 0 0.396 0.067 0.55 0.181l-0.003-0.002z"></path>
<path fill="#009b99" style="fill: var(--color6, #009b99)" d="M9.813 19.422l1.055-1.422c0.112-0.151 0.179-0.341 0.179-0.547 0-0.51-0.414-0.924-0.924-0.924-0.304 0-0.574 0.147-0.743 0.374l-0.002 0.003-1.055 1.424c-0.113 0.152-0.18 0.342-0.18 0.549 0 0.305 0.148 0.576 0.376 0.745l0.003 0.002c0.389 0.282 1.004 0.188 1.291-0.203z"></path>
<path fill="#009b99" style="fill: var(--color6, #009b99)" d="M13.104 19.629l-1.053 1.421c-0.111 0.151-0.178 0.341-0.178 0.546 0 0.305 0.148 0.576 0.375 0.744l0.002 0.002c0.394 0.289 1.008 0.188 1.292-0.198l1.053-1.424c0.119-0.154 0.19-0.349 0.19-0.562 0-0.51-0.414-0.924-0.924-0.924-0.311 0-0.587 0.154-0.754 0.39l-0.002 0.003z"></path>
<path fill="#009b99" style="fill: var(--color6, #009b99)" d="M11.242 18.269l-1.063 1.434c-0.11 0.149-0.175 0.336-0.175 0.538 0 0.304 0.149 0.574 0.377 0.74l0.003 0.002c0.403 0.294 1.005 0.196 1.284-0.188l1.063-1.438c0.112-0.151 0.179-0.34 0.179-0.546 0-0.51-0.413-0.923-0.923-0.923-0.304 0-0.574 0.147-0.742 0.375l-0.002 0.003z"></path>
<path fill="#009b99" style="fill: var(--color6, #009b99)" d="M27.921 17.207l3.844-1.022-2.072-7.974-3.898 1.172 2.126 7.824z"></path>
<path fill="#009b99" style="fill: var(--color6, #009b99)" d="M24.672 10.244c-1.901 0.139-3.708-0.563-5.693-1.586-0.438-0.225-0.941-0.408-1.433-0.408-0.008-0-0.017-0-0.026-0-0.497 0-0.942 0.223-1.24 0.575l-0.002 0.002c-1.341 1.519-2.119 2.861-3.716 3.793-0.787 0.459 0.136 1.897 1.826 1.307 0.861-0.301 2.030-1.082 2.981-1.849 0.75-0.603 1.196-0.516 1.845 0.133 1.214 1.216 5.303 5.25 5.303 5.25 0.515-0.324 1.122-0.65 1.75-0.936l0.099-0.040z"></path>
<path fill="#483896" style="fill: var(--color17, #483896)" d="M17.766 22.399c-0.168 0.396-0.617 0.95-0.925 1.366 0.171 0.092 0.374 0.147 0.59 0.148h0c0.709 0 1.18-0.669 0.543-1.306z"></path>
<path fill="#483896" style="fill: var(--color17, #483896)" d="M6.33 9.384l-3.898-1.172-2.072 7.974 3.845 1.022 2.125-7.824z"></path>
<path fill="#483896" style="fill: var(--color17, #483896)" d="M23.875 18.708c-0.634-0.7-4.89-4.884-5.646-5.639-1.287 0.963-2.979 2.306-4.611 2.306-1.234 0-2.293-0.729-2.575-1.772-0.044-0.151-0.069-0.324-0.069-0.503 0-0.686 0.372-1.285 0.924-1.606l0.009-0.005c0.929-0.542 1.545-1.284 2.296-2.213-2.295-1.449-4.25 0.906-6.737 0.928l-1.666 6.128c0.776 0.178 1.428 0.376 2.060 0.614l-0.11-0.036 0.576-0.779c1.036-1.414 3.198-1.121 3.861 0.459 0.841 0.078 1.541 0.61 1.858 1.346l0.006 0.015c0.84 0.078 1.539 0.611 1.853 1.347l0.006 0.015c1.142 0.098 2.032 1.049 2.032 2.208 0 0.132-0.011 0.261-0.034 0.386l0.002-0.013 0.856 0.856c0.167 0.167 0.398 0.27 0.653 0.27 0.511 0 0.925-0.414 0.925-0.925 0-0.256-0.104-0.488-0.272-0.656l-0-0-1.654-1.656c-0.042-0.042-0.068-0.099-0.068-0.163 0-0.065 0.027-0.125 0.071-0.166l0-0c0.042-0.040 0.099-0.065 0.162-0.065s0.12 0.025 0.162 0.065l1.993 1.994c0.167 0.167 0.398 0.27 0.653 0.27 0.51 0 0.923-0.413 0.923-0.923 0-0.255-0.103-0.486-0.271-0.653l-2.454-2.453c-0.042-0.042-0.068-0.1-0.068-0.163 0-0.128 0.103-0.231 0.231-0.231 0.064 0 0.121 0.026 0.163 0.067v0l2.648 2.652c0.168 0.169 0.4 0.273 0.656 0.273 0.511 0 0.925-0.414 0.925-0.925 0-0.255-0.103-0.485-0.269-0.653l0 0z"></path>
</symbol>
<symbol id="icon-offer" viewBox="0 0 32 32">
<title>offer</title>
<path fill="#009b99" style="fill: var(--color6, #009b99); stroke: var(--color17, #483896)" stroke="#483896" stroke-linejoin="miter" stroke-linecap="butt" stroke-miterlimit="10" stroke-width="0.6206" d="M20.439 2.593l7.081 5.145 2.705 8.324-2.705 8.324-7.081 5.144h-8.752l-7.081-5.144-2.705-8.324 2.705-8.324 7.081-5.145h8.752z"></path>
<path fill="#fff" style="fill: var(--color8, #fff)" d="M10.744 12.584c0-2.026 1.13-3.176 2.708-3.176s2.708 1.149 2.708 3.176-1.13 3.234-2.708 3.234-2.708-1.207-2.708-3.234zM10.763 20.571l3.563-3.663 0.643 0.584-3.25 3.955zM14.951 12.584c0-1.559-0.662-2.201-1.5-2.201s-1.5 0.643-1.5 2.201c0 1.519 0.662 2.26 1.5 2.26s1.501-0.741 1.501-2.26zM15.964 19.071c0-2.026 1.13-3.176 2.708-3.176s2.708 1.149 2.708 3.176-1.13 3.234-2.707 3.234-2.708-1.207-2.708-3.234zM17.151 13.869l3.253-3.955 0.955 0.875-3.566 3.662zM20.171 19.071c0-1.559-0.663-2.201-1.5-2.201s-1.5 0.642-1.5 2.201c0 1.519 0.663 2.26 1.5 2.26s1.503-0.741 1.503-2.26z"></path>
</symbol>
<symbol id="icon-icon-user" viewBox="0 0 32 32">
<title>icon-user</title>
<path fill="none" stroke="#483896" style="stroke: var(--color17, #483896)" stroke-linejoin="miter" stroke-linecap="butt" stroke-miterlimit="10" stroke-width="1.7585" d="M16 7.648c3.156 0 5.714 2.558 5.714 5.714s-2.558 5.714-5.714 5.714c-3.156 0-5.714-2.558-5.714-5.714s2.558-5.714 5.714-5.714z"></path>
<path fill="#483896" style="fill: var(--color17, #483896)" d="M13.802 24.354v-2.274c0.001-1.075 0.871-1.946 1.945-1.949h0.499c1.076 0.001 1.948 0.873 1.949 1.949v2.274h1.758v-2.274c-0.002-2.046-1.661-3.705-3.707-3.707h-0.499c-2.046 0.002-3.705 1.661-3.707 3.707v2.274z"></path>
<path fill="none" stroke="#483896" style="stroke: var(--color17, #483896)" stroke-linejoin="miter" stroke-linecap="butt" stroke-miterlimit="10" stroke-width="1.7585" d="M31.121 16c0 8.351-6.77 15.121-15.121 15.121s-15.121-6.77-15.121-15.121c0-8.351 6.77-15.121 15.121-15.121s15.121 6.77 15.121 15.121z"></path>
</symbol>
<symbol id="icon-page-icon" viewBox="0 0 32 32">
<title>page-icon</title>
<path fill="none" stroke="#483896" style="stroke: var(--color17, #483896)" stroke-linejoin="miter" stroke-linecap="butt" stroke-miterlimit="10" stroke-width="0.9507" d="M31.525 16c0 8.574-6.951 15.525-15.525 15.525s-15.525-6.951-15.525-15.525c0-8.574 6.951-15.525 15.525-15.525s15.525 6.951 15.525 15.525z"></path>
<path fill="none" stroke="#483896" style="stroke: var(--color17, #483896)" stroke-linejoin="miter" stroke-linecap="butt" stroke-miterlimit="10" stroke-width="0.9507" d="M16 6.825h-0.001c3.315 0 6.003 2.688 6.003 6.003v-0.001c0 3.315-2.688 6.003-6.003 6.003h0.001c-3.315 0-6.003-2.688-6.003-6.003v0.001c0-3.315 2.688-6.003 6.003-6.003z"></path>
<path fill="#483896" style="fill: var(--color17, #483896)" d="M12.494 25.175v-2.56c0.002-1.823 1.48-3.3 3.302-3.302h0.408c1.823 0.002 3.3 1.479 3.303 3.302v2.56h0.951v-2.56c-0.005-2.347-1.907-4.248-4.254-4.251h-0.408c-2.348 0.003-4.251 1.905-4.254 4.253v2.56z"></path>
</symbol>
<symbol id="icon-wallet" viewBox="0 0 38 32">
<title>wallet</title>
<path d="M32.509 7.5c0.276 0 0.5-0.224 0.5-0.5v-1.665c0-0.903-0.735-1.638-1.638-1.638h-2.687l-0.613-1.809c-0.086-0.255-0.36-0.397-0.619-0.318l-14.553 4.424c-0.264 0.081-0.413 0.36-0.333 0.624 0.066 0.216 0.264 0.354 0.479 0.354 0.048 0 0.097-0.007 0.146-0.021l14.089-4.284 1.343 3.965c0.089 0.262 0.375 0.404 0.634 0.313 0.262-0.088 0.402-0.373 0.313-0.634l-0.547-1.615h2.349c0.352 0 0.638 0.286 0.638 0.638v1.666c-0.001 0.276 0.223 0.5 0.499 0.5zM36.5 15c-0.276 0-0.5 0.224-0.5 0.5s0.224 0.5 0.5 0.5c0.351 0 0.5 0.149 0.5 0.5v6c0 0.351-0.149 0.5-0.5 0.5h-8c-0.351 0-0.5-0.149-0.5-0.5v-5c0-0.351 0.149-0.5 0.5-0.5h6c0.276 0 0.5-0.224 0.5-0.5v-6c0-0.911-0.589-1.5-1.5-1.5h-30.5c-1.233 0-2-0.767-2-2s0.767-2 2-2h5.076l-3.026 0.998c-0.262 0.086-0.405 0.369-0.319 0.631 0.069 0.21 0.265 0.343 0.475 0.343 0.052 0 0.104-0.008 0.157-0.025l18.119-5.973c0.262-0.087 0.405-0.369 0.318-0.632-0.086-0.262-0.369-0.405-0.632-0.318l-12.1 3.99c-0.023-0.004-0.044-0.014-0.068-0.014h-8c-1.794 0-3 1.206-3 3v22c0 1.794 1.206 3 3 3h30.5c0.911 0 1.5-0.589 1.5-1.5v-5c0-0.276-0.224-0.5-0.5-0.5s-0.5 0.224-0.5 0.5v5c0 0.351-0.149 0.5-0.5 0.5h-30.5c-1.233 0-2-0.767-2-2v-19.688c0.513 0.433 1.192 0.688 2 0.688h30.5c0.351 0 0.5 0.149 0.5 0.5v5.5h-5.5c-0.911 0-1.5 0.589-1.5 1.5v5c0 0.911 0.589 1.5 1.5 1.5h8c0.911 0 1.5-0.589 1.5-1.5v-6c0-0.911-0.589-1.5-1.5-1.5zM31 20c0 0.552 0.448 1 1 1s1-0.448 1-1c0-0.552-0.448-1-1-1s-1 0.448-1 1z"></path>
</symbol>
<symbol id="icon-switch" viewBox="0 0 32 32">
<title>switch</title>
<path d="M15.5 31.062c-6.904 0-12.5-5.597-12.5-12.5 0-5.315 3.323-9.844 8-11.651v4.449c-2.399 1.503-4 4.162-4 7.202 0 4.694 3.806 8.5 8.5 8.5s8.5-3.806 8.5-8.5c0-2.596-1.166-4.915-3-6.475v-4.736c4.143 2.036 7 6.284 7 11.212 0 6.903-5.597 12.499-12.5 12.499zM16 17.062c-1.104 0-2-0.896-2-2v-11.124c0-1.104 0.896-2 2-2s2 0.896 2 2v11.125c0 1.104-0.896 1.999-2 1.999z"></path>
</symbol>
<symbol id="icon-locked" viewBox="0 0 32 32">
<title>locked</title>
<path d="M16 31c-5.247 0-9.5-4.254-9.5-9.5 0-3.41 1.802-6.391 4.5-8.067v-5.933c0-3.038 2.463-5.5 5.5-5.5s5.5 2.462 5.5 5.5v6.637c2.135 1.742 3.5 4.392 3.5 7.363 0 5.246-4.253 9.5-9.5 9.5zM20 7.5c0-1.933-1.566-3.5-3.5-3.5-1.933 0-3.5 1.567-3.5 3.5v4.991c0.944-0.314 1.95-0.491 3-0.491 1.432 0 2.783 0.325 4 0.892v-5.392zM16 13.5c-4.418 0-8 3.582-8 8s3.582 8 8 8 8-3.582 8-8-3.582-8-8-8zM16 29c-4.143 0-7.5-3.357-7.5-7.5s3.357-7.5 7.5-7.5c4.143 0 7.5 3.357 7.5 7.5s-3.357 7.5-7.5 7.5zM17.5 19.5c0-0.828-0.672-1.5-1.5-1.5s-1.5 0.672-1.5 1.5c0 0.711 0.504 1.277 1.167 1.434l-1.167 4.566h3.062l-1.314-4.551c0.705-0.121 1.252-0.709 1.252-1.449z"></path>
</symbol>
<symbol id="icon-hash" viewBox="0 0 28 32">
<title>hash</title>
<path d="M28 12v-4h-5.004l1-8h-4l-1 8h-7.998l1-8h-4l-1 8h-6.998v4h6.498l-0.998 8h-5.5v4h5l-1 8h4l1-8h7.998l-1 8h4.002l1-8h7v-4h-6.5l0.996-8h5.504zM17.498 20h-7.998l0.998-8h7.998l-0.998 8z"></path>
</symbol>
<symbol id="icon-clock" viewBox="0 0 32 32">
<title>clock</title>
<path d="M16 0c-8.837 0-16 7.164-16 16s7.163 16 16 16 16-7.164 16-16c0-8.836-7.163-16-16-16zM16 28c-6.627 0-12-5.373-12-12s5.373-12 12-12 12 5.373 12 12-5.373 12-12 12zM23 14h-5v-7c0-0.552-0.447-1-1-1h-2c-0.553 0-1 0.448-1 1v10c0 0.553 0.447 1 1 1h8c0.553 0 1-0.447 1-1v-2c0-0.553-0.447-1-1-1z"></path>
</symbol>
<symbol id="icon-profile" viewBox="0 0 32 32">
<title>profile</title>
<path d="M27 0h-24c-1.65 0-3 1.35-3 3v26c0 1.65 1.35 3 3 3h24c1.65 0 3-1.35 3-3v-26c0-1.65-1.35-3-3-3zM26 28h-22v-24h22v24zM8 18h14v2h-14zM8 22h14v2h-14zM10 9c0-1.657 1.343-3 3-3s3 1.343 3 3c0 1.657-1.343 3-3 3s-3-1.343-3-3zM15 12h-4c-1.65 0-3 0.9-3 2v2h10v-2c0-1.1-1.35-2-3-2z"></path>
</symbol>
<symbol id="icon-files-empty" viewBox="0 0 32 32">
<title>files-empty</title>
<path d="M28.681 11.159c-0.694-0.947-1.662-2.053-2.724-3.116s-2.169-2.030-3.116-2.724c-1.612-1.182-2.393-1.319-2.841-1.319h-11.5c-1.379 0-2.5 1.122-2.5 2.5v23c0 1.378 1.121 2.5 2.5 2.5h19c1.378 0 2.5-1.122 2.5-2.5v-15.5c0-0.448-0.137-1.23-1.319-2.841zM24.543 9.457c0.959 0.959 1.712 1.825 2.268 2.543h-4.811v-4.811c0.718 0.556 1.584 1.309 2.543 2.268v0zM28 29.5c0 0.271-0.229 0.5-0.5 0.5h-19c-0.271 0-0.5-0.229-0.5-0.5v-23c0-0.271 0.229-0.5 0.5-0.5 0 0 11.499-0 11.5 0v7c0 0.552 0.448 1 1 1h7v15.5z"></path>
<path d="M18.841 1.319c-1.612-1.182-2.393-1.319-2.841-1.319h-11.5c-1.378 0-2.5 1.121-2.5 2.5v23c0 1.207 0.86 2.217 2 2.45v-25.45c0-0.271 0.229-0.5 0.5-0.5h15.215c-0.301-0.248-0.595-0.477-0.873-0.681z"></path>
</symbol>
<symbol id="icon-credit-card" viewBox="0 0 32 32">
<title>credit-card</title>
<path d="M29 4h-26c-1.65 0-3 1.35-3 3v18c0 1.65 1.35 3 3 3h26c1.65 0 3-1.35 3-3v-18c0-1.65-1.35-3-3-3zM3 6h26c0.542 0 1 0.458 1 1v3h-28v-3c0-0.542 0.458-1 1-1zM29 26h-26c-0.542 0-1-0.458-1-1v-9h28v9c0 0.542-0.458 1-1 1zM4 20h2v4h-2zM8 20h2v4h-2zM12 20h2v4h-2z"></path>
</symbol>
<symbol id="icon-history1" viewBox="0 0 34 32">
<title>history1</title>
<path d="M20 2c7.732 0 14 6.268 14 14s-6.268 14-14 14v-3c2.938 0 5.701-1.144 7.778-3.222s3.222-4.84 3.222-7.778c0-2.938-1.144-5.701-3.222-7.778s-4.84-3.222-7.778-3.222c-2.938 0-5.701 1.144-7.778 3.222-1.598 1.598-2.643 3.601-3.041 5.778h5.819l-7 8-7-8h5.143c0.971-6.784 6.804-12 13.857-12zM26 14v4h-8v-10h4v6z"></path>
</symbol>
<symbol id="icon-spinner2" viewBox="0 0 32 32">
<title>spinner2</title>
<path d="M32 16c-0.040-2.089-0.493-4.172-1.331-6.077-0.834-1.906-2.046-3.633-3.533-5.060-1.486-1.428-3.248-2.557-5.156-3.302-1.906-0.748-3.956-1.105-5.981-1.061-2.025 0.040-4.042 0.48-5.885 1.292-1.845 0.809-3.517 1.983-4.898 3.424s-2.474 3.147-3.193 4.994c-0.722 1.846-1.067 3.829-1.023 5.79 0.040 1.961 0.468 3.911 1.254 5.694 0.784 1.784 1.921 3.401 3.316 4.736 1.394 1.336 3.046 2.391 4.832 3.085 1.785 0.697 3.701 1.028 5.598 0.985 1.897-0.040 3.78-0.455 5.502-1.216 1.723-0.759 3.285-1.859 4.574-3.208 1.29-1.348 2.308-2.945 2.977-4.67 0.407-1.046 0.684-2.137 0.829-3.244 0.039 0.002 0.078 0.004 0.118 0.004 1.105 0 2-0.895 2-2 0-0.056-0.003-0.112-0.007-0.167h0.007zM28.822 21.311c-0.733 1.663-1.796 3.169-3.099 4.412s-2.844 2.225-4.508 2.868c-1.663 0.646-3.447 0.952-5.215 0.909-1.769-0.041-3.519-0.429-5.119-1.14-1.602-0.708-3.053-1.734-4.25-2.991s-2.141-2.743-2.76-4.346c-0.621-1.603-0.913-3.319-0.871-5.024 0.041-1.705 0.417-3.388 1.102-4.928 0.683-1.541 1.672-2.937 2.883-4.088s2.642-2.058 4.184-2.652c1.542-0.596 3.192-0.875 4.832-0.833 1.641 0.041 3.257 0.404 4.736 1.064 1.48 0.658 2.82 1.609 3.926 2.774s1.975 2.54 2.543 4.021c0.57 1.481 0.837 3.064 0.794 4.641h0.007c-0.005 0.055-0.007 0.11-0.007 0.167 0 1.032 0.781 1.88 1.784 1.988-0.195 1.088-0.517 2.151-0.962 3.156z"></path>
</symbol>
<symbol id="icon-switch1" viewBox="0 0 32 32">
<title>switch1</title>
<path d="M20 4.581v4.249c1.131 0.494 2.172 1.2 3.071 2.099 1.889 1.889 2.929 4.4 2.929 7.071s-1.040 5.182-2.929 7.071c-1.889 1.889-4.4 2.929-7.071 2.929s-5.182-1.040-7.071-2.929c-1.889-1.889-2.929-4.4-2.929-7.071s1.040-5.182 2.929-7.071c0.899-0.899 1.94-1.606 3.071-2.099v-4.249c-5.783 1.721-10 7.077-10 13.419 0 7.732 6.268 14 14 14s14-6.268 14-14c0-6.342-4.217-11.698-10-13.419zM14 0h4v16h-4z"></path>
</symbol>
<symbol id="icon-warning" viewBox="0 0 32 32">
<title>warning</title>
<path d="M16 2.899l13.409 26.726h-26.819l13.409-26.726zM16 0c-0.69 0-1.379 0.465-1.903 1.395l-13.659 27.222c-1.046 1.86-0.156 3.383 1.978 3.383h27.166c2.134 0 3.025-1.522 1.978-3.383h0l-13.659-27.222c-0.523-0.93-1.213-1.395-1.903-1.395v0z"></path>
<path d="M18 26c0 1.105-0.895 2-2 2s-2-0.895-2-2c0-1.105 0.895-2 2-2s2 0.895 2 2z"></path>
<path d="M16 22c-1.105 0-2-0.895-2-2v-6c0-1.105 0.895-2 2-2s2 0.895 2 2v6c0 1.105-0.895 2-2 2z"></path>
</symbol>
<symbol id="icon-notification" viewBox="0 0 32 32">
<title>notification</title>
<path d="M16 3c-3.472 0-6.737 1.352-9.192 3.808s-3.808 5.72-3.808 9.192c0 3.472 1.352 6.737 3.808 9.192s5.72 3.808 9.192 3.808c3.472 0 6.737-1.352 9.192-3.808s3.808-5.72 3.808-9.192c0-3.472-1.352-6.737-3.808-9.192s-5.72-3.808-9.192-3.808zM16 0v0c8.837 0 16 7.163 16 16s-7.163 16-16 16c-8.837 0-16-7.163-16-16s7.163-16 16-16zM14 22h4v4h-4zM14 6h4v12h-4z"></path>
</symbol>
<symbol id="icon-info" viewBox="0 0 32 32">
<title>info</title>
<path d="M14 9.5c0-0.825 0.675-1.5 1.5-1.5h1c0.825 0 1.5 0.675 1.5 1.5v1c0 0.825-0.675 1.5-1.5 1.5h-1c-0.825 0-1.5-0.675-1.5-1.5v-1z"></path>
<path d="M20 24h-8v-2h2v-6h-2v-2h6v8h2z"></path>
<path d="M16 0c-8.837 0-16 7.163-16 16s7.163 16 16 16 16-7.163 16-16-7.163-16-16-16zM16 29c-7.18 0-13-5.82-13-13s5.82-13 13-13 13 5.82 13 13-5.82 13-13 13z"></path>
</symbol>
<symbol id="icon-google" viewBox="0 0 32 32">
<title>google</title>
<path d="M16.319 13.713v5.487h9.075c-0.369 2.356-2.744 6.9-9.075 6.9-5.463 0-9.919-4.525-9.919-10.1s4.456-10.1 9.919-10.1c3.106 0 5.188 1.325 6.375 2.469l4.344-4.181c-2.788-2.612-6.4-4.188-10.719-4.188-8.844 0-16 7.156-16 16s7.156 16 16 16c9.231 0 15.363-6.494 15.363-15.631 0-1.050-0.113-1.85-0.25-2.65l-15.113-0.006z"></path>
</symbol>
<symbol id="icon-facebook" viewBox="0 0 32 32">
<title>facebook</title>
<path d="M19 6h5v-6h-5c-3.86 0-7 3.14-7 7v3h-4v6h4v16h6v-16h5l1-6h-6v-3c0-0.542 0.458-1 1-1z"></path>
</symbol>
<symbol id="icon-whatsapp" viewBox="0 0 32 32">
<title>whatsapp</title>
<path d="M27.281 4.65c-2.994-3-6.975-4.65-11.219-4.65-8.738 0-15.85 7.112-15.85 15.856 0 2.794 0.731 5.525 2.119 7.925l-2.25 8.219 8.406-2.206c2.319 1.262 4.925 1.931 7.575 1.931h0.006c0 0 0 0 0 0 8.738 0 15.856-7.113 15.856-15.856 0-4.238-1.65-8.219-4.644-11.219zM16.069 29.050v0c-2.369 0-4.688-0.637-6.713-1.837l-0.481-0.288-4.987 1.306 1.331-4.863-0.313-0.5c-1.325-2.094-2.019-4.519-2.019-7.012 0-7.269 5.912-13.181 13.188-13.181 3.519 0 6.831 1.375 9.319 3.862 2.488 2.494 3.856 5.8 3.856 9.325-0.006 7.275-5.919 13.188-13.181 13.188zM23.294 19.175c-0.394-0.2-2.344-1.156-2.706-1.288s-0.625-0.2-0.894 0.2c-0.262 0.394-1.025 1.288-1.256 1.556-0.231 0.262-0.462 0.3-0.856 0.1s-1.675-0.619-3.188-1.969c-1.175-1.050-1.975-2.35-2.206-2.744s-0.025-0.613 0.175-0.806c0.181-0.175 0.394-0.463 0.594-0.694s0.262-0.394 0.394-0.662c0.131-0.262 0.069-0.494-0.031-0.694s-0.894-2.15-1.219-2.944c-0.319-0.775-0.65-0.669-0.894-0.681-0.231-0.012-0.494-0.012-0.756-0.012s-0.694 0.1-1.056 0.494c-0.363 0.394-1.387 1.356-1.387 3.306s1.419 3.831 1.619 4.1c0.2 0.262 2.794 4.269 6.769 5.981 0.944 0.406 1.681 0.65 2.256 0.837 0.95 0.3 1.813 0.256 2.494 0.156 0.762-0.113 2.344-0.956 2.675-1.881s0.331-1.719 0.231-1.881c-0.094-0.175-0.356-0.275-0.756-0.475z"></path>
</symbol>
<symbol id="icon-twitter" viewBox="0 0 32 32">
<title>twitter</title>
<path d="M32 7.075c-1.175 0.525-2.444 0.875-3.769 1.031 1.356-0.813 2.394-2.1 2.887-3.631-1.269 0.75-2.675 1.3-4.169 1.594-1.2-1.275-2.906-2.069-4.794-2.069-3.625 0-6.563 2.938-6.563 6.563 0 0.512 0.056 1.012 0.169 1.494-5.456-0.275-10.294-2.888-13.531-6.862-0.563 0.969-0.887 2.1-0.887 3.3 0 2.275 1.156 4.287 2.919 5.463-1.075-0.031-2.087-0.331-2.975-0.819 0 0.025 0 0.056 0 0.081 0 3.181 2.263 5.838 5.269 6.437-0.55 0.15-1.131 0.231-1.731 0.231-0.425 0-0.831-0.044-1.237-0.119 0.838 2.606 3.263 4.506 6.131 4.563-2.25 1.762-5.075 2.813-8.156 2.813-0.531 0-1.050-0.031-1.569-0.094 2.913 1.869 6.362 2.95 10.069 2.95 12.075 0 18.681-10.006 18.681-18.681 0-0.287-0.006-0.569-0.019-0.85 1.281-0.919 2.394-2.075 3.275-3.394z"></path>
</symbol>
<symbol id="icon-power-outline" viewBox="0 0 24 24">
<title>power-outline</title>
<path d="M17.51 6.062c-0.814-0.815-1.98-1.050-3.010-0.729v-0.333c0-1.656-1.344-3-3-3s-3 1.344-3 3v0.332c-1.029-0.319-2.195-0.085-3.010 0.73-1.605 1.606-2.49 3.741-2.49 6.011s0.885 4.405 2.49 6.011c1.604 1.605 3.739 2.489 6.010 2.489s4.405-0.884 6.010-2.489c1.605-1.605 2.49-3.74 2.49-6.011s-0.885-4.405-2.49-6.011zM10.5 5c0-0.552 0.447-1 1-1s1 0.448 1 1v5c0 0.552-0.447 1-1 1s-1-0.448-1-1v-5zM9.5 8.803v1.197c0 1.104 0.896 2 2 2s2-0.896 2-2v-1.182c0.095 0.284 0.248 0.554 0.475 0.78 0.661 0.661 1.025 1.54 1.025 2.475s-0.364 1.814-1.025 2.476c-1.322 1.321-3.627 1.321-4.949 0-0.662-0.662-1.026-1.541-1.026-2.476s0.364-1.814 1.025-2.476c0.231-0.23 0.383-0.504 0.475-0.794zM16.096 16.67c-1.228 1.228-2.859 1.903-4.596 1.903s-3.368-0.676-4.596-1.903c-1.227-1.228-1.904-2.86-1.904-4.597s0.677-3.369 1.904-4.597c0.391-0.391 1.023-0.391 1.414 0s0.391 1.023 0 1.414c-0.85 0.851-1.318 1.981-1.318 3.183s0.468 2.333 1.318 3.183c0.85 0.85 1.979 1.317 3.182 1.317s2.332-0.468 3.182-1.317c0.851-0.85 1.318-1.98 1.318-3.183s-0.468-2.333-1.318-3.183c-0.391-0.391-0.391-1.023 0-1.414s1.023-0.391 1.414 0c1.227 1.229 1.904 2.861 1.904 4.597s-0.677 3.369-1.904 4.597z"></path>
</symbol>
<symbol id="icon-power" viewBox="0 0 24 24">
<title>power</title>
<path d="M11.5 18.573c-1.736 0-3.368-0.676-4.596-1.903-1.227-1.228-1.904-2.86-1.904-4.597s0.677-3.369 1.904-4.597c0.391-0.391 1.023-0.391 1.414 0s0.391 1.023 0 1.414c-0.85 0.851-1.318 1.981-1.318 3.183s0.468 2.333 1.318 3.183c0.85 0.85 1.979 1.317 3.182 1.317s2.332-0.468 3.182-1.317c0.851-0.85 1.318-1.98 1.318-3.183s-0.468-2.333-1.318-3.183c-0.391-0.391-0.391-1.023 0-1.414s1.023-0.391 1.414 0c1.227 1.229 1.904 2.861 1.904 4.597s-0.677 3.369-1.904 4.597c-1.228 1.227-2.86 1.903-4.596 1.903z"></path>
<path d="M11.5 11c-0.553 0-1-0.448-1-1v-5c0-0.552 0.447-1 1-1s1 0.448 1 1v5c0 0.552-0.447 1-1 1z"></path>
</symbol>
<symbol id="icon-user-add" viewBox="0 0 24 24">
<title>user-add</title>
<path d="M9 14c1.381 0 2.631-0.56 3.536-1.465 0.904-0.904 1.464-2.154 1.464-3.535s-0.56-2.631-1.464-3.535c-0.905-0.905-2.155-1.465-3.536-1.465s-2.631 0.56-3.536 1.465c-0.904 0.904-1.464 2.154-1.464 3.535s0.56 2.631 1.464 3.535c0.905 0.905 2.155 1.465 3.536 1.465z"></path>
<path d="M9 21c3.518 0 6-1 6-2 0-2-2.354-4-6-4-3.75 0-6 2-6 4 0 1 2.25 2 6 2z"></path>
<path d="M21 12h-2v-2c0-0.553-0.447-1-1-1s-1 0.447-1 1v2h-2c-0.553 0-1 0.447-1 1s0.447 1 1 1h2v2c0 0.553 0.447 1 1 1s1-0.447 1-1v-2h2c0.553 0 1-0.447 1-1s-0.447-1-1-1z"></path>
</symbol>
<symbol id="icon-arrow-right-circle" viewBox="0 0 24 24">
<title>arrow-right-circle</title>
<path d="M23 12c0-3.037-1.232-5.789-3.222-7.778s-4.741-3.222-7.778-3.222-5.789 1.232-7.778 3.222-3.222 4.741-3.222 7.778 1.232 5.789 3.222 7.778 4.741 3.222 7.778 3.222 5.789-1.232 7.778-3.222 3.222-4.741 3.222-7.778zM21 12c0 2.486-1.006 4.734-2.636 6.364s-3.878 2.636-6.364 2.636-4.734-1.006-6.364-2.636-2.636-3.878-2.636-6.364 1.006-4.734 2.636-6.364 3.878-2.636 6.364-2.636 4.734 1.006 6.364 2.636 2.636 3.878 2.636 6.364zM8 13h5.586l-2.293 2.293c-0.391 0.391-0.391 1.024 0 1.414s1.024 0.391 1.414 0l4-4c0.092-0.092 0.166-0.202 0.217-0.324 0.101-0.245 0.101-0.521 0-0.766-0.049-0.118-0.121-0.228-0.217-0.324l-4-4c-0.391-0.391-1.024-0.391-1.414 0s-0.391 1.024 0 1.414l2.293 2.293h-5.586c-0.552 0-1 0.448-1 1s0.448 1 1 1z"></path>
</symbol>
<symbol id="icon-chevrons-down" viewBox="0 0 24 24">
<title>chevrons-down</title>
<path d="M6.293 13.707l5 5c0.391 0.391 1.024 0.391 1.414 0l5-5c0.391-0.391 0.391-1.024 0-1.414s-1.024-0.391-1.414 0l-4.293 4.293-4.293-4.293c-0.391-0.391-1.024-0.391-1.414 0s-0.391 1.024 0 1.414zM6.293 6.707l5 5c0.391 0.391 1.024 0.391 1.414 0l5-5c0.391-0.391 0.391-1.024 0-1.414s-1.024-0.391-1.414 0l-4.293 4.293-4.293-4.293c-0.391-0.391-1.024-0.391-1.414 0s-0.391 1.024 0 1.414z"></path>
</symbol>
<symbol id="icon-chevrons-up" viewBox="0 0 24 24">
<title>chevrons-up</title>
<path d="M17.707 10.293l-5-5c-0.391-0.391-1.024-0.391-1.414 0l-5 5c-0.391 0.391-0.391 1.024 0 1.414s1.024 0.391 1.414 0l4.293-4.293 4.293 4.293c0.391 0.391 1.024 0.391 1.414 0s0.391-1.024 0-1.414zM17.707 17.293l-5-5c-0.391-0.391-1.024-0.391-1.414 0l-5 5c-0.391 0.391-0.391 1.024 0 1.414s1.024 0.391 1.414 0l4.293-4.293 4.293 4.293c0.391 0.391 1.024 0.391 1.414 0s0.391-1.024 0-1.414z"></path>
</symbol>
<symbol id="icon-edit-3" viewBox="0 0 24 24">
<title>edit-3</title>
<path d="M12 21h9c0.552 0 1-0.448 1-1s-0.448-1-1-1h-9c-0.552 0-1 0.448-1 1s0.448 1 1 1zM15.793 2.793l-12.5 12.5c-0.122 0.121-0.217 0.28-0.263 0.465l-1 4c-0.039 0.15-0.042 0.318 0 0.485 0.134 0.536 0.677 0.862 1.213 0.728l4-1c0.167-0.041 0.33-0.129 0.465-0.263l12.5-12.5c0.609-0.609 0.914-1.41 0.914-2.207s-0.305-1.598-0.914-2.207-1.411-0.915-2.208-0.915-1.598 0.305-2.207 0.914zM17.207 4.207c0.219-0.219 0.504-0.328 0.793-0.328s0.574 0.109 0.793 0.328 0.328 0.504 0.328 0.793-0.109 0.574-0.328 0.793l-12.304 12.304-2.115 0.529 0.529-2.115z"></path>
</symbol>
<symbol id="icon-edit" viewBox="0 0 24 24">
<title>edit</title>
<path d="M11 3h-7c-0.828 0-1.58 0.337-2.121 0.879s-0.879 1.293-0.879 2.121v14c0 0.828 0.337 1.58 0.879 2.121s1.293 0.879 2.121 0.879h14c0.828 0 1.58-0.337 2.121-0.879s0.879-1.293 0.879-2.121v-7c0-0.552-0.448-1-1-1s-1 0.448-1 1v7c0 0.276-0.111 0.525-0.293 0.707s-0.431 0.293-0.707 0.293h-14c-0.276 0-0.525-0.111-0.707-0.293s-0.293-0.431-0.293-0.707v-14c0-0.276 0.111-0.525 0.293-0.707s0.431-0.293 0.707-0.293h7c0.552 0 1-0.448 1-1s-0.448-1-1-1zM17.793 1.793l-9.5 9.5c-0.122 0.121-0.217 0.28-0.263 0.465l-1 4c-0.039 0.15-0.042 0.318 0 0.485 0.134 0.536 0.677 0.862 1.213 0.728l4-1c0.167-0.041 0.33-0.129 0.465-0.263l9.5-9.5c0.609-0.609 0.914-1.41 0.914-2.207s-0.305-1.598-0.914-2.207-1.411-0.915-2.208-0.915-1.598 0.305-2.207 0.914zM19.207 3.207c0.219-0.219 0.504-0.328 0.793-0.328s0.574 0.109 0.793 0.328 0.328 0.504 0.328 0.793-0.109 0.574-0.328 0.793l-9.304 9.304-2.114 0.529 0.529-2.114z"></path>
</symbol>
<symbol id="icon-hash1" viewBox="0 0 24 24">
<title>hash1</title>
<path d="M14.216 10l-0.444 4h-3.988l0.444-4zM15.006 2.89l-0.568 5.11h-3.988l0.543-4.89c0.061-0.549-0.335-1.043-0.883-1.104s-1.043 0.335-1.104 0.884l-0.568 5.11h-4.438c-0.552 0-1 0.448-1 1s0.448 1 1 1h4.216l-0.444 4h-3.772c-0.552 0-1 0.448-1 1s0.448 1 1 1h3.549l-0.543 4.89c-0.061 0.549 0.335 1.043 0.883 1.104s1.043-0.335 1.104-0.883l0.569-5.111h3.988l-0.543 4.89c-0.061 0.549 0.335 1.043 0.883 1.104s1.043-0.335 1.104-0.883l0.568-5.111h4.438c0.552 0 1-0.448 1-1s-0.448-1-1-1h-4.216l0.444-4h3.772c0.552 0 1-0.448 1-1s-0.448-1-1-1h-3.549l0.543-4.89c0.061-0.549-0.335-1.043-0.883-1.104s-1.043 0.335-1.104 0.883z"></path>
</symbol>
<symbol id="icon-help-circle" viewBox="0 0 24 24">
<title>help-circle</title>
<path d="M23 12c0-3.037-1.232-5.789-3.222-7.778s-4.741-3.222-7.778-3.222-5.789 1.232-7.778 3.222-3.222 4.741-3.222 7.778 1.232 5.789 3.222 7.778 4.741 3.222 7.778 3.222 5.789-1.232 7.778-3.222 3.222-4.741 3.222-7.778zM21 12c0 2.486-1.006 4.734-2.636 6.364s-3.878 2.636-6.364 2.636-4.734-1.006-6.364-2.636-2.636-3.878-2.636-6.364 1.006-4.734 2.636-6.364 3.878-2.636 6.364-2.636 4.734 1.006 6.364 2.636 2.636 3.878 2.636 6.364zM10.033 9.332c0.183-0.521 0.559-0.918 1.022-1.14s1.007-0.267 1.528-0.083c0.458 0.161 0.819 0.47 1.050 0.859 0.183 0.307 0.285 0.665 0.286 1.037 0 0.155-0.039 0.309-0.117 0.464-0.080 0.16-0.203 0.325-0.368 0.49-0.709 0.709-1.831 1.092-1.831 1.092-0.524 0.175-0.807 0.741-0.632 1.265s0.741 0.807 1.265 0.632c0 0 1.544-0.506 2.613-1.575 0.279-0.279 0.545-0.614 0.743-1.010 0.2-0.4 0.328-0.858 0.328-1.369-0.004-0.731-0.204-1.437-0.567-2.049-0.463-0.778-1.19-1.402-2.105-1.724-1.042-0.366-2.135-0.275-3.057 0.167s-1.678 1.238-2.044 2.28c-0.184 0.521 0.090 1.092 0.611 1.275s1.092-0.091 1.275-0.611zM13 17c0-0.552-0.448-1-1-1s-1 0.448-1 1 0.448 1 1 1 1-0.448 1-1z"></path>
</symbol>
<symbol id="icon-mail" viewBox="0 0 24 24">
<title>mail</title>
<path d="M3 7.921l8.427 5.899c0.34 0.235 0.795 0.246 1.147 0l8.426-5.899v10.079c0 0.272-0.11 0.521-0.295 0.705s-0.433 0.295-0.705 0.295h-16c-0.272 0-0.521-0.11-0.705-0.295s-0.295-0.433-0.295-0.705zM1 6.012v11.988c0 0.828 0.34 1.579 0.88 2.12s1.292 0.88 2.12 0.88h16c0.828 0 1.579-0.34 2.12-0.88s0.88-1.292 0.88-2.12v-11.988c0-0.010 0-0.020 0-0.030-0.005-0.821-0.343-1.565-0.88-2.102-0.541-0.54-1.292-0.88-2.12-0.88h-16c-0.828 0-1.579 0.34-2.12 0.88-0.537 0.537-0.875 1.281-0.88 2.103 0 0.005 0 0.011 0 0.017zM20.894 5.554l-8.894 6.225-8.894-6.225c0.048-0.096 0.112-0.183 0.188-0.259 0.185-0.185 0.434-0.295 0.706-0.295h16c0.272 0 0.521 0.11 0.705 0.295 0.076 0.076 0.14 0.164 0.188 0.259z"></path>
</symbol>
<symbol id="icon-phone1" viewBox="0 0 24 24">
<title>phone1</title>
<path d="M23 16.92c0.016-0.714-0.236-1.404-0.673-1.943-0.46-0.566-1.129-0.967-1.925-1.080-0.8-0.098-1.695-0.314-2.586-0.646-0.433-0.159-0.893-0.218-1.344-0.174-0.663 0.064-1.307 0.349-1.819 0.855l-0.72 0.72c-1.77-1.117-3.36-2.667-4.583-4.589l0.726-0.726c0.322-0.33 0.563-0.726 0.707-1.156 0.212-0.632 0.214-1.336-0.039-2.011-0.289-0.753-0.518-1.644-0.644-2.595-0.104-0.715-0.455-1.347-0.963-1.805-0.539-0.485-1.256-0.778-2.027-0.77h-2.996c-0.088 0-0.182 0.004-0.273 0.012-0.824 0.075-1.542 0.478-2.033 1.066s-0.758 1.367-0.683 2.199c0.3 3.076 1.365 6.243 3.216 9.102 1.502 2.413 3.648 4.623 6.298 6.306 2.568 1.697 5.684 2.862 9.086 3.231 0.092 0.009 0.191 0.013 0.288 0.013 0.828-0.003 1.578-0.343 2.118-0.887s0.873-1.297 0.87-2.121zM21 16.92v3c0.001 0.28-0.109 0.53-0.29 0.712s-0.429 0.295-0.706 0.296l-0.088-0.004c-3.060-0.333-5.873-1.388-8.174-2.909-2.428-1.543-4.359-3.538-5.702-5.694-1.697-2.62-2.655-5.481-2.924-8.238-0.024-0.268 0.064-0.526 0.229-0.724s0.403-0.33 0.678-0.355l3.087-0.004c0.271-0.003 0.507 0.094 0.687 0.256 0.17 0.154 0.288 0.366 0.323 0.608 0.142 1.072 0.408 2.117 0.757 3.025 0.081 0.216 0.080 0.447 0.010 0.658-0.049 0.145-0.131 0.281-0.242 0.395l-1.262 1.261c-0.324 0.324-0.379 0.814-0.162 1.201 1.584 2.785 3.839 4.957 6.381 6.378 0.397 0.222 0.882 0.144 1.195-0.166l1.27-1.27c0.166-0.164 0.377-0.257 0.598-0.279 0.152-0.015 0.31 0.005 0.459 0.060 1.022 0.381 2.070 0.636 3.034 0.754 0.241 0.034 0.462 0.166 0.615 0.355 0.147 0.181 0.231 0.412 0.226 0.682z"></path>
</symbol>
<symbol id="icon-zap" viewBox="0 0 24 24">
<title>zap</title>
<path d="M11.585 5.26l-0.577 4.616c-0.005 0.037-0.008 0.080-0.008 0.124 0 0.552 0.448 1 1 1h6.865l-6.45 7.74 0.577-4.616c0.005-0.037 0.008-0.080 0.008-0.124 0-0.552-0.448-1-1-1h-6.865zM12.232 1.36l-10 12c-0.354 0.424-0.296 1.055 0.128 1.408 0.187 0.157 0.415 0.233 0.64 0.232h7.867l-0.859 6.876c-0.069 0.548 0.32 1.048 0.868 1.116 0.349 0.044 0.678-0.098 0.892-0.352l10-12c0.354-0.424 0.296-1.055-0.128-1.408-0.187-0.157-0.415-0.233-0.64-0.232h-7.867l0.859-6.876c0.069-0.548-0.32-1.048-0.868-1.116-0.349-0.044-0.678 0.098-0.892 0.352z"></path>
</symbol>
<symbol id="icon-inr" viewBox="0 0 14 28">
<title>inr</title>
<path d="M14.031 7.344v1.594c0 0.281-0.219 0.5-0.5 0.5h-2.625c-0.484 3-2.781 4.953-6.328 5.375 2.328 2.484 4.813 5.484 7.172 8.375 0.125 0.141 0.156 0.359 0.063 0.531-0.078 0.172-0.25 0.281-0.453 0.281h-3.047c-0.156 0-0.297-0.063-0.391-0.187-2.516-3.016-4.828-5.781-7.781-8.922-0.094-0.094-0.141-0.219-0.141-0.344v-1.984c0-0.266 0.219-0.5 0.5-0.5h1.75c2.75 0 4.469-0.922 4.922-2.625h-6.672c-0.281 0-0.5-0.219-0.5-0.5v-1.594c0-0.281 0.219-0.5 0.5-0.5h6.453c-0.594-1.172-2-1.766-4.188-1.766h-2.266c-0.281 0-0.5-0.234-0.5-0.5v-2.078c0-0.281 0.219-0.5 0.5-0.5h13c0.281 0 0.5 0.219 0.5 0.5v1.594c0 0.281-0.219 0.5-0.5 0.5h-3.641c0.5 0.641 0.828 1.391 1 2.25h2.672c0.281 0 0.5 0.219 0.5 0.5z"></path>
</symbol>
<symbol id="icon-sign-out" viewBox="0 0 25 28">
<title>sign-out</title>
<path d="M10 22.5c0 0.438 0.203 1.5-0.5 1.5h-5c-2.484 0-4.5-2.016-4.5-4.5v-11c0-2.484 2.016-4.5 4.5-4.5h5c0.266 0 0.5 0.234 0.5 0.5 0 0.438 0.203 1.5-0.5 1.5h-5c-1.375 0-2.5 1.125-2.5 2.5v11c0 1.375 1.125 2.5 2.5 2.5h4.5c0.391 0 1-0.078 1 0.5zM24.5 14c0 0.266-0.109 0.516-0.297 0.703l-8.5 8.5c-0.187 0.187-0.438 0.297-0.703 0.297-0.547 0-1-0.453-1-1v-4.5h-7c-0.547 0-1-0.453-1-1v-6c0-0.547 0.453-1 1-1h7v-4.5c0-0.547 0.453-1 1-1 0.266 0 0.516 0.109 0.703 0.297l8.5 8.5c0.187 0.187 0.297 0.438 0.297 0.703z"></path>
</symbol>
<symbol id="icon-question-circle-o" viewBox="0 0 24 28">
<title>question-circle-o</title>
<path d="M13.75 18.75v2.5c0 0.281-0.219 0.5-0.5 0.5h-2.5c-0.281 0-0.5-0.219-0.5-0.5v-2.5c0-0.281 0.219-0.5 0.5-0.5h2.5c0.281 0 0.5 0.219 0.5 0.5zM17.75 11c0 2.219-1.547 3.094-2.688 3.734-0.812 0.469-1.313 0.766-1.313 1.266v0.5c0 0.281-0.219 0.5-0.5 0.5h-2.5c-0.281 0-0.5-0.219-0.5-0.5v-1.062c0-1.922 1.375-2.531 2.484-3.031 0.938-0.438 1.516-0.734 1.516-1.437 0-0.906-1.141-1.578-2.172-1.578-0.547 0-1.125 0.172-1.484 0.422-0.344 0.234-0.672 0.578-1.25 1.297-0.094 0.125-0.234 0.187-0.391 0.187-0.109 0-0.219-0.031-0.297-0.094l-1.687-1.281c-0.203-0.156-0.25-0.453-0.109-0.672 1.281-2.016 3.078-3 5.453-3v0c2.562 0 5.437 2.031 5.437 4.75zM12 4c-5.516 0-10 4.484-10 10s4.484 10 10 10 10-4.484 10-10-4.484-10-10-10zM24 14c0 6.625-5.375 12-12 12s-12-5.375-12-12 5.375-12 12-12v0c6.625 0 12 5.375 12 12z"></path>
</symbol>
<symbol id="icon-user-circle-o" viewBox="0 0 28 28">
<title>user-circle-o</title>
<path d="M14 0c7.734 0 14 6.266 14 14 0 7.688-6.234 14-14 14-7.75 0-14-6.297-14-14 0-7.734 6.266-14 14-14zM23.672 21.109c1.453-2 2.328-4.453 2.328-7.109 0-6.609-5.391-12-12-12s-12 5.391-12 12c0 2.656 0.875 5.109 2.328 7.109 0.562-2.797 1.922-5.109 4.781-5.109 1.266 1.234 2.984 2 4.891 2s3.625-0.766 4.891-2c2.859 0 4.219 2.312 4.781 5.109zM20 11c0-3.313-2.688-6-6-6s-6 2.688-6 6 2.688 6 6 6 6-2.688 6-6z"></path>
</symbol>
<symbol id="icon-warning1" viewBox="0 0 20 20">
<title>warning1</title>
<path d="M19.511 17.98l-8.907-16.632c-0.124-0.215-0.354-0.348-0.604-0.348s-0.481 0.133-0.604 0.348l-8.906 16.632c-0.121 0.211-0.119 0.471 0.005 0.68 0.125 0.211 0.352 0.34 0.598 0.34h17.814c0.245 0 0.474-0.129 0.598-0.34 0.124-0.209 0.126-0.469 0.006-0.68zM11 17h-2v-2h2v2zM11 13.5h-2v-6.5h2v6.5z"></path>
</symbol>
<symbol id="icon-chevron-down" viewBox="0 0 20 20">
<title>chevron-down</title>
<path d="M4.516 7.548c0.436-0.446 1.043-0.481 1.576 0l3.908 3.747 3.908-3.747c0.533-0.481 1.141-0.446 1.574 0 0.436 0.445 0.408 1.197 0 1.615-0.406 0.418-4.695 4.502-4.695 4.502-0.217 0.223-0.502 0.335-0.787 0.335s-0.57-0.112-0.789-0.335c0 0-4.287-4.084-4.695-4.502s-0.436-1.17 0-1.615z"></path>
</symbol>
<symbol id="icon-chevron-small-down" viewBox="0 0 20 20">
<title>chevron-small-down</title>
<path d="M13.418 7.859c0.271-0.268 0.709-0.268 0.978 0s0.272 0.701 0 0.969l-3.908 3.83c-0.27 0.268-0.707 0.268-0.979 0l-3.908-3.83c-0.27-0.267-0.27-0.701 0-0.969s0.709-0.268 0.978 0l3.421 3.141 3.418-3.141z"></path>
</symbol>
<symbol id="icon-chevron-small-up" viewBox="0 0 20 20">
<title>chevron-small-up</title>
<path d="M6.582 12.141c-0.271 0.268-0.709 0.268-0.978 0s-0.272-0.701 0-0.969l3.908-3.83c0.27-0.268 0.707-0.268 0.979 0l3.908 3.83c0.27 0.267 0.27 0.701 0 0.969s-0.709 0.268-0.979 0l-3.42-3.141-3.418 3.141z"></path>
</symbol>
<symbol id="icon-chevron-up" viewBox="0 0 20 20">
<title>chevron-up</title>
<path d="M15.484 12.452c-0.436 0.446-1.043 0.481-1.576 0l-3.908-3.747-3.908 3.747c-0.533 0.481-1.141 0.446-1.574 0-0.436-0.445-0.408-1.197 0-1.615 0.406-0.418 4.695-4.502 4.695-4.502 0.217-0.223 0.502-0.335 0.787-0.335s0.57 0.112 0.789 0.335c0 0 4.287 4.084 4.695 4.502s0.436 1.17 0 1.615z"></path>
</symbol>
<symbol id="icon-controller-record" viewBox="0 0 20 20">
<title>controller-record</title>
<path d="M10 3c-3.866 0-7 3.133-7 7 0 3.865 3.134 7 7 7s7-3.135 7-7c0-3.867-3.134-7-7-7z"></path>
</symbol>
<symbol id="icon-back-in-time" viewBox="0 0 20 20">
<title>back-in-time</title>
<path d="M11 1.799c-4.445 0-8.061 3.562-8.169 7.996v0.205h-2.372l3.594 3.894 3.494-3.894h-2.672v-0.205c0.107-3.303 2.808-5.945 6.125-5.945 3.386 0 6.131 2.754 6.131 6.15s-2.745 6.15-6.131 6.15c-1.357 0-2.611-0.445-3.627-1.193l-1.406 1.504c1.388 1.088 3.135 1.738 5.033 1.738 4.515 0 8.174-3.67 8.174-8.199s-3.659-8.201-8.174-8.201zM10 5v5c0 0.13 0.027 0.26 0.077 0.382s0.124 0.233 0.216 0.325l3.2 3.2c0.283-0.183 0.55-0.389 0.787-0.628l-2.28-2.279v-6h-2z"></path>
</symbol>
<symbol id="icon-check" viewBox="0 0 20 20">
<title>check</title>
<path d="M8.294 16.998c-0.435 0-0.847-0.203-1.111-0.553l-3.573-4.721c-0.465-0.613-0.344-1.486 0.27-1.951 0.615-0.467 1.488-0.344 1.953 0.27l2.351 3.104 5.911-9.492c0.407-0.652 1.267-0.852 1.921-0.445s0.854 1.266 0.446 1.92l-6.984 11.21c-0.242 0.391-0.661 0.635-1.12 0.656-0.022 0.002-0.042 0.002-0.064 0.002z"></path>
</symbol>
<symbol id="icon-help-with-circle" viewBox="0 0 20 20">
<title>help-with-circle</title>
<path d="M10 0.4c-5.302 0-9.6 4.298-9.6 9.6s4.298 9.6 9.6 9.6c5.301 0 9.6-4.298 9.6-9.601 0-5.301-4.299-9.599-9.6-9.599zM9.849 15.599h-0.051c-0.782-0.023-1.334-0.6-1.311-1.371 0.022-0.758 0.587-1.309 1.343-1.309l0.046 0.002c0.804 0.023 1.35 0.594 1.327 1.387-0.023 0.76-0.578 1.291-1.354 1.291zM13.14 9.068c-0.184 0.26-0.588 0.586-1.098 0.983l-0.562 0.387c-0.308 0.24-0.494 0.467-0.563 0.688-0.056 0.174-0.082 0.221-0.087 0.576v0.090h-2.145l0.006-0.182c0.027-0.744 0.045-1.184 0.354-1.547 0.485-0.568 1.555-1.258 1.6-1.287 0.154-0.115 0.283-0.246 0.379-0.387 0.225-0.311 0.324-0.555 0.324-0.793 0-0.334-0.098-0.643-0.293-0.916-0.188-0.266-0.545-0.398-1.061-0.398-0.512 0-0.863 0.162-1.072 0.496-0.216 0.341-0.325 0.7-0.325 1.067v0.092h-2.211l0.004-0.096c0.057-1.353 0.541-2.328 1.435-2.897 0.563-0.361 1.264-0.544 2.081-0.544 1.068 0 1.972 0.26 2.682 0.772 0.721 0.519 1.086 1.297 1.086 2.311-0.001 0.567-0.18 1.1-0.534 1.585z"></path>
</symbol>
<symbol id="icon-home" viewBox="0 0 20 20">
<title>home</title>
<path d="M18.672 11h-1.672v6c0 0.445-0.194 1-1 1h-4v-6h-4v6h-4c-0.806 0-1-0.555-1-1v-6h-1.672c-0.598 0-0.47-0.324-0.060-0.748l8.024-8.032c0.195-0.202 0.451-0.302 0.708-0.312 0.257 0.010 0.513 0.109 0.708 0.312l8.023 8.031c0.411 0.425 0.539 0.749-0.059 0.749z"></path>
</symbol>
<symbol id="icon-log-out" viewBox="0 0 20 20">
<title>log-out</title>
<path d="M19 10l-6-5v3h-7v4h7v3l6-5zM3 3h8v-2h-8c-1.1 0-2 0.9-2 2v14c0 1.1 0.9 2 2 2h8v-2h-8v-14z"></path>
</symbol>
<symbol id="icon-mail1" viewBox="0 0 20 20">
<title>mail1</title>
<path d="M1.574 5.286c0.488 0.262 7.248 3.894 7.5 4.029s0.578 0.199 0.906 0.199c0.328 0 0.654-0.064 0.906-0.199s7.012-3.767 7.5-4.029c0.489-0.263 0.951-1.286 0.054-1.286h-16.919c-0.897 0-0.435 1.023 0.053 1.286zM18.613 7.489c-0.555 0.289-7.387 3.849-7.727 4.027s-0.578 0.199-0.906 0.199-0.566-0.021-0.906-0.199-7.133-3.739-7.688-4.028c-0.39-0.204-0.386 0.035-0.386 0.219s0 7.293 0 7.293c0 0.42 0.566 1 1 1h16c0.434 0 1-0.58 1-1 0 0 0-7.108 0-7.292s0.004-0.423-0.387-0.219z"></path>
</symbol>
<symbol id="icon-pencil" viewBox="0 0 20 20">
<title>pencil</title>
<path d="M14.69 2.661c-1.894-1.379-3.242-1.349-3.754-1.266-0.144 0.023-0.265 0.106-0.35 0.223l-6.883 9.497c-0.277 0.382-0.437 0.836-0.462 1.307l-0.296 5.624c-0.021 0.405 0.382 0.698 0.76 0.553l5.256-2.010c0.443-0.17 0.828-0.465 1.106-0.849l6.88-9.494c0.089-0.123 0.125-0.273 0.1-0.423-0.084-0.526-0.487-1.802-2.357-3.162zM8.977 15.465l-2.043 0.789c-0.080 0.031-0.169 0.006-0.221-0.062-0.263-0.335-0.576-0.667-1.075-1.030-0.499-0.362-0.911-0.558-1.31-0.706-0.080-0.030-0.131-0.106-0.126-0.192l0.122-2.186 0.549-0.755c0 0 1.229-0.169 2.833 0.998 1.602 1.166 1.821 2.388 1.821 2.388l-0.55 0.756z"></path>
</symbol>
<symbol id="icon-stopwatch" viewBox="0 0 20 20">
<title>stopwatch</title>
<path d="M7.376 6.745c-0.447 0.275 1.197 4.242 1.598 4.888 0.35 0.569 1.093 0.742 1.658 0.394 0.568-0.352 0.745-1.094 0.395-1.66-0.397-0.648-3.205-3.898-3.651-3.622zM7.041 2.402c0.928-0.323 1.922-0.502 2.959-0.502s2.031 0.179 2.959 0.502c0.329 0.114 0.765-0.115 0.572-0.611-0.141-0.36-0.277-0.712-0.332-0.855-0.131-0.339-0.6-0.619-0.804-0.665-0.772-0.174-1.572-0.271-2.395-0.271s-1.623 0.097-2.396 0.271c-0.204 0.046-0.672 0.326-0.803 0.665-0.055 0.143-0.192 0.495-0.332 0.855-0.193 0.496 0.243 0.726 0.572 0.611zM19.098 3.186c-0.192-0.23-0.396-0.455-0.613-0.672-0.216-0.217-0.441-0.42-0.67-0.613-0.153-0.129-0.603-0.234-0.888 0.051s-1.648 1.647-1.648 1.647c0.402 0.288 0.793 0.605 1.155 0.966s0.677 0.752 0.966 1.155c0 0 1.363-1.362 1.647-1.647 0.286-0.286 0.181-0.735 0.051-0.887zM10 2.9c-4.475 0-8.101 3.626-8.101 8.1s3.626 8.101 8.101 8.101c4.473 0 8.1-3.626 8.1-8.101 0-4.473-3.627-8.1-8.1-8.1zM10 17.101c-3.368 0-6.1-2.731-6.1-6.1s2.731-6.1 6.1-6.1c3.369 0 6.101 2.731 6.101 6.1s-2.732 6.1-6.101 6.1z"></path>
</symbol>
<symbol id="icon-text-document-inverted" viewBox="0 0 20 20">
<title>text-document-inverted</title>
<path d="M16 1h-12c-0.553 0-1 0.447-1 1v16c0 0.552 0.447 1 1 1h12c0.553 0 1-0.448 1-1v-16c0-0.552-0.447-1-1-1zM13 15h-6v-2h6v2zM13 11h-6v-2h6v2zM13 7h-6v-2h6v2z"></path>
</symbol>
<symbol id="icon-time-slot" viewBox="0 0 20 20">
<title>time-slot</title>
<path d="M10 0.4c-5.302 0-9.6 4.298-9.6 9.6s4.298 9.6 9.6 9.6c5.301 0 9.6-4.298 9.6-9.601 0-5.301-4.299-9.599-9.6-9.599zM10 17.599c-4.197 0-7.6-3.402-7.6-7.6 0-4.197 3.402-7.6 7.6-7.6v0 7.601l6.792-3.396c0.513 1.023 0.808 2.173 0.808 3.396 0 4.197-3.403 7.599-7.6 7.599z"></path>
</symbol>
<symbol id="icon-v-card" viewBox="0 0 20 20">
<title>v-card</title>
<path d="M19 3h-18c-0.553 0-1 0.447-1 1v12c0 0.552 0.447 1 1 1h18c0.553 0 1-0.448 1-1v-12c0-0.552-0.447-1-1-1zM13 7h4v1h-4v-1zM11 14.803c-0.129-0.102-0.293-0.201-0.529-0.303-1.18-0.508-2.961-1.26-2.961-2.176 0-0.551 0.359-0.371 0.518-1.379 0.066-0.418 0.385-0.007 0.445-0.961 0-0.38-0.174-0.475-0.174-0.475s0.088-0.562 0.123-0.996c0.036-0.453-0.221-1.8-1.277-2.097-0.186-0.188-0.311-0.111 0.258-0.412-1.244-0.059-1.534 0.592-2.196 1.071-0.564 0.42-0.717 1.085-0.689 1.439 0.037 0.433 0.125 0.996 0.125 0.996s-0.175 0.094-0.175 0.474c0.061 0.954 0.38 0.543 0.445 0.961 0.158 1.008 0.519 0.828 0.519 1.379 0 0.916-1.781 1.668-2.961 2.176-0.203 0.088-0.349 0.173-0.471 0.26v-9.76h9v9.803zM18 11h-5v-1h5v1z"></path>
</symbol>
<symbol id="icon-wallet1" viewBox="0 0 20 20">
<title>wallet1</title>
<path d="M16 6h-12.5v-0.5l11-0.88v0.88h1.5v-1.5c0-1.1-0.891-1.872-1.979-1.717l-10.041 1.434c-1.089 0.156-1.98 1.183-1.98 2.283v10c0 1.104 0.895 2 2 2h12c1.104 0 2-0.896 2-2v-8c0-1.104-0.896-2-2-2zM14.5 13.006c-0.828 0-1.5-0.672-1.5-1.5s0.672-1.5 1.5-1.5 1.5 0.672 1.5 1.5-0.672 1.5-1.5 1.5z"></path>
</symbol>
<symbol id="icon-at-symbol" viewBox="0 0 20 20">
<title>at-symbol</title>
<path d="M13.6 13.47c-0.91 0.953-2.191 1.545-3.61 1.545-2.756 0-4.99-2.234-4.99-4.99 0-0.009 0-0.018 0-0.026v0.001c0-2.761 2.239-5 5-5 1.131 0 2.175 0.376 3.013 1.009l-0.013-0.009v-1h2v6.5c0 0.828 0.672 1.5 1.5 1.5s1.5-0.672 1.5-1.5v0-1.5c-0.003-4.416-3.584-7.994-8-7.994-4.418 0-8 3.582-8 8s3.582 8 8 8c1.305 0 2.537-0.312 3.625-0.867l-0.045 0.021 0.9 1.79c-1.305 0.668-2.847 1.060-4.48 1.060-5.523 0-10-4.477-10-10s4.477-10 10-10c5.519 0 9.994 4.472 10 9.99v0.001h-0.010v1.5c0 0.003 0 0.007 0 0.010 0 1.933-1.567 3.5-3.5 3.5-1.202 0-2.262-0.606-2.892-1.528l-0.008-0.012zM10 13c1.657 0 3-1.343 3-3s-1.343-3-3-3v0c-1.657 0-3 1.343-3 3s1.343 3 3 3v0z"></path>
</symbol>
<symbol id="icon-cheveron-outline-down" viewBox="0 0 20 20">
<title>cheveron-outline-down</title>
<path d="M20 10c0 5.523-4.477 10-10 10s-10-4.477-10-10v0c0-5.523 4.477-10 10-10s10 4.477 10 10v0zM10 2c-4.418 0-8 3.582-8 8s3.582 8 8 8v0c4.418 0 8-3.582 8-8s-3.582-8-8-8v0zM9.3 12.54l-3.55-3.54 1.41-1.41 2.84 2.81 2.83-2.82 1.41 1.42-4.24 4.24-0.7-0.7z"></path>
</symbol>
<symbol id="icon-cheveron-outline-right" viewBox="0 0 20 20">
<title>cheveron-outline-right</title>
<path d="M10 0c5.523 0 10 4.477 10 10s-4.477 10-10 10v0c-5.523 0-10-4.477-10-10s4.477-10 10-10v0zM2 10c0 4.418 3.582 8 8 8s8-3.582 8-8v0c0-4.418-3.582-8-8-8s-8 3.582-8 8v0zM12.54 10.7l-3.54 3.55-1.41-1.41 2.81-2.84-2.8-2.83 1.4-1.41 4.24 4.24-0.7 0.7z"></path>
</symbol>
<symbol id="icon-cheveron-outline-up" viewBox="0 0 20 20">
<title>cheveron-outline-up</title>
<path d="M0 10c0-5.523 4.477-10 10-10s10 4.477 10 10v0c0 5.523-4.477 10-10 10s-10-4.477-10-10v0zM10 18c4.418 0 8-3.582 8-8s-3.582-8-8-8v0c-4.418 0-8 3.582-8 8s3.582 8 8 8v0zM10.7 7.46l3.55 3.54-1.41 1.41-2.84-2.81-2.83 2.8-1.41-1.4 4.24-4.24 0.7 0.7z"></path>
</symbol>
<symbol id="icon-close-outline" viewBox="0 0 20 20">
<title>close-outline</title>
<path d="M2.93 17.070c-1.884-1.821-3.053-4.37-3.053-7.193 0-5.523 4.477-10 10-10 2.823 0 5.372 1.169 7.19 3.050l0.003 0.003c1.737 1.796 2.807 4.247 2.807 6.947 0 5.523-4.477 10-10 10-2.7 0-5.151-1.070-6.95-2.81l0.003 0.003zM4.34 15.66c1.449 1.449 3.45 2.344 5.66 2.344 4.421 0 8.004-3.584 8.004-8.004 0-2.21-0.896-4.211-2.344-5.66v0c-1.449-1.449-3.45-2.344-5.66-2.344-4.421 0-8.004 3.584-8.004 8.004 0 2.21 0.896 4.211 2.344 5.66v0zM14.24 7.17l-2.83 2.83 2.83 2.83-1.41 1.41-2.83-2.83-2.83 2.83-1.41-1.41 2.83-2.83-2.83-2.83 1.41-1.41 2.83 2.83 2.83-2.83 1.41 1.41z"></path>
</symbol>
<symbol id="icon-compose" viewBox="0 0 20 20">
<title>compose</title>
<path d="M2 4v14h14v-6l2-2v10h-18v-18h10l-2 2h-6zM12.3 3.7l4 4-8.3 8.3h-4v-4l8.3-8.3zM13.7 2.3l2.3-2.3 4 4-2.3 2.3-4-4z"></path>
</symbol>
<symbol id="icon-credit-card1" viewBox="0 0 20 20">
<title>credit-card1</title>
<path d="M18 6v-2h-16v2h16zM18 10h-16v6h16v-6zM0 4c0-1.1 0.9-2 2-2h16c1.105 0 2 0.895 2 2v0 12c0 1.105-0.895 2-2 2v0h-16c-1.105 0-2-0.895-2-2v0-12zM4 12h4v2h-4v-2z"></path>
</symbol>
<symbol id="icon-document" viewBox="0 0 20 20">
<title>document</title>
<path d="M4 18h12v-12h-4v-4h-8v16zM2 19v-19h12l4 4v16h-16v-1z"></path>
</symbol>
<symbol id="icon-envelope" viewBox="0 0 20 20">
<title>envelope</title>
<path d="M18 2c1.105 0 2 0.895 2 2v0 12c0 1.105-0.895 2-2 2v0h-16c-1.105 0-2-0.895-2-2v0-12c0-1.1 0.9-2 2-2h16zM13.63 11.1l6.37 4.9v-2l-5.12-3.9 5.12-4.1v-2l-10 8-10-8v2l5.12 4.1-5.12 3.9v2l6.37-4.9 3.63 2.9 3.63-2.9z"></path>
</symbol>
<symbol id="icon-news-paper" viewBox="0 0 20 20">
<title>news-paper</title>
<path d="M16 2h4v15c0 1.657-1.343 3-3 3v0h-14c-1.657 0-3-1.343-3-3v0-17h16v2zM16 4v13c0 0.552 0.448 1 1 1v0c0.552 0 1-0.448 1-1v0-13h-2zM2 2v15c0 0.552 0.448 1 1 1v0h11.17c-0.108-0.295-0.17-0.637-0.17-0.992 0-0.003 0-0.006 0-0.008v0-15h-12zM4 10h8v2h-8v-2zM4 14h8v2h-8v-2zM4 4h8v4h-8v-4z"></path>
</symbol>
<symbol id="icon-phone" viewBox="0 0 20 20">
<title>phone</title>
<path d="M20 18.35v0.65c0 0.552-0.448 1-1 1v0h-2c-9.389 0-17-7.611-17-17v0-2c0-0.552 0.448-1 1-1v0h4c0.552 0 1 0.448 1 1v0 4c0 0.56-0.31 1.31-0.7 1.7l-2.14 2.14c1.52 3.6 4.4 6.48 8 8l2.12-2.12c0.4-0.4 1.15-0.71 1.7-0.71h4.020c0.548 0.006 0.99 0.451 0.99 1 0 0 0 0 0 0v0 3.35z"></path>
</symbol>
<symbol id="icon-stand-by" viewBox="0 0 20 20">
<title>stand-by</title>
<path d="M4.16 4.16l1.42 1.42c-1.585 1.292-2.588 3.244-2.588 5.43 0 3.86 3.13 6.99 6.99 6.99 0.006 0 0.013 0 0.019-0h-0.001c3.862-0.006 6.99-3.137 6.99-7 0-2.18-0.996-4.127-2.558-5.41l-0.012-0.010 1.42-1.42c1.936 1.661 3.155 4.11 3.155 6.844 0 4.971-4.029 9-9 9s-9-4.029-9-9c0-2.734 1.219-5.183 3.143-6.834l0.012-0.010zM9 0h2v8h-2v-8z"></path>
</symbol>
<symbol id="icon-thumbs-down" viewBox="0 0 20 20">
<title>thumbs-down</title>
<path d="M11 20c-1.105 0-2-0.895-2-2v0-6h-7c-1.105 0-2-0.895-2-2v0-2l2.3-6.12c0.467-1.069 1.489-1.816 2.692-1.88l0.008-0h8c1.105 0 2 0.895 2 2v0 8l-3 7v3h-1zM17 10v-10h3v10h-3z"></path>
</symbol>
<symbol id="icon-thumbs-up" viewBox="0 0 20 20">
<title>thumbs-up</title>
<path d="M11 0h1v3l3 7v8c0 1.105-0.895 2-2 2v0h-8c-1.1 0-2.31-0.84-2.7-1.88l-2.3-6.12v-2c0-1.105 0.895-2 2-2v0h7v-6c0-1.105 0.895-2 2-2v0zM17 10h3v10h-3v-10z"></path>
</symbol>
<symbol id="icon-user" viewBox="0 0 20 20">
<title>user</title>
<path d="M5 5c0-2.761 2.239-5 5-5s5 2.239 5 5v0 2c0 2.761-2.239 5-5 5s-5-2.239-5-5v0-2zM0 16.68c2.86-1.685 6.301-2.68 9.974-2.68 0.009 0 0.018 0 0.027 0h-0.001c3.64 0 7.060 0.97 10 2.68v3.32h-20v-3.32z"></path>
</symbol>
<symbol id="icon-view-hide" viewBox="0 0 20 20">
<title>view-hide</title>
<path d="M12.81 4.36l-1.77 1.78c-0.311-0.087-0.668-0.137-1.037-0.137-2.209 0-4 1.791-4 4 0 0.369 0.050 0.726 0.143 1.065l-0.007-0.028-2.76 2.75c-1.32-1-2.42-2.3-3.18-3.79 1.86-3.591 5.548-6.003 9.799-6.003 0.996 0 1.96 0.132 2.878 0.38l-0.077-0.018zM16.61 6.21c1.33 1 2.43 2.3 3.2 3.79-1.859 3.594-5.549 6.007-9.802 6.007-1.002 0-1.973-0.134-2.895-0.385l0.077 0.018 1.77-1.78c0.311 0.087 0.668 0.137 1.037 0.137 2.209 0 4-1.791 4-4 0-0.369-0.050-0.726-0.143-1.065l0.007 0.028 2.76-2.75zM16.36 2.22l1.42 1.42-14.14 14.14-1.42-1.42 14.14-14.14z"></path>
</symbol>
<symbol id="icon-view-show" viewBox="0 0 20 20">
<title>view-show</title>
<path d="M0.2 10c1.86-3.592 5.548-6.004 9.8-6.004s7.94 2.412 9.771 5.943l0.029 0.061c-1.86 3.592-5.548 6.004-9.8 6.004s-7.94-2.412-9.771-5.943l-0.029-0.061zM10 14c2.209 0 4-1.791 4-4s-1.791-4-4-4v0c-2.209 0-4 1.791-4 4s1.791 4 4 4v0zM10 12c-1.105 0-2-0.895-2-2s0.895-2 2-2v0c1.105 0 2 0.895 2 2s-0.895 2-2 2v0z"></path>
</symbol>
</defs>
</svg>
